{"glyphs":{"0":{"ha":1215,"x_min":174,"x_max":1042,"o":"m 868 174 l 868 0 l 347 0 l 347 174 l 868 174 m 868 1215 l 868 1042 l 347 1042 l 347 1215 l 868 1215 m 521 521 l 521 347 l 347 347 l 347 174 l 174 174 l 174 1042 l 347 1042 l 347 521 l 521 521 m 1042 1042 l 1042 174 l 868 174 l 868 694 l 694 694 l 694 868 l 868 868 l 868 1042 l 1042 1042 m 521 694 l 694 694 l 694 521 l 521 521 l 521 694 z "},"1":{"ha":1215,"x_min":347,"x_max":868,"o":"m 868 174 l 868 0 l 347 0 l 347 174 l 521 174 l 521 868 l 347 868 l 347 1042 l 521 1042 l 521 1215 l 694 1215 l 694 174 l 868 174 z "},"2":{"ha":1215,"x_min":174,"x_max":1042,"o":"m 868 1215 l 868 1042 l 347 1042 l 347 1215 l 868 1215 m 174 0 l 174 347 l 347 347 l 347 174 l 1042 174 l 1042 0 l 174 0 m 521 521 l 521 347 l 347 347 l 347 521 l 521 521 m 1042 1042 l 1042 694 l 868 694 l 868 1042 l 1042 1042 m 521 694 l 868 694 l 868 521 l 521 521 l 521 694 m 174 1042 l 347 1042 l 347 868 l 174 868 l 174 1042 z "},"3":{"ha":1215,"x_min":174,"x_max":1042,"o":"m 868 174 l 868 521 l 1042 521 l 1042 174 l 868 174 m 1042 868 l 868 868 l 868 1042 l 174 1042 l 174 1215 l 1042 1215 l 1042 868 m 521 521 l 521 694 l 694 694 l 694 868 l 868 868 l 868 521 l 521 521 m 347 0 l 347 174 l 868 174 l 868 0 l 347 0 m 174 174 l 174 347 l 347 347 l 347 174 l 174 174 z "},"4":{"ha":1215,"x_min":174,"x_max":1042,"o":"m 1042 521 l 1042 347 l 868 347 l 868 0 l 694 0 l 694 347 l 174 347 l 174 694 l 347 694 l 347 521 l 694 521 l 694 868 l 521 868 l 521 1042 l 694 1042 l 694 1215 l 868 1215 l 868 521 l 1042 521 m 521 868 l 521 694 l 347 694 l 347 868 l 521 868 z "},"5":{"ha":1215,"x_min":174,"x_max":1042,"o":"m 868 174 l 868 0 l 347 0 l 347 174 l 868 174 m 1042 1042 l 347 1042 l 347 868 l 868 868 l 868 694 l 174 694 l 174 1215 l 1042 1215 l 1042 1042 m 174 174 l 174 347 l 347 347 l 347 174 l 174 174 m 1042 694 l 1042 174 l 868 174 l 868 694 l 1042 694 z "},"6":{"ha":1215,"x_min":174,"x_max":1042,"o":"m 868 174 l 868 521 l 1042 521 l 1042 174 l 868 174 m 347 0 l 347 174 l 868 174 l 868 0 l 347 0 m 521 868 l 347 868 l 347 1042 l 521 1042 l 521 868 m 1042 1042 l 521 1042 l 521 1215 l 1042 1215 l 1042 1042 m 174 174 l 174 868 l 347 868 l 347 694 l 868 694 l 868 521 l 347 521 l 347 174 l 174 174 z "},"7":{"ha":1215,"x_min":174,"x_max":1042,"o":"m 1042 868 l 868 868 l 868 1042 l 174 1042 l 174 1215 l 1042 1215 l 1042 868 m 521 521 l 521 0 l 347 0 l 347 521 l 521 521 m 521 694 l 694 694 l 694 521 l 521 521 l 521 694 m 694 868 l 868 868 l 868 694 l 694 694 l 694 868 z "},"8":{"ha":1215,"x_min":174,"x_max":1042,"o":"m 868 174 l 868 521 l 1042 521 l 1042 174 l 868 174 m 868 1215 l 868 1042 l 347 1042 l 347 1215 l 868 1215 m 347 0 l 347 174 l 868 174 l 868 0 l 347 0 m 1042 1042 l 1042 694 l 868 694 l 868 1042 l 1042 1042 m 174 174 l 174 521 l 347 521 l 347 174 l 174 174 m 868 521 l 347 521 l 347 694 l 868 694 l 868 521 m 174 694 l 174 1042 l 347 1042 l 347 694 l 174 694 z "},"9":{"ha":1215,"x_min":174,"x_max":1042,"o":"m 868 174 l 694 174 l 694 347 l 868 347 l 868 174 m 868 1215 l 868 1042 l 347 1042 l 347 1215 l 868 1215 m 174 0 l 174 174 l 694 174 l 694 0 l 174 0 m 1042 347 l 868 347 l 868 521 l 347 521 l 347 694 l 868 694 l 868 1042 l 1042 1042 l 1042 347 m 174 694 l 174 1042 l 347 1042 l 347 694 l 174 694 z "}," ":{"ha":1215,"x_min":0,"x_max":0,"o":""},"!":{"ha":1215,"x_min":521,"x_max":694,"o":"m 694 174 l 694 0 l 521 0 l 521 174 l 694 174 m 694 1215 l 694 347 l 521 347 l 521 1215 l 694 1215 z "},"\"":{"ha":1215,"x_min":347,"x_max":868,"o":"m 868 1215 l 868 694 l 694 694 l 694 1215 l 868 1215 m 521 1215 l 521 694 l 347 694 l 347 1215 l 521 1215 z "},"#":{"ha":1215,"x_min":174,"x_max":1042,"o":"m 1042 521 l 1042 347 l 868 347 l 868 0 l 694 0 l 694 347 l 521 347 l 521 0 l 347 0 l 347 347 l 174 347 l 174 521 l 347 521 l 347 694 l 174 694 l 174 868 l 347 868 l 347 1215 l 521 1215 l 521 868 l 694 868 l 694 1215 l 868 1215 l 868 868 l 1042 868 l 1042 694 l 868 694 l 868 521 l 1042 521 m 521 521 l 694 521 l 694 694 l 521 694 l 521 521 z "},"$":{"ha":1215,"x_min":174,"x_max":1042,"o":"m 868 174 l 694 174 l 694 0 l 521 0 l 521 174 l 174 174 l 174 347 l 521 347 l 521 521 l 347 521 l 347 694 l 521 694 l 521 868 l 347 868 l 347 1042 l 521 1042 l 521 1215 l 694 1215 l 694 1042 l 1042 1042 l 1042 868 l 694 868 l 694 694 l 868 694 l 868 521 l 694 521 l 694 347 l 868 347 l 868 174 m 1042 521 l 1042 347 l 868 347 l 868 521 l 1042 521 m 347 694 l 174 694 l 174 868 l 347 868 l 347 694 z "},"%":{"ha":1215,"x_min":174,"x_max":1042,"o":"m 1042 868 l 868 868 l 868 1042 l 1042 1042 l 1042 868 m 521 521 l 521 347 l 347 347 l 347 521 l 521 521 m 521 868 l 174 868 l 174 1215 l 521 1215 l 521 868 m 1042 347 l 1042 0 l 694 0 l 694 347 l 1042 347 m 174 174 l 174 347 l 347 347 l 347 174 l 174 174 m 521 694 l 694 694 l 694 521 l 521 521 l 521 694 m 694 868 l 868 868 l 868 694 l 694 694 l 694 868 z "},"&":{"ha":1215,"x_min":174,"x_max":1042,"o":"m 868 174 l 1042 174 l 1042 0 l 868 0 l 868 174 m 1042 521 l 1042 347 l 868 347 l 868 521 l 1042 521 m 521 521 l 694 521 l 694 347 l 521 347 l 521 521 m 347 0 l 347 174 l 694 174 l 694 0 l 347 0 m 174 174 l 174 521 l 347 521 l 347 174 l 174 174 m 347 1215 l 521 1215 l 521 1042 l 347 1042 l 347 1215 m 521 1042 l 694 1042 l 694 694 l 521 694 l 521 1042 m 174 1042 l 347 1042 l 347 694 l 174 694 l 174 1042 m 347 694 l 521 694 l 521 521 l 347 521 l 347 694 m 694 347 l 868 347 l 868 174 l 694 174 l 694 347 z "},"'":{"ha":1215,"x_min":521,"x_max":694,"o":"m 694 1215 l 694 694 l 521 694 l 521 1215 l 694 1215 z "},"(":{"ha":1215,"x_min":174,"x_max":694,"o":"m 694 174 l 694 0 l 521 0 l 521 174 l 694 174 m 694 1215 l 694 1042 l 521 1042 l 521 1215 l 694 1215 m 521 868 l 347 868 l 347 1042 l 521 1042 l 521 868 m 521 347 l 521 174 l 347 174 l 347 347 l 521 347 m 174 347 l 174 868 l 347 868 l 347 347 l 174 347 z "},")":{"ha":1215,"x_min":521,"x_max":1042,"o":"m 868 174 l 694 174 l 694 347 l 868 347 l 868 174 m 1042 868 l 1042 347 l 868 347 l 868 868 l 1042 868 m 694 174 l 694 0 l 521 0 l 521 174 l 694 174 m 694 1215 l 694 1042 l 521 1042 l 521 1215 l 694 1215 m 694 868 l 694 1042 l 868 1042 l 868 868 l 694 868 z "},"*":{"ha":1215,"x_min":174,"x_max":1042,"o":"m 868 174 l 868 347 l 1042 347 l 1042 174 l 868 174 m 1042 868 l 868 868 l 868 1042 l 1042 1042 l 1042 868 m 694 1215 l 694 868 l 868 868 l 868 694 l 694 694 l 694 521 l 868 521 l 868 347 l 694 347 l 694 0 l 521 0 l 521 347 l 347 347 l 347 521 l 521 521 l 521 694 l 347 694 l 347 868 l 521 868 l 521 1215 l 694 1215 m 174 174 l 174 347 l 347 347 l 347 174 l 174 174 m 174 1042 l 347 1042 l 347 868 l 174 868 l 174 1042 z "},"+":{"ha":1215,"x_min":174,"x_max":1042,"o":"m 1042 521 l 694 521 l 694 174 l 521 174 l 521 521 l 174 521 l 174 694 l 521 694 l 521 1042 l 694 1042 l 694 694 l 1042 694 l 1042 521 z "},",":{"ha":1215,"x_min":347,"x_max":694,"o":"m 694 521 l 694 174 l 521 174 l 521 521 l 694 521 m 521 174 l 521 0 l 347 0 l 347 174 l 521 174 z "},"-":{"ha":1215,"x_min":174,"x_max":1042,"o":"m 174 694 l 1042 694 l 1042 521 l 174 521 l 174 694 z "},".":{"ha":1215,"x_min":521,"x_max":694,"o":"m 694 174 l 694 0 l 521 0 l 521 174 l 694 174 z "},"/":{"ha":1215,"x_min":174,"x_max":1042,"o":"m 1042 868 l 868 868 l 868 1042 l 1042 1042 l 1042 868 m 521 521 l 521 347 l 347 347 l 347 521 l 521 521 m 174 174 l 174 347 l 347 347 l 347 174 l 174 174 m 521 694 l 694 694 l 694 521 l 521 521 l 521 694 m 694 868 l 868 868 l 868 694 l 694 694 l 694 868 z "},":":{"ha":1215,"x_min":521,"x_max":694,"o":"m 694 868 l 694 694 l 521 694 l 521 868 l 694 868 m 694 521 l 694 347 l 521 347 l 521 521 l 694 521 z "},";":{"ha":1215,"x_min":347,"x_max":694,"o":"m 694 868 l 694 694 l 521 694 l 521 868 l 694 868 m 694 174 l 521 174 l 521 521 l 694 521 l 694 174 m 521 174 l 521 0 l 347 0 l 347 174 l 521 174 z "},"<":{"ha":1215,"x_min":174,"x_max":868,"o":"m 868 174 l 868 0 l 694 0 l 694 174 l 868 174 m 868 1215 l 868 1042 l 694 1042 l 694 1215 l 868 1215 m 694 174 l 521 174 l 521 347 l 694 347 l 694 174 m 521 521 l 521 347 l 347 347 l 347 521 l 521 521 m 521 868 l 521 1042 l 694 1042 l 694 868 l 521 868 m 521 694 l 347 694 l 347 868 l 521 868 l 521 694 m 174 694 l 347 694 l 347 521 l 174 521 l 174 694 z "},"=":{"ha":1215,"x_min":174,"x_max":1042,"o":"m 1042 521 l 1042 347 l 174 347 l 174 521 l 1042 521 m 174 694 l 174 868 l 1042 868 l 1042 694 l 174 694 z "},">":{"ha":1215,"x_min":347,"x_max":1042,"o":"m 1042 521 l 868 521 l 868 694 l 1042 694 l 1042 521 m 694 174 l 521 174 l 521 347 l 694 347 l 694 174 m 347 0 l 347 174 l 521 174 l 521 0 l 347 0 m 521 868 l 521 1042 l 694 1042 l 694 868 l 521 868 m 347 1215 l 521 1215 l 521 1042 l 347 1042 l 347 1215 m 868 521 l 868 347 l 694 347 l 694 521 l 868 521 m 694 868 l 868 868 l 868 694 l 694 694 l 694 868 z "},"?":{"ha":1215,"x_min":174,"x_max":1042,"o":"m 868 1215 l 868 1042 l 347 1042 l 347 1215 l 868 1215 m 1042 868 l 868 868 l 868 1042 l 1042 1042 l 1042 868 m 694 174 l 694 0 l 521 0 l 521 174 l 694 174 m 521 347 l 521 694 l 694 694 l 694 347 l 521 347 m 694 868 l 868 868 l 868 694 l 694 694 l 694 868 m 174 1042 l 347 1042 l 347 868 l 174 868 l 174 1042 z "},"@":{"ha":1215,"x_min":174,"x_max":1042,"o":"m 1042 521 l 868 521 l 868 347 l 521 347 l 521 868 l 694 868 l 694 694 l 868 694 l 868 1042 l 1042 1042 l 1042 521 m 868 1215 l 868 1042 l 347 1042 l 347 1215 l 868 1215 m 347 0 l 347 174 l 1042 174 l 1042 0 l 347 0 m 174 174 l 174 1042 l 347 1042 l 347 174 l 174 174 z "},"A":{"ha":1215,"x_min":174,"x_max":1042,"o":"m 1042 868 l 1042 0 l 868 0 l 868 347 l 347 347 l 347 0 l 174 0 l 174 868 l 347 868 l 347 521 l 868 521 l 868 868 l 1042 868 m 694 1215 l 694 1042 l 521 1042 l 521 1215 l 694 1215 m 521 868 l 347 868 l 347 1042 l 521 1042 l 521 868 m 694 868 l 694 1042 l 868 1042 l 868 868 l 694 868 z "},"B":{"ha":1215,"x_min":174,"x_max":1042,"o":"m 868 174 l 868 521 l 1042 521 l 1042 174 l 868 174 m 868 1215 l 868 1042 l 347 1042 l 347 694 l 868 694 l 868 521 l 347 521 l 347 174 l 868 174 l 868 0 l 174 0 l 174 1215 l 868 1215 m 1042 1042 l 1042 694 l 868 694 l 868 1042 l 1042 1042 z "},"C":{"ha":1215,"x_min":174,"x_max":1042,"o":"m 868 174 l 868 0 l 347 0 l 347 174 l 868 174 m 868 1215 l 868 1042 l 347 1042 l 347 1215 l 868 1215 m 1042 868 l 868 868 l 868 1042 l 1042 1042 l 1042 868 m 1042 347 l 1042 174 l 868 174 l 868 347 l 1042 347 m 174 174 l 174 1042 l 347 1042 l 347 174 l 174 174 z "},"D":{"ha":1215,"x_min":174,"x_max":1042,"o":"m 868 174 l 868 0 l 174 0 l 174 1215 l 868 1215 l 868 1042 l 347 1042 l 347 174 l 868 174 m 1042 174 l 868 174 l 868 1042 l 1042 1042 l 1042 174 z "},"E":{"ha":1215,"x_min":174,"x_max":1042,"o":"m 868 521 l 347 521 l 347 174 l 1042 174 l 1042 0 l 174 0 l 174 1215 l 1042 1215 l 1042 1042 l 347 1042 l 347 694 l 868 694 l 868 521 z "},"F":{"ha":1215,"x_min":174,"x_max":1042,"o":"m 868 521 l 347 521 l 347 0 l 174 0 l 174 1215 l 1042 1215 l 1042 1042 l 347 1042 l 347 694 l 868 694 l 868 521 z "},"G":{"ha":1215,"x_min":174,"x_max":1042,"o":"m 868 174 l 868 347 l 694 347 l 694 521 l 1042 521 l 1042 0 l 347 0 l 347 174 l 868 174 m 1042 1042 l 347 1042 l 347 1215 l 1042 1215 l 1042 1042 m 174 174 l 174 1042 l 347 1042 l 347 174 l 174 174 z "},"H":{"ha":1215,"x_min":174,"x_max":1042,"o":"m 868 521 l 347 521 l 347 0 l 174 0 l 174 1215 l 347 1215 l 347 694 l 868 694 l 868 1215 l 1042 1215 l 1042 0 l 868 0 l 868 521 z "},"I":{"ha":1215,"x_min":347,"x_max":868,"o":"m 868 174 l 868 0 l 347 0 l 347 174 l 521 174 l 521 1042 l 347 1042 l 347 1215 l 868 1215 l 868 1042 l 694 1042 l 694 174 l 868 174 z "},"J":{"ha":1215,"x_min":174,"x_max":1042,"o":"m 868 174 l 868 1215 l 1042 1215 l 1042 174 l 868 174 m 174 347 l 347 347 l 347 174 l 174 174 l 174 347 m 347 0 l 347 174 l 868 174 l 868 0 l 347 0 z "},"K":{"ha":1215,"x_min":174,"x_max":1042,"o":"m 868 174 l 1042 174 l 1042 0 l 868 0 l 868 174 m 521 521 l 694 521 l 694 347 l 521 347 l 521 521 m 347 0 l 174 0 l 174 1215 l 347 1215 l 347 694 l 521 694 l 521 521 l 347 521 l 347 0 m 521 868 l 694 868 l 694 694 l 521 694 l 521 868 m 1042 1042 l 868 1042 l 868 1215 l 1042 1215 l 1042 1042 m 868 868 l 694 868 l 694 1042 l 868 1042 l 868 868 m 694 347 l 868 347 l 868 174 l 694 174 l 694 347 z "},"L":{"ha":1215,"x_min":174,"x_max":1042,"o":"m 1042 174 l 1042 0 l 174 0 l 174 1215 l 347 1215 l 347 174 l 1042 174 z "},"M":{"ha":1215,"x_min":174,"x_max":1042,"o":"m 868 1215 l 1042 1215 l 1042 0 l 868 0 l 868 868 l 694 868 l 694 1042 l 868 1042 l 868 1215 m 174 0 l 174 1215 l 347 1215 l 347 1042 l 521 1042 l 521 868 l 347 868 l 347 0 l 174 0 m 521 521 l 521 868 l 694 868 l 694 521 l 521 521 z "},"N":{"ha":1215,"x_min":174,"x_max":1042,"o":"m 868 1215 l 1042 1215 l 1042 0 l 868 0 l 868 347 l 694 347 l 694 521 l 868 521 l 868 1215 m 174 0 l 174 1215 l 347 1215 l 347 868 l 521 868 l 521 694 l 347 694 l 347 0 l 174 0 m 521 521 l 521 694 l 694 694 l 694 521 l 521 521 z "},"O":{"ha":1215,"x_min":174,"x_max":1042,"o":"m 868 174 l 868 0 l 347 0 l 347 174 l 868 174 m 1042 174 l 868 174 l 868 1042 l 1042 1042 l 1042 174 m 868 1215 l 868 1042 l 347 1042 l 347 1215 l 868 1215 m 174 1042 l 347 1042 l 347 174 l 174 174 l 174 1042 z "},"P":{"ha":1215,"x_min":174,"x_max":1042,"o":"m 868 521 l 347 521 l 347 0 l 174 0 l 174 1215 l 868 1215 l 868 1042 l 347 1042 l 347 694 l 868 694 l 868 521 m 1042 1042 l 1042 694 l 868 694 l 868 1042 l 1042 1042 z "},"Q":{"ha":1215,"x_min":174,"x_max":1042,"o":"m 868 174 l 1042 174 l 1042 0 l 868 0 l 868 174 m 868 1215 l 868 1042 l 347 1042 l 347 1215 l 868 1215 m 694 174 l 694 0 l 347 0 l 347 174 l 694 174 m 521 521 l 694 521 l 694 347 l 521 347 l 521 521 m 1042 347 l 868 347 l 868 1042 l 1042 1042 l 1042 347 m 174 174 l 174 1042 l 347 1042 l 347 174 l 174 174 m 868 347 l 868 174 l 694 174 l 694 347 l 868 347 z "},"R":{"ha":1215,"x_min":174,"x_max":1042,"o":"m 868 174 l 1042 174 l 1042 0 l 868 0 l 868 174 m 868 1215 l 868 1042 l 347 1042 l 347 694 l 868 694 l 868 521 l 694 521 l 694 347 l 521 347 l 521 521 l 347 521 l 347 0 l 174 0 l 174 1215 l 868 1215 m 694 174 l 694 347 l 868 347 l 868 174 l 694 174 m 1042 1042 l 1042 694 l 868 694 l 868 1042 l 1042 1042 z "},"S":{"ha":1215,"x_min":174,"x_max":1042,"o":"m 868 174 l 868 521 l 1042 521 l 1042 174 l 868 174 m 868 1215 l 868 1042 l 347 1042 l 347 1215 l 868 1215 m 1042 868 l 868 868 l 868 1042 l 1042 1042 l 1042 868 m 347 0 l 347 174 l 868 174 l 868 0 l 347 0 m 174 174 l 174 347 l 347 347 l 347 174 l 174 174 m 868 521 l 347 521 l 347 694 l 868 694 l 868 521 m 174 694 l 174 1042 l 347 1042 l 347 694 l 174 694 z "},"T":{"ha":1215,"x_min":174,"x_max":1042,"o":"m 1042 1215 l 1042 1042 l 694 1042 l 694 0 l 521 0 l 521 1042 l 174 1042 l 174 1215 l 1042 1215 z "},"U":{"ha":1215,"x_min":174,"x_max":1042,"o":"m 868 174 l 868 1215 l 1042 1215 l 1042 174 l 868 174 m 347 0 l 347 174 l 868 174 l 868 0 l 347 0 m 174 174 l 174 1215 l 347 1215 l 347 174 l 174 174 z "},"V":{"ha":1215,"x_min":174,"x_max":1042,"o":"m 868 174 l 694 174 l 694 347 l 868 347 l 868 174 m 868 1215 l 1042 1215 l 1042 347 l 868 347 l 868 1215 m 694 174 l 694 0 l 521 0 l 521 174 l 694 174 m 174 1215 l 347 1215 l 347 347 l 174 347 l 174 1215 m 521 347 l 521 174 l 347 174 l 347 347 l 521 347 z "},"W":{"ha":1215,"x_min":174,"x_max":1042,"o":"m 868 174 l 694 174 l 694 347 l 868 347 l 868 1215 l 1042 1215 l 1042 0 l 868 0 l 868 174 m 174 0 l 174 1215 l 347 1215 l 347 347 l 521 347 l 521 174 l 347 174 l 347 0 l 174 0 m 521 347 l 521 694 l 694 694 l 694 347 l 521 347 z "},"X":{"ha":1215,"x_min":174,"x_max":1042,"o":"m 1042 868 l 868 868 l 868 1215 l 1042 1215 l 1042 868 m 521 521 l 521 347 l 347 347 l 347 521 l 521 521 m 347 0 l 174 0 l 174 347 l 347 347 l 347 0 m 521 868 l 521 694 l 347 694 l 347 868 l 521 868 m 347 1215 l 347 868 l 174 868 l 174 1215 l 347 1215 m 868 521 l 868 347 l 694 347 l 694 521 l 868 521 m 868 868 l 868 694 l 694 694 l 694 868 l 868 868 m 694 694 l 694 521 l 521 521 l 521 694 l 694 694 m 1042 347 l 1042 0 l 868 0 l 868 347 l 1042 347 z "},"Y":{"ha":1215,"x_min":174,"x_max":1042,"o":"m 868 1215 l 1042 1215 l 1042 868 l 868 868 l 868 1215 m 521 868 l 521 694 l 347 694 l 347 868 l 521 868 m 694 0 l 521 0 l 521 694 l 694 694 l 694 0 m 174 1215 l 347 1215 l 347 868 l 174 868 l 174 1215 m 694 868 l 868 868 l 868 694 l 694 694 l 694 868 z "},"Z":{"ha":1215,"x_min":174,"x_max":1042,"o":"m 1042 868 l 868 868 l 868 1042 l 174 1042 l 174 1215 l 1042 1215 l 1042 868 m 174 0 l 174 347 l 347 347 l 347 174 l 1042 174 l 1042 0 l 174 0 m 521 521 l 521 347 l 347 347 l 347 521 l 521 521 m 521 694 l 694 694 l 694 521 l 521 521 l 521 694 m 694 868 l 868 868 l 868 694 l 694 694 l 694 868 z "},"[":{"ha":1215,"x_min":174,"x_max":1042,"o":"m 1042 1215 l 1042 1042 l 521 1042 l 521 174 l 1042 174 l 1042 0 l 174 0 l 174 1215 l 1042 1215 z "},"\\":{"ha":1215,"x_min":174,"x_max":1042,"o":"m 868 174 l 868 347 l 1042 347 l 1042 174 l 868 174 m 521 521 l 521 694 l 694 694 l 694 521 l 521 521 m 521 868 l 521 694 l 347 694 l 347 868 l 521 868 m 868 521 l 868 347 l 694 347 l 694 521 l 868 521 m 174 1042 l 347 1042 l 347 868 l 174 868 l 174 1042 z "},"]":{"ha":1215,"x_min":174,"x_max":1042,"o":"m 1042 1215 l 1042 0 l 174 0 l 174 174 l 694 174 l 694 1042 l 174 1042 l 174 1215 l 1042 1215 z "},"^":{"ha":1215,"x_min":174,"x_max":1042,"o":"m 1042 521 l 1042 347 l 868 347 l 868 521 l 1042 521 m 521 521 l 347 521 l 347 694 l 521 694 l 521 521 m 521 868 l 694 868 l 694 694 l 521 694 l 521 868 m 868 521 l 694 521 l 694 694 l 868 694 l 868 521 m 174 347 l 174 521 l 347 521 l 347 347 l 174 347 z "},"_":{"ha":1215,"x_min":0,"x_max":1215,"o":"m 0 0 l 1215 0 l 1215 -174 l 0 -174 l 0 0 z "},"`":{"ha":1215,"x_min":347,"x_max":868,"o":"m 694 868 l 868 868 l 868 694 l 694 694 l 694 868 m 347 1042 l 347 1215 l 521 1215 l 521 1042 l 347 1042 m 521 868 l 521 1042 l 694 1042 l 694 868 l 521 868 z "},"a":{"ha":1215,"x_min":174,"x_max":1042,"o":"m 868 174 l 868 347 l 347 347 l 347 521 l 868 521 l 868 694 l 1042 694 l 1042 0 l 347 0 l 347 174 l 868 174 m 174 174 l 174 347 l 347 347 l 347 174 l 174 174 m 868 868 l 868 694 l 347 694 l 347 868 l 868 868 z "},"b":{"ha":1215,"x_min":174,"x_max":1042,"o":"m 868 174 l 868 0 l 174 0 l 174 1215 l 347 1215 l 347 868 l 868 868 l 868 694 l 347 694 l 347 174 l 868 174 m 1042 174 l 868 174 l 868 694 l 1042 694 l 1042 174 z "},"c":{"ha":1215,"x_min":174,"x_max":1042,"o":"m 1042 174 l 1042 0 l 347 0 l 347 174 l 1042 174 m 174 694 l 347 694 l 347 174 l 174 174 l 174 694 m 1042 868 l 1042 694 l 347 694 l 347 868 l 1042 868 z "},"d":{"ha":1215,"x_min":174,"x_max":1042,"o":"m 868 174 l 868 694 l 347 694 l 347 868 l 868 868 l 868 1215 l 1042 1215 l 1042 0 l 347 0 l 347 174 l 868 174 m 174 694 l 347 694 l 347 174 l 174 174 l 174 694 z "},"e":{"ha":1215,"x_min":174,"x_max":1042,"o":"m 347 0 l 347 174 l 1042 174 l 1042 0 l 347 0 m 1042 347 l 347 347 l 347 174 l 174 174 l 174 694 l 347 694 l 347 521 l 868 521 l 868 694 l 1042 694 l 1042 347 m 868 868 l 868 694 l 347 694 l 347 868 l 868 868 z "},"f":{"ha":1215,"x_min":174,"x_max":1042,"o":"m 868 1215 l 868 1042 l 521 1042 l 521 1215 l 868 1215 m 1042 868 l 868 868 l 868 1042 l 1042 1042 l 1042 868 m 521 521 l 521 0 l 347 0 l 347 521 l 174 521 l 174 694 l 347 694 l 347 1042 l 521 1042 l 521 694 l 868 694 l 868 521 l 521 521 z "},"g":{"ha":1215,"x_min":174,"x_max":1042,"o":"m 868 174 l 347 174 l 347 347 l 868 347 l 868 694 l 1042 694 l 1042 0 l 868 0 l 868 174 m 347 0 l 868 0 l 868 -174 l 347 -174 l 347 0 m 174 694 l 347 694 l 347 347 l 174 347 l 174 694 m 868 868 l 868 694 l 347 694 l 347 868 l 868 868 z "},"h":{"ha":1215,"x_min":174,"x_max":1042,"o":"m 174 0 l 174 1215 l 347 1215 l 347 868 l 868 868 l 868 694 l 347 694 l 347 0 l 174 0 m 868 0 l 868 694 l 1042 694 l 1042 0 l 868 0 z "},"i":{"ha":1215,"x_min":347,"x_max":868,"o":"m 868 174 l 868 0 l 347 0 l 347 174 l 521 174 l 521 694 l 347 694 l 347 868 l 694 868 l 694 174 l 868 174 m 694 1215 l 694 1042 l 521 1042 l 521 1215 l 694 1215 z "},"j":{"ha":1215,"x_min":174,"x_max":868,"o":"m 868 1215 l 868 1042 l 694 1042 l 694 1215 l 868 1215 m 174 0 l 174 174 l 347 174 l 347 0 l 174 0 m 347 0 l 694 0 l 694 -174 l 347 -174 l 347 0 m 521 868 l 868 868 l 868 0 l 694 0 l 694 694 l 521 694 l 521 868 z "},"k":{"ha":1215,"x_min":174,"x_max":1042,"o":"m 868 174 l 1042 174 l 1042 0 l 868 0 l 868 174 m 1042 868 l 1042 694 l 868 694 l 868 868 l 1042 868 m 174 0 l 174 1215 l 347 1215 l 347 521 l 694 521 l 694 347 l 347 347 l 347 0 l 174 0 m 694 174 l 694 347 l 868 347 l 868 174 l 694 174 m 868 521 l 694 521 l 694 694 l 868 694 l 868 521 z "},"l":{"ha":1215,"x_min":347,"x_max":868,"o":"m 868 174 l 868 0 l 347 0 l 347 174 l 521 174 l 521 1042 l 347 1042 l 347 1215 l 694 1215 l 694 174 l 868 174 z "},"m":{"ha":1215,"x_min":174,"x_max":1042,"o":"m 1042 868 l 1042 0 l 868 0 l 868 694 l 694 694 l 694 868 l 1042 868 m 174 0 l 174 868 l 521 868 l 521 694 l 347 694 l 347 0 l 174 0 m 694 174 l 521 174 l 521 694 l 694 694 l 694 174 z "},"n":{"ha":1215,"x_min":174,"x_max":1042,"o":"m 174 0 l 174 868 l 868 868 l 868 694 l 347 694 l 347 0 l 174 0 m 868 0 l 868 694 l 1042 694 l 1042 0 l 868 0 z "},"o":{"ha":1215,"x_min":174,"x_max":1042,"o":"m 868 174 l 868 0 l 347 0 l 347 174 l 868 174 m 1042 174 l 868 174 l 868 694 l 1042 694 l 1042 174 m 174 694 l 347 694 l 347 174 l 174 174 l 174 694 m 868 868 l 868 694 l 347 694 l 347 868 l 868 868 z "},"p":{"ha":1215,"x_min":174,"x_max":1042,"o":"m 868 174 l 347 174 l 347 -174 l 174 -174 l 174 868 l 868 868 l 868 694 l 347 694 l 347 347 l 868 347 l 868 174 m 1042 347 l 868 347 l 868 694 l 1042 694 l 1042 347 z "},"q":{"ha":1215,"x_min":174,"x_max":1042,"o":"m 868 174 l 347 174 l 347 347 l 868 347 l 868 694 l 347 694 l 347 868 l 1042 868 l 1042 -174 l 868 -174 l 868 174 m 174 694 l 347 694 l 347 347 l 174 347 l 174 694 z "},"r":{"ha":1215,"x_min":174,"x_max":1042,"o":"m 174 0 l 174 868 l 347 868 l 347 694 l 521 694 l 521 521 l 347 521 l 347 0 l 174 0 m 1042 868 l 1042 694 l 521 694 l 521 868 l 1042 868 z "},"s":{"ha":1215,"x_min":174,"x_max":1042,"o":"m 868 174 l 868 0 l 174 0 l 174 174 l 868 174 m 1042 868 l 1042 694 l 347 694 l 347 868 l 1042 868 m 1042 347 l 1042 174 l 868 174 l 868 347 l 1042 347 m 868 521 l 868 347 l 347 347 l 347 521 l 868 521 m 174 694 l 347 694 l 347 521 l 174 521 l 174 694 z "},"t":{"ha":1215,"x_min":174,"x_max":1042,"o":"m 868 174 l 868 0 l 521 0 l 521 174 l 868 174 m 521 868 l 868 868 l 868 694 l 521 694 l 521 174 l 347 174 l 347 694 l 174 694 l 174 868 l 347 868 l 347 1215 l 521 1215 l 521 868 m 1042 347 l 1042 174 l 868 174 l 868 347 l 1042 347 z "},"u":{"ha":1215,"x_min":174,"x_max":1042,"o":"m 868 174 l 694 174 l 694 347 l 868 347 l 868 868 l 1042 868 l 1042 0 l 868 0 l 868 174 m 694 174 l 694 0 l 347 0 l 347 174 l 694 174 m 174 174 l 174 868 l 347 868 l 347 174 l 174 174 z "},"v":{"ha":1215,"x_min":174,"x_max":1042,"o":"m 868 174 l 694 174 l 694 347 l 868 347 l 868 174 m 1042 868 l 1042 347 l 868 347 l 868 868 l 1042 868 m 694 174 l 694 0 l 521 0 l 521 174 l 694 174 m 521 347 l 521 174 l 347 174 l 347 347 l 521 347 m 174 347 l 174 868 l 347 868 l 347 347 l 174 347 z "},"w":{"ha":1215,"x_min":174,"x_max":1042,"o":"m 868 174 l 868 868 l 1042 868 l 1042 0 l 694 0 l 694 174 l 868 174 m 174 0 l 174 868 l 347 868 l 347 174 l 521 174 l 521 0 l 174 0 m 694 174 l 521 174 l 521 521 l 694 521 l 694 174 z "},"x":{"ha":1215,"x_min":174,"x_max":1042,"o":"m 868 174 l 1042 174 l 1042 0 l 868 0 l 868 174 m 1042 868 l 1042 694 l 868 694 l 868 868 l 1042 868 m 521 521 l 694 521 l 694 347 l 521 347 l 521 521 m 347 0 l 174 0 l 174 174 l 347 174 l 347 0 m 868 521 l 694 521 l 694 694 l 868 694 l 868 521 m 347 347 l 521 347 l 521 174 l 347 174 l 347 347 m 347 694 l 174 694 l 174 868 l 347 868 l 347 694 m 694 347 l 868 347 l 868 174 l 694 174 l 694 347 m 521 694 l 521 521 l 347 521 l 347 694 l 521 694 z "},"y":{"ha":1215,"x_min":174,"x_max":1042,"o":"m 868 174 l 347 174 l 347 347 l 868 347 l 868 868 l 1042 868 l 1042 0 l 868 0 l 868 174 m 347 0 l 868 0 l 868 -174 l 347 -174 l 347 0 m 174 347 l 174 868 l 347 868 l 347 347 l 174 347 z "},"z":{"ha":1215,"x_min":174,"x_max":1042,"o":"m 1042 868 l 1042 694 l 868 694 l 868 521 l 694 521 l 694 694 l 174 694 l 174 868 l 1042 868 m 174 0 l 174 174 l 347 174 l 347 347 l 521 347 l 521 174 l 1042 174 l 1042 0 l 174 0 m 521 521 l 694 521 l 694 347 l 521 347 l 521 521 z "},"{":{"ha":1215,"x_min":174,"x_max":1042,"o":"m 694 174 l 1042 174 l 1042 0 l 521 0 l 521 174 l 347 174 l 347 521 l 174 521 l 174 694 l 347 694 l 347 1042 l 521 1042 l 521 1215 l 1042 1215 l 1042 1042 l 694 1042 l 694 694 l 521 694 l 521 521 l 694 521 l 694 174 z "},"|":{"ha":1215,"x_min":521,"x_max":694,"o":"m 694 1215 l 694 -174 l 521 -174 l 521 1215 l 694 1215 z "},"}":{"ha":1215,"x_min":174,"x_max":1042,"o":"m 868 174 l 694 174 l 694 0 l 174 0 l 174 174 l 521 174 l 521 521 l 694 521 l 694 694 l 521 694 l 521 1042 l 174 1042 l 174 1215 l 694 1215 l 694 1042 l 868 1042 l 868 694 l 1042 694 l 1042 521 l 868 521 l 868 174 z "},"~":{"ha":1215,"x_min":174,"x_max":1042,"o":"m 868 1215 l 1042 1215 l 1042 1042 l 868 1042 l 868 1215 m 694 1215 l 694 1042 l 868 1042 l 868 868 l 521 868 l 521 1042 l 347 1042 l 347 1215 l 694 1215 m 174 1042 l 347 1042 l 347 868 l 174 868 l 174 1042 z "},"":{"ha":1215,"x_min":174,"x_max":1042,"o":"m 868 174 l 868 347 l 1042 347 l 1042 174 l 868 174 m 1042 521 l 868 521 l 868 694 l 1042 694 l 1042 521 m 1042 868 l 868 868 l 868 1042 l 1042 1042 l 1042 868 m 521 521 l 521 347 l 347 347 l 347 521 l 521 521 m 521 868 l 521 1042 l 694 1042 l 694 868 l 521 868 m 174 174 l 174 347 l 347 347 l 347 174 l 174 174 m 868 521 l 868 347 l 694 347 l 694 521 l 868 521 m 868 868 l 868 694 l 694 694 l 694 868 l 868 868 m 174 1042 l 347 1042 l 347 868 l 174 868 l 174 1042 m 521 174 l 521 347 l 694 347 l 694 174 l 521 174 m 347 694 l 347 521 l 174 521 l 174 694 l 347 694 m 694 694 l 694 521 l 521 521 l 521 694 l 694 694 m 521 694 l 347 694 l 347 868 l 521 868 l 521 694 z "}," ":{"ha":1215,"x_min":0,"x_max":0,"o":""},"¡":{"ha":1215,"x_min":521,"x_max":694,"o":"m 694 868 l 694 0 l 521 0 l 521 868 l 694 868 m 694 1215 l 694 1042 l 521 1042 l 521 1215 l 694 1215 z "},"¢":{"ha":1215,"x_min":174,"x_max":1042,"o":"m 1042 868 l 694 868 l 694 347 l 1042 347 l 1042 174 l 694 174 l 694 0 l 521 0 l 521 174 l 347 174 l 347 347 l 521 347 l 521 868 l 347 868 l 347 1042 l 521 1042 l 521 1215 l 694 1215 l 694 1042 l 1042 1042 l 1042 868 m 174 347 l 174 868 l 347 868 l 347 347 l 174 347 z "},"£":{"ha":1215,"x_min":174,"x_max":1215,"o":"m 1042 868 l 1042 1042 l 1215 1042 l 1215 868 l 1042 868 m 174 0 l 174 174 l 347 174 l 347 0 l 174 0 m 521 521 l 521 174 l 347 174 l 347 521 l 174 521 l 174 694 l 347 694 l 347 1042 l 521 1042 l 521 694 l 694 694 l 694 521 l 521 521 m 1042 1042 l 521 1042 l 521 1215 l 1042 1215 l 1042 1042 m 1215 0 l 521 0 l 521 174 l 1215 174 l 1215 0 z "},"¤":{"ha":1215,"x_min":174,"x_max":1042,"o":"m 868 174 l 868 347 l 1042 347 l 1042 174 l 868 174 m 1042 868 l 868 868 l 868 1042 l 1042 1042 l 1042 868 m 521 521 l 694 521 l 694 694 l 521 694 l 521 521 m 174 174 l 174 347 l 347 347 l 347 174 l 174 174 m 868 868 l 868 347 l 347 347 l 347 868 l 868 868 m 174 1042 l 347 1042 l 347 868 l 174 868 l 174 1042 z "},"¥":{"ha":1215,"x_min":174,"x_max":1042,"o":"m 1042 521 l 1042 347 l 694 347 l 694 0 l 521 0 l 521 347 l 174 347 l 174 521 l 521 521 l 521 694 l 694 694 l 694 521 l 1042 521 m 868 1215 l 1042 1215 l 1042 868 l 868 868 l 868 1215 m 521 868 l 521 694 l 347 694 l 347 868 l 521 868 m 174 1215 l 347 1215 l 347 868 l 174 868 l 174 1215 m 694 868 l 868 868 l 868 694 l 694 694 l 694 868 z "},"¦":{"ha":1215,"x_min":521,"x_max":694,"o":"m 694 1215 l 694 694 l 521 694 l 521 1215 l 694 1215 m 694 -174 l 521 -174 l 521 347 l 694 347 l 694 -174 z "},"§":{"ha":1215,"x_min":174,"x_max":1042,"o":"m 868 174 l 868 0 l 174 0 l 174 174 l 868 174 m 1042 521 l 868 521 l 868 694 l 1042 694 l 1042 521 m 1042 347 l 1042 174 l 868 174 l 868 347 l 1042 347 m 1042 1042 l 347 1042 l 347 1215 l 1042 1215 l 1042 1042 m 868 521 l 868 347 l 347 347 l 347 521 l 868 521 m 174 694 l 347 694 l 347 521 l 174 521 l 174 694 m 868 868 l 868 694 l 347 694 l 347 868 l 868 868 m 174 1042 l 347 1042 l 347 868 l 174 868 l 174 1042 z "},"¨":{"ha":1215,"x_min":174,"x_max":1042,"o":"m 1042 1215 l 1042 1042 l 868 1042 l 868 1215 l 1042 1215 m 174 1042 l 174 1215 l 347 1215 l 347 1042 l 174 1042 z "},"©":{"ha":1215,"x_min":0,"x_max":1215,"o":"m 868 174 l 868 0 l 347 0 l 347 174 l 868 174 m 1042 868 l 868 868 l 868 1042 l 1042 1042 l 1042 868 m 1215 347 l 1042 347 l 1042 868 l 1215 868 l 1215 347 m 521 521 l 868 521 l 868 347 l 521 347 l 521 521 m 521 868 l 868 868 l 868 694 l 521 694 l 521 868 m 174 174 l 174 347 l 347 347 l 347 174 l 174 174 m 347 1215 l 868 1215 l 868 1042 l 347 1042 l 347 1215 m 1042 174 l 868 174 l 868 347 l 1042 347 l 1042 174 m 0 347 l 0 868 l 174 868 l 174 347 l 0 347 m 174 1042 l 347 1042 l 347 868 l 174 868 l 174 1042 m 347 694 l 521 694 l 521 521 l 347 521 l 347 694 z "},"ª":{"ha":1215,"x_min":347,"x_max":868,"o":"m 868 174 l 347 174 l 347 347 l 868 347 l 868 174 m 694 1215 l 694 1042 l 868 1042 l 868 521 l 521 521 l 521 694 l 694 694 l 694 868 l 521 868 l 521 1042 l 347 1042 l 347 1215 l 694 1215 m 521 868 l 521 694 l 347 694 l 347 868 l 521 868 z "},"«":{"ha":1215,"x_min":0,"x_max":1215,"o":"m 868 174 l 868 347 l 1042 347 l 1042 174 l 868 174 m 1042 868 l 868 868 l 868 1042 l 1042 1042 l 1042 868 m 694 1215 l 694 1042 l 521 1042 l 521 1215 l 694 1215 m 521 521 l 521 694 l 694 694 l 694 521 l 521 521 m 521 868 l 347 868 l 347 1042 l 521 1042 l 521 868 m 1042 1042 l 1042 1215 l 1215 1215 l 1215 1042 l 1042 1042 m 694 0 l 521 0 l 521 174 l 694 174 l 694 0 m 868 521 l 868 347 l 694 347 l 694 521 l 868 521 m 1042 174 l 1215 174 l 1215 0 l 1042 0 l 1042 174 m 868 868 l 868 694 l 694 694 l 694 868 l 868 868 m 0 694 l 174 694 l 174 521 l 0 521 l 0 694 m 521 174 l 347 174 l 347 347 l 521 347 l 521 174 m 347 347 l 174 347 l 174 521 l 347 521 l 347 347 m 347 694 l 174 694 l 174 868 l 347 868 l 347 694 z "},"¬":{"ha":1215,"x_min":174,"x_max":1042,"o":"m 174 694 l 174 868 l 1042 868 l 1042 347 l 868 347 l 868 694 l 174 694 z "},"­":{"ha":1215,"x_min":174,"x_max":1042,"o":"m 174 694 l 1042 694 l 1042 521 l 174 521 l 174 694 z "},"®":{"ha":1215,"x_min":0,"x_max":1215,"o":"m 868 174 l 868 0 l 347 0 l 347 174 l 868 174 m 1042 868 l 868 868 l 868 1042 l 1042 1042 l 1042 868 m 1215 347 l 1042 347 l 1042 868 l 1215 868 l 1215 347 m 521 521 l 521 347 l 347 347 l 347 868 l 868 868 l 868 694 l 694 694 l 694 521 l 521 521 m 174 174 l 174 347 l 347 347 l 347 174 l 174 174 m 347 1215 l 868 1215 l 868 1042 l 347 1042 l 347 1215 m 868 521 l 868 347 l 694 347 l 694 521 l 868 521 m 1042 174 l 868 174 l 868 347 l 1042 347 l 1042 174 m 0 347 l 0 868 l 174 868 l 174 347 l 0 347 m 174 1042 l 347 1042 l 347 868 l 174 868 l 174 1042 z "},"¯":{"ha":1215,"x_min":174,"x_max":1042,"o":"m 1042 1215 l 1042 1042 l 174 1042 l 174 1215 l 1042 1215 z "},"°":{"ha":1215,"x_min":347,"x_max":868,"o":"m 694 868 l 694 694 l 521 694 l 521 868 l 694 868 m 868 868 l 694 868 l 694 1042 l 868 1042 l 868 868 m 694 1215 l 694 1042 l 521 1042 l 521 1215 l 694 1215 m 347 1042 l 521 1042 l 521 868 l 347 868 l 347 1042 z "},"±":{"ha":1215,"x_min":174,"x_max":1042,"o":"m 1042 868 l 1042 694 l 694 694 l 694 347 l 521 347 l 521 694 l 174 694 l 174 868 l 521 868 l 521 1215 l 694 1215 l 694 868 l 1042 868 m 174 0 l 174 174 l 1042 174 l 1042 0 l 174 0 z "},"²":{"ha":1215,"x_min":347,"x_max":868,"o":"m 694 1215 l 694 1042 l 347 1042 l 347 1215 l 694 1215 m 521 868 l 694 868 l 694 694 l 868 694 l 868 521 l 347 521 l 347 694 l 521 694 l 521 868 m 694 868 l 694 1042 l 868 1042 l 868 868 l 694 868 z "},"³":{"ha":1215,"x_min":347,"x_max":868,"o":"m 868 1215 l 868 1042 l 694 1042 l 694 868 l 521 868 l 521 1042 l 347 1042 l 347 1215 l 868 1215 m 694 868 l 868 868 l 868 694 l 694 694 l 694 868 m 694 521 l 347 521 l 347 694 l 694 694 l 694 521 z "},"´":{"ha":1215,"x_min":347,"x_max":868,"o":"m 694 868 l 521 868 l 521 1042 l 694 1042 l 694 868 m 868 1215 l 868 1042 l 694 1042 l 694 1215 l 868 1215 m 347 694 l 347 868 l 521 868 l 521 694 l 347 694 z "},"µ":{"ha":1215,"x_min":174,"x_max":1042,"o":"m 868 174 l 694 174 l 694 347 l 868 347 l 868 868 l 1042 868 l 1042 0 l 868 0 l 868 174 m 174 -174 l 174 868 l 347 868 l 347 347 l 521 347 l 521 174 l 347 174 l 347 -174 l 174 -174 m 694 174 l 694 0 l 521 0 l 521 174 l 694 174 z "},"¶":{"ha":1215,"x_min":174,"x_max":1042,"o":"m 521 521 l 347 521 l 347 694 l 521 694 l 521 1042 l 347 1042 l 347 1215 l 1042 1215 l 1042 0 l 868 0 l 868 521 l 694 521 l 694 0 l 521 0 l 521 521 m 174 694 l 174 1042 l 347 1042 l 347 694 l 174 694 m 694 694 l 868 694 l 868 1042 l 694 1042 l 694 694 z "},"·":{"ha":1215,"x_min":521,"x_max":694,"o":"m 694 521 l 521 521 l 521 694 l 694 694 l 694 521 z "},"¸":{"ha":1215,"x_min":521,"x_max":868,"o":"m 868 174 l 868 0 l 694 0 l 694 174 l 868 174 m 694 -174 l 521 -174 l 521 0 l 694 0 l 694 -174 z "},"¹":{"ha":1215,"x_min":347,"x_max":868,"o":"m 868 521 l 347 521 l 347 694 l 521 694 l 521 868 l 347 868 l 347 1042 l 521 1042 l 521 1215 l 694 1215 l 694 694 l 868 694 l 868 521 z "},"º":{"ha":1215,"x_min":347,"x_max":868,"o":"m 868 174 l 347 174 l 347 347 l 868 347 l 868 174 m 694 1215 l 694 1042 l 521 1042 l 521 1215 l 694 1215 m 521 521 l 521 694 l 694 694 l 694 521 l 521 521 m 521 1042 l 521 694 l 347 694 l 347 1042 l 521 1042 m 694 694 l 694 1042 l 868 1042 l 868 694 l 694 694 z "},"»":{"ha":1215,"x_min":0,"x_max":1215,"o":"m 0 0 l 0 174 l 174 174 l 174 0 l 0 0 m 868 174 l 694 174 l 694 347 l 868 347 l 868 174 m 1042 521 l 1042 347 l 868 347 l 868 521 l 1042 521 m 1215 694 l 1215 521 l 1042 521 l 1042 694 l 1215 694 m 1042 868 l 1042 694 l 868 694 l 868 868 l 1042 868 m 694 1215 l 694 1042 l 521 1042 l 521 1215 l 694 1215 m 521 521 l 521 347 l 347 347 l 347 521 l 521 521 m 521 868 l 521 694 l 347 694 l 347 868 l 521 868 m 0 1215 l 174 1215 l 174 1042 l 0 1042 l 0 1215 m 694 0 l 521 0 l 521 174 l 694 174 l 694 0 m 174 174 l 174 347 l 347 347 l 347 174 l 174 174 m 174 1042 l 347 1042 l 347 868 l 174 868 l 174 1042 m 868 868 l 694 868 l 694 1042 l 868 1042 l 868 868 m 694 694 l 694 521 l 521 521 l 521 694 l 694 694 z "},"¼":{"ha":1215,"x_min":174,"x_max":1042,"o":"m 868 174 l 694 174 l 694 521 l 868 521 l 868 347 l 1042 347 l 1042 0 l 868 0 l 868 174 m 1042 868 l 868 868 l 868 1042 l 1042 1042 l 1042 868 m 521 521 l 521 347 l 347 347 l 347 521 l 521 521 m 174 174 l 174 347 l 347 347 l 347 174 l 174 174 m 347 1215 l 347 694 l 174 694 l 174 1215 l 347 1215 m 868 868 l 868 694 l 694 694 l 694 868 l 868 868 m 694 694 l 694 521 l 521 521 l 521 694 l 694 694 z "},"½":{"ha":1215,"x_min":174,"x_max":1042,"o":"m 868 174 l 1042 174 l 1042 0 l 694 0 l 694 521 l 1042 521 l 1042 347 l 868 347 l 868 174 m 1042 868 l 868 868 l 868 1042 l 1042 1042 l 1042 868 m 521 521 l 521 347 l 347 347 l 347 521 l 521 521 m 174 174 l 174 347 l 347 347 l 347 174 l 174 174 m 347 1215 l 347 694 l 174 694 l 174 1215 l 347 1215 m 868 868 l 868 694 l 694 694 l 694 868 l 868 868 m 694 694 l 694 521 l 521 521 l 521 694 l 694 694 z "},"¾":{"ha":1215,"x_min":174,"x_max":1042,"o":"m 868 174 l 694 174 l 694 521 l 868 521 l 868 347 l 1042 347 l 1042 0 l 868 0 l 868 174 m 1042 868 l 868 868 l 868 1042 l 1042 1042 l 1042 868 m 521 521 l 521 347 l 347 347 l 347 521 l 521 521 m 174 174 l 174 347 l 347 347 l 347 174 l 174 174 m 868 868 l 868 694 l 694 694 l 694 868 l 868 868 m 174 1042 l 174 1215 l 521 1215 l 521 694 l 174 694 l 174 868 l 347 868 l 347 1042 l 174 1042 m 694 694 l 694 521 l 521 521 l 521 694 l 694 694 z "},"¿":{"ha":1215,"x_min":174,"x_max":1042,"o":"m 868 174 l 868 0 l 347 0 l 347 174 l 868 174 m 694 1215 l 694 1042 l 521 1042 l 521 1215 l 694 1215 m 521 521 l 521 868 l 694 868 l 694 521 l 521 521 m 1042 347 l 1042 174 l 868 174 l 868 347 l 1042 347 m 174 174 l 174 347 l 347 347 l 347 174 l 174 174 m 521 347 l 347 347 l 347 521 l 521 521 l 521 347 z "},"À":{"ha":1215,"x_min":174,"x_max":1042,"o":"m 868 174 l 347 174 l 347 0 l 174 0 l 174 521 l 347 521 l 347 347 l 868 347 l 868 521 l 1042 521 l 1042 0 l 868 0 l 868 174 m 694 1215 l 694 1042 l 521 1042 l 521 1215 l 694 1215 m 521 521 l 347 521 l 347 694 l 521 694 l 521 521 m 521 868 l 694 868 l 694 694 l 521 694 l 521 868 m 868 521 l 694 521 l 694 694 l 868 694 l 868 521 m 868 868 l 694 868 l 694 1042 l 868 1042 l 868 868 z "},"Á":{"ha":1215,"x_min":174,"x_max":1042,"o":"m 868 174 l 347 174 l 347 0 l 174 0 l 174 521 l 347 521 l 347 347 l 868 347 l 868 521 l 1042 521 l 1042 0 l 868 0 l 868 174 m 694 1215 l 694 1042 l 521 1042 l 521 1215 l 694 1215 m 521 521 l 347 521 l 347 694 l 521 694 l 521 521 m 521 868 l 694 868 l 694 694 l 521 694 l 521 868 m 521 1042 l 521 868 l 347 868 l 347 1042 l 521 1042 m 868 521 l 694 521 l 694 694 l 868 694 l 868 521 z "},"Â":{"ha":1215,"x_min":174,"x_max":1042,"o":"m 868 174 l 347 174 l 347 0 l 174 0 l 174 521 l 347 521 l 347 347 l 868 347 l 868 521 l 1042 521 l 1042 0 l 868 0 l 868 174 m 694 1215 l 694 1042 l 521 1042 l 521 1215 l 694 1215 m 521 521 l 347 521 l 347 694 l 521 694 l 521 521 m 521 868 l 694 868 l 694 694 l 521 694 l 521 868 m 521 1042 l 521 868 l 347 868 l 347 1042 l 521 1042 m 868 521 l 694 521 l 694 694 l 868 694 l 868 521 m 868 868 l 694 868 l 694 1042 l 868 1042 l 868 868 z "},"Ã":{"ha":1215,"x_min":174,"x_max":1042,"o":"m 868 174 l 347 174 l 347 0 l 174 0 l 174 521 l 347 521 l 347 347 l 868 347 l 868 521 l 1042 521 l 1042 0 l 868 0 l 868 174 m 694 1215 l 694 1042 l 868 1042 l 868 868 l 694 868 l 694 694 l 521 694 l 521 1042 l 347 1042 l 347 1215 l 694 1215 m 521 521 l 347 521 l 347 694 l 521 694 l 521 521 m 1042 1042 l 868 1042 l 868 1215 l 1042 1215 l 1042 1042 m 868 521 l 694 521 l 694 694 l 868 694 l 868 521 m 174 1042 l 347 1042 l 347 868 l 174 868 l 174 1042 z "},"Ä":{"ha":1215,"x_min":174,"x_max":1042,"o":"m 868 174 l 347 174 l 347 0 l 174 0 l 174 521 l 347 521 l 347 347 l 868 347 l 868 521 l 1042 521 l 1042 0 l 868 0 l 868 174 m 521 521 l 347 521 l 347 694 l 521 694 l 521 521 m 521 868 l 694 868 l 694 694 l 521 694 l 521 868 m 1042 1042 l 868 1042 l 868 1215 l 1042 1215 l 1042 1042 m 347 1215 l 347 1042 l 174 1042 l 174 1215 l 347 1215 m 868 521 l 694 521 l 694 694 l 868 694 l 868 521 z "},"Å":{"ha":1215,"x_min":174,"x_max":1042,"o":"m 868 1215 l 868 1042 l 347 1042 l 347 1215 l 868 1215 m 1042 868 l 868 868 l 868 1042 l 1042 1042 l 1042 868 m 174 0 l 174 694 l 347 694 l 347 521 l 868 521 l 868 694 l 1042 694 l 1042 0 l 868 0 l 868 347 l 347 347 l 347 0 l 174 0 m 868 868 l 868 694 l 347 694 l 347 868 l 868 868 m 174 1042 l 347 1042 l 347 868 l 174 868 l 174 1042 z "},"Æ":{"ha":1215,"x_min":174,"x_max":1042,"o":"m 1042 521 l 694 521 l 694 174 l 1042 174 l 1042 0 l 521 0 l 521 521 l 347 521 l 347 0 l 174 0 l 174 1042 l 347 1042 l 347 694 l 521 694 l 521 1042 l 347 1042 l 347 1215 l 1042 1215 l 1042 1042 l 694 1042 l 694 694 l 1042 694 l 1042 521 z "},"Ç":{"ha":1215,"x_min":174,"x_max":1042,"o":"m 1042 521 l 1042 347 l 868 347 l 868 521 l 1042 521 m 868 1215 l 868 1042 l 347 1042 l 347 1215 l 868 1215 m 1042 868 l 868 868 l 868 1042 l 1042 1042 l 1042 868 m 694 174 l 347 174 l 347 347 l 868 347 l 868 0 l 694 0 l 694 174 m 694 -174 l 521 -174 l 521 0 l 694 0 l 694 -174 m 174 1042 l 347 1042 l 347 347 l 174 347 l 174 1042 z "},"È":{"ha":1215,"x_min":174,"x_max":1042,"o":"m 868 1215 l 868 1042 l 694 1042 l 694 1215 l 868 1215 m 174 0 l 174 868 l 868 868 l 868 1042 l 1042 1042 l 1042 694 l 347 694 l 347 521 l 868 521 l 868 347 l 347 347 l 347 174 l 1042 174 l 1042 0 l 174 0 z "},"É":{"ha":1215,"x_min":174,"x_max":1042,"o":"m 868 1215 l 1042 1215 l 1042 1042 l 868 1042 l 868 1215 m 1042 868 l 1042 694 l 347 694 l 347 521 l 868 521 l 868 347 l 347 347 l 347 174 l 1042 174 l 1042 0 l 174 0 l 174 868 l 694 868 l 694 1042 l 868 1042 l 868 868 l 1042 868 z "},"Ê":{"ha":1215,"x_min":174,"x_max":1042,"o":"m 868 1215 l 868 1042 l 694 1042 l 694 1215 l 868 1215 m 174 0 l 174 868 l 521 868 l 521 1042 l 694 1042 l 694 868 l 868 868 l 868 1042 l 1042 1042 l 1042 694 l 347 694 l 347 521 l 868 521 l 868 347 l 347 347 l 347 174 l 1042 174 l 1042 0 l 174 0 z "},"Ë":{"ha":1215,"x_min":174,"x_max":1042,"o":"m 868 1215 l 1042 1215 l 1042 1042 l 868 1042 l 868 1215 m 1042 868 l 1042 694 l 347 694 l 347 521 l 868 521 l 868 347 l 347 347 l 347 174 l 1042 174 l 1042 0 l 174 0 l 174 868 l 1042 868 m 174 1215 l 347 1215 l 347 1042 l 174 1042 l 174 1215 z "},"Ì":{"ha":1215,"x_min":347,"x_max":868,"o":"m 868 174 l 868 0 l 347 0 l 347 174 l 521 174 l 521 694 l 347 694 l 347 868 l 521 868 l 521 1042 l 694 1042 l 694 868 l 868 868 l 868 694 l 694 694 l 694 174 l 868 174 m 347 1215 l 521 1215 l 521 1042 l 347 1042 l 347 1215 z "},"Í":{"ha":1215,"x_min":347,"x_max":868,"o":"m 868 174 l 868 0 l 347 0 l 347 174 l 521 174 l 521 694 l 347 694 l 347 868 l 521 868 l 521 1042 l 694 1042 l 694 868 l 868 868 l 868 694 l 694 694 l 694 174 l 868 174 m 868 1215 l 868 1042 l 694 1042 l 694 1215 l 868 1215 z "},"Î":{"ha":1215,"x_min":347,"x_max":868,"o":"m 868 174 l 868 0 l 347 0 l 347 174 l 521 174 l 521 694 l 347 694 l 347 1042 l 521 1042 l 521 868 l 694 868 l 694 1042 l 868 1042 l 868 694 l 694 694 l 694 174 l 868 174 m 694 1215 l 694 1042 l 521 1042 l 521 1215 l 694 1215 z "},"Ï":{"ha":1215,"x_min":174,"x_max":1042,"o":"m 868 174 l 868 0 l 347 0 l 347 174 l 521 174 l 521 694 l 347 694 l 347 868 l 868 868 l 868 694 l 694 694 l 694 174 l 868 174 m 868 1215 l 1042 1215 l 1042 1042 l 868 1042 l 868 1215 m 174 1215 l 347 1215 l 347 1042 l 174 1042 l 174 1215 z "},"Ð":{"ha":1215,"x_min":174,"x_max":1042,"o":"m 868 174 l 868 0 l 347 0 l 347 521 l 174 521 l 174 694 l 347 694 l 347 1215 l 868 1215 l 868 1042 l 521 1042 l 521 694 l 694 694 l 694 521 l 521 521 l 521 174 l 868 174 m 1042 1042 l 1042 174 l 868 174 l 868 1042 l 1042 1042 z "},"Ñ":{"ha":1215,"x_min":174,"x_max":1042,"o":"m 868 174 l 694 174 l 694 347 l 868 347 l 868 694 l 1042 694 l 1042 0 l 868 0 l 868 174 m 694 1215 l 694 1042 l 868 1042 l 868 868 l 521 868 l 521 1042 l 347 1042 l 347 1215 l 694 1215 m 521 521 l 694 521 l 694 347 l 521 347 l 521 521 m 347 0 l 174 0 l 174 694 l 521 694 l 521 521 l 347 521 l 347 0 m 1042 1042 l 868 1042 l 868 1215 l 1042 1215 l 1042 1042 m 174 1042 l 347 1042 l 347 868 l 174 868 l 174 1042 z "},"Ò":{"ha":1215,"x_min":174,"x_max":1042,"o":"m 868 174 l 868 0 l 347 0 l 347 174 l 868 174 m 694 1215 l 694 1042 l 521 1042 l 521 1215 l 694 1215 m 174 174 l 174 694 l 347 694 l 347 174 l 174 174 m 1042 694 l 1042 174 l 868 174 l 868 694 l 1042 694 m 694 868 l 694 1042 l 868 1042 l 868 694 l 347 694 l 347 868 l 694 868 z "},"Ó":{"ha":1215,"x_min":174,"x_max":1042,"o":"m 868 174 l 868 0 l 347 0 l 347 174 l 868 174 m 868 1215 l 1042 1215 l 1042 1042 l 868 1042 l 868 1215 m 174 174 l 174 694 l 347 694 l 347 174 l 174 174 m 1042 694 l 1042 174 l 868 174 l 868 694 l 1042 694 m 694 868 l 694 1042 l 868 1042 l 868 694 l 347 694 l 347 868 l 694 868 z "},"Ô":{"ha":1215,"x_min":174,"x_max":1042,"o":"m 868 174 l 868 0 l 347 0 l 347 174 l 868 174 m 868 1215 l 868 1042 l 694 1042 l 694 1215 l 868 1215 m 1042 868 l 868 868 l 868 1042 l 1042 1042 l 1042 868 m 521 868 l 521 1042 l 694 1042 l 694 868 l 868 868 l 868 694 l 347 694 l 347 868 l 521 868 m 1042 694 l 1042 174 l 868 174 l 868 694 l 1042 694 m 174 174 l 174 694 l 347 694 l 347 174 l 174 174 z "},"Õ":{"ha":1215,"x_min":174,"x_max":1042,"o":"m 868 174 l 868 0 l 347 0 l 347 174 l 868 174 m 868 1215 l 1042 1215 l 1042 1042 l 868 1042 l 868 1215 m 694 1215 l 694 1042 l 868 1042 l 868 694 l 347 694 l 347 868 l 521 868 l 521 1042 l 347 1042 l 347 1215 l 694 1215 m 1042 694 l 1042 174 l 868 174 l 868 694 l 1042 694 m 174 174 l 174 694 l 347 694 l 347 174 l 174 174 m 174 1042 l 347 1042 l 347 868 l 174 868 l 174 1042 z "},"Ö":{"ha":1215,"x_min":174,"x_max":1042,"o":"m 868 174 l 868 868 l 1042 868 l 1042 174 l 868 174 m 868 1215 l 1042 1215 l 1042 1042 l 868 1042 l 868 1215 m 347 0 l 347 174 l 868 174 l 868 0 l 347 0 m 174 174 l 174 868 l 347 868 l 347 174 l 174 174 m 174 1215 l 347 1215 l 347 1042 l 174 1042 l 174 1215 m 868 868 l 347 868 l 347 1042 l 868 1042 l 868 868 z "},"×":{"ha":1215,"x_min":174,"x_max":1042,"o":"m 868 174 l 868 347 l 1042 347 l 1042 174 l 868 174 m 1042 868 l 868 868 l 868 1042 l 1042 1042 l 1042 868 m 521 521 l 521 347 l 347 347 l 347 521 l 521 521 m 521 868 l 521 694 l 347 694 l 347 868 l 521 868 m 174 174 l 174 347 l 347 347 l 347 174 l 174 174 m 868 521 l 868 347 l 694 347 l 694 521 l 868 521 m 868 868 l 868 694 l 694 694 l 694 868 l 868 868 m 174 1042 l 347 1042 l 347 868 l 174 868 l 174 1042 m 694 694 l 694 521 l 521 521 l 521 694 l 694 694 z "},"Ø":{"ha":1215,"x_min":174,"x_max":1042,"o":"m 868 174 l 868 0 l 347 0 l 347 174 l 174 174 l 174 868 l 347 868 l 347 347 l 521 347 l 521 174 l 868 174 m 1042 868 l 1042 174 l 868 174 l 868 694 l 694 694 l 694 868 l 347 868 l 347 1042 l 868 1042 l 868 868 l 1042 868 m 174 -174 l 174 0 l 347 0 l 347 -174 l 174 -174 m 1042 1042 l 868 1042 l 868 1215 l 1042 1215 l 1042 1042 m 694 694 l 694 347 l 521 347 l 521 694 l 694 694 z "},"Ù":{"ha":1215,"x_min":174,"x_max":1042,"o":"m 868 174 l 868 868 l 1042 868 l 1042 174 l 868 174 m 347 0 l 347 174 l 868 174 l 868 0 l 347 0 m 521 868 l 521 1042 l 694 1042 l 694 868 l 521 868 m 174 174 l 174 868 l 347 868 l 347 174 l 174 174 m 347 1215 l 521 1215 l 521 1042 l 347 1042 l 347 1215 z "},"Ú":{"ha":1215,"x_min":174,"x_max":1042,"o":"m 868 174 l 868 868 l 1042 868 l 1042 174 l 868 174 m 868 1215 l 868 1042 l 694 1042 l 694 1215 l 868 1215 m 347 0 l 347 174 l 868 174 l 868 0 l 347 0 m 521 868 l 521 1042 l 694 1042 l 694 868 l 521 868 m 174 174 l 174 868 l 347 868 l 347 174 l 174 174 z "},"Û":{"ha":1215,"x_min":174,"x_max":1042,"o":"m 868 174 l 868 868 l 1042 868 l 1042 174 l 868 174 m 694 1215 l 694 1042 l 521 1042 l 521 1215 l 694 1215 m 347 0 l 347 174 l 868 174 l 868 0 l 347 0 m 521 868 l 347 868 l 347 1042 l 521 1042 l 521 868 m 174 174 l 174 868 l 347 868 l 347 174 l 174 174 m 694 868 l 694 1042 l 868 1042 l 868 868 l 694 868 z "},"Ü":{"ha":1215,"x_min":174,"x_max":1042,"o":"m 868 174 l 868 868 l 1042 868 l 1042 174 l 868 174 m 868 1215 l 1042 1215 l 1042 1042 l 868 1042 l 868 1215 m 347 0 l 347 174 l 868 174 l 868 0 l 347 0 m 174 174 l 174 868 l 347 868 l 347 174 l 174 174 m 174 1215 l 347 1215 l 347 1042 l 174 1042 l 174 1215 z "},"Ý":{"ha":1215,"x_min":174,"x_max":1042,"o":"m 868 1215 l 868 1042 l 694 1042 l 694 1215 l 868 1215 m 1042 521 l 868 521 l 868 868 l 1042 868 l 1042 521 m 521 521 l 521 347 l 347 347 l 347 521 l 521 521 m 521 868 l 521 1042 l 694 1042 l 694 868 l 521 868 m 694 0 l 521 0 l 521 347 l 694 347 l 694 0 m 868 521 l 868 347 l 694 347 l 694 521 l 868 521 m 174 868 l 347 868 l 347 521 l 174 521 l 174 868 z "},"Þ":{"ha":1215,"x_min":174,"x_max":1042,"o":"m 1042 521 l 868 521 l 868 694 l 1042 694 l 1042 521 m 174 0 l 174 1215 l 347 1215 l 347 868 l 868 868 l 868 694 l 347 694 l 347 521 l 868 521 l 868 347 l 347 347 l 347 0 l 174 0 z "},"ß":{"ha":1215,"x_min":174,"x_max":1042,"o":"m 868 174 l 868 521 l 1042 521 l 1042 174 l 868 174 m 868 1215 l 868 1042 l 347 1042 l 347 694 l 868 694 l 868 521 l 347 521 l 347 -174 l 174 -174 l 174 1215 l 868 1215 m 1042 1042 l 1042 694 l 868 694 l 868 1042 l 1042 1042 m 868 0 l 521 0 l 521 174 l 868 174 l 868 0 z "},"à":{"ha":1215,"x_min":174,"x_max":1042,"o":"m 868 174 l 868 347 l 347 347 l 347 521 l 868 521 l 868 694 l 1042 694 l 1042 0 l 347 0 l 347 174 l 868 174 m 868 1215 l 868 1042 l 694 1042 l 694 1215 l 868 1215 m 1042 868 l 868 868 l 868 1042 l 1042 1042 l 1042 868 m 174 174 l 174 347 l 347 347 l 347 174 l 174 174 m 868 868 l 868 694 l 347 694 l 347 868 l 868 868 z "},"á":{"ha":1215,"x_min":174,"x_max":1042,"o":"m 868 174 l 868 347 l 347 347 l 347 521 l 868 521 l 868 694 l 1042 694 l 1042 0 l 347 0 l 347 174 l 868 174 m 868 1215 l 1042 1215 l 1042 1042 l 868 1042 l 868 1215 m 174 174 l 174 347 l 347 347 l 347 174 l 174 174 m 694 868 l 694 1042 l 868 1042 l 868 694 l 347 694 l 347 868 l 694 868 z "},"â":{"ha":1215,"x_min":174,"x_max":1042,"o":"m 868 174 l 868 347 l 347 347 l 347 521 l 868 521 l 868 694 l 1042 694 l 1042 0 l 347 0 l 347 174 l 868 174 m 868 1215 l 868 1042 l 694 1042 l 694 1215 l 868 1215 m 1042 868 l 868 868 l 868 1042 l 1042 1042 l 1042 868 m 521 868 l 521 1042 l 694 1042 l 694 868 l 868 868 l 868 694 l 347 694 l 347 868 l 521 868 m 174 174 l 174 347 l 347 347 l 347 174 l 174 174 z "},"ã":{"ha":1215,"x_min":174,"x_max":1042,"o":"m 868 174 l 868 347 l 347 347 l 347 521 l 868 521 l 868 694 l 1042 694 l 1042 0 l 347 0 l 347 174 l 868 174 m 694 1215 l 694 1042 l 868 1042 l 868 694 l 347 694 l 347 868 l 521 868 l 521 1042 l 347 1042 l 347 1215 l 694 1215 m 1042 1042 l 868 1042 l 868 1215 l 1042 1215 l 1042 1042 m 174 174 l 174 347 l 347 347 l 347 174 l 174 174 m 174 1042 l 347 1042 l 347 868 l 174 868 l 174 1042 z "},"ä":{"ha":1215,"x_min":174,"x_max":1042,"o":"m 868 174 l 868 347 l 347 347 l 347 521 l 868 521 l 868 694 l 1042 694 l 1042 0 l 347 0 l 347 174 l 868 174 m 1042 868 l 868 868 l 868 1042 l 1042 1042 l 1042 868 m 174 174 l 174 347 l 347 347 l 347 174 l 174 174 m 868 868 l 868 694 l 347 694 l 347 868 l 868 868 m 174 1042 l 347 1042 l 347 868 l 174 868 l 174 1042 z "},"å":{"ha":1215,"x_min":174,"x_max":1042,"o":"m 868 174 l 868 347 l 347 347 l 347 521 l 868 521 l 868 694 l 1042 694 l 1042 0 l 347 0 l 347 174 l 868 174 m 694 1215 l 694 1042 l 521 1042 l 521 1215 l 694 1215 m 521 868 l 694 868 l 694 1042 l 868 1042 l 868 694 l 347 694 l 347 1042 l 521 1042 l 521 868 m 174 174 l 174 347 l 347 347 l 347 174 l 174 174 z "},"æ":{"ha":1215,"x_min":174,"x_max":1042,"o":"m 521 521 l 521 694 l 694 694 l 694 521 l 868 521 l 868 694 l 1042 694 l 1042 347 l 694 347 l 694 174 l 1042 174 l 1042 0 l 347 0 l 347 174 l 521 174 l 521 347 l 347 347 l 347 521 l 521 521 m 521 868 l 521 694 l 174 694 l 174 868 l 521 868 m 174 174 l 174 347 l 347 347 l 347 174 l 174 174 m 868 868 l 868 694 l 694 694 l 694 868 l 868 868 z "},"ç":{"ha":1215,"x_min":174,"x_max":1042,"o":"m 868 174 l 868 0 l 694 0 l 694 174 l 347 174 l 347 347 l 1042 347 l 1042 174 l 868 174 m 1042 868 l 1042 694 l 347 694 l 347 868 l 1042 868 m 694 0 l 694 -174 l 521 -174 l 521 0 l 694 0 m 174 694 l 347 694 l 347 347 l 174 347 l 174 694 z "},"è":{"ha":1215,"x_min":174,"x_max":1042,"o":"m 868 1215 l 868 1042 l 694 1042 l 694 1215 l 868 1215 m 1042 868 l 868 868 l 868 1042 l 1042 1042 l 1042 868 m 347 0 l 347 174 l 1042 174 l 1042 0 l 347 0 m 1042 347 l 347 347 l 347 174 l 174 174 l 174 694 l 347 694 l 347 521 l 868 521 l 868 694 l 1042 694 l 1042 347 m 868 868 l 868 694 l 347 694 l 347 868 l 868 868 z "},"é":{"ha":1215,"x_min":174,"x_max":1042,"o":"m 868 1215 l 1042 1215 l 1042 1042 l 868 1042 l 868 1215 m 347 0 l 347 174 l 1042 174 l 1042 0 l 347 0 m 1042 347 l 347 347 l 347 174 l 174 174 l 174 694 l 347 694 l 347 521 l 868 521 l 868 694 l 1042 694 l 1042 347 m 694 868 l 694 1042 l 868 1042 l 868 694 l 347 694 l 347 868 l 694 868 z "},"ê":{"ha":1215,"x_min":174,"x_max":1042,"o":"m 868 1215 l 868 1042 l 694 1042 l 694 1215 l 868 1215 m 1042 868 l 868 868 l 868 1042 l 1042 1042 l 1042 868 m 347 0 l 347 174 l 1042 174 l 1042 0 l 347 0 m 521 868 l 521 1042 l 694 1042 l 694 868 l 868 868 l 868 694 l 347 694 l 347 868 l 521 868 m 1042 347 l 347 347 l 347 174 l 174 174 l 174 694 l 347 694 l 347 521 l 868 521 l 868 694 l 1042 694 l 1042 347 z "},"ë":{"ha":1215,"x_min":174,"x_max":1042,"o":"m 1042 868 l 868 868 l 868 1042 l 1042 1042 l 1042 868 m 347 0 l 347 174 l 1042 174 l 1042 0 l 347 0 m 1042 347 l 347 347 l 347 174 l 174 174 l 174 694 l 347 694 l 347 521 l 868 521 l 868 694 l 1042 694 l 1042 347 m 868 868 l 868 694 l 347 694 l 347 868 l 868 868 m 174 1042 l 347 1042 l 347 868 l 174 868 l 174 1042 z "},"ì":{"ha":1215,"x_min":347,"x_max":868,"o":"m 868 174 l 868 0 l 347 0 l 347 174 l 521 174 l 521 694 l 694 694 l 694 174 l 868 174 m 521 868 l 521 1042 l 694 1042 l 694 868 l 521 868 m 347 1215 l 521 1215 l 521 1042 l 347 1042 l 347 1215 z "},"í":{"ha":1215,"x_min":347,"x_max":868,"o":"m 868 174 l 868 0 l 347 0 l 347 174 l 521 174 l 521 694 l 694 694 l 694 174 l 868 174 m 868 1215 l 868 1042 l 694 1042 l 694 1215 l 868 1215 m 521 868 l 521 1042 l 694 1042 l 694 868 l 521 868 z "},"î":{"ha":1215,"x_min":347,"x_max":868,"o":"m 868 174 l 868 0 l 347 0 l 347 174 l 521 174 l 521 694 l 694 694 l 694 174 l 868 174 m 694 1215 l 694 1042 l 521 1042 l 521 1215 l 694 1215 m 521 868 l 347 868 l 347 1042 l 521 1042 l 521 868 m 694 868 l 694 1042 l 868 1042 l 868 868 l 694 868 z "},"ï":{"ha":1215,"x_min":174,"x_max":1042,"o":"m 868 174 l 868 0 l 347 0 l 347 174 l 521 174 l 521 694 l 694 694 l 694 174 l 868 174 m 1042 868 l 868 868 l 868 1042 l 1042 1042 l 1042 868 m 174 1042 l 347 1042 l 347 868 l 174 868 l 174 1042 z "},"ð":{"ha":1215,"x_min":174,"x_max":1042,"o":"m 868 174 l 868 521 l 1042 521 l 1042 174 l 868 174 m 868 1215 l 868 1042 l 694 1042 l 694 1215 l 868 1215 m 347 0 l 347 174 l 868 174 l 868 0 l 347 0 m 521 868 l 521 1042 l 694 1042 l 694 868 l 521 868 m 174 174 l 174 521 l 347 521 l 347 174 l 174 174 m 347 1215 l 521 1215 l 521 1042 l 347 1042 l 347 1215 m 521 694 l 694 694 l 694 868 l 868 868 l 868 521 l 347 521 l 347 868 l 521 868 l 521 694 z "},"ñ":{"ha":1215,"x_min":174,"x_max":1042,"o":"m 1042 521 l 1042 0 l 868 0 l 868 521 l 1042 521 m 868 1215 l 1042 1215 l 1042 1042 l 868 1042 l 868 1215 m 174 0 l 174 694 l 868 694 l 868 521 l 347 521 l 347 0 l 174 0 m 694 1215 l 694 1042 l 868 1042 l 868 868 l 521 868 l 521 1042 l 347 1042 l 347 1215 l 694 1215 m 174 1042 l 347 1042 l 347 868 l 174 868 l 174 1042 z "},"ò":{"ha":1215,"x_min":174,"x_max":1042,"o":"m 868 174 l 868 521 l 1042 521 l 1042 174 l 868 174 m 347 0 l 347 174 l 868 174 l 868 0 l 347 0 m 521 868 l 521 1042 l 694 1042 l 694 868 l 521 868 m 174 174 l 174 521 l 347 521 l 347 174 l 174 174 m 868 521 l 347 521 l 347 694 l 694 694 l 694 868 l 868 868 l 868 521 z "},"ó":{"ha":1215,"x_min":174,"x_max":1042,"o":"m 868 174 l 868 521 l 1042 521 l 1042 174 l 868 174 m 1042 868 l 868 868 l 868 1042 l 1042 1042 l 1042 868 m 347 0 l 347 174 l 868 174 l 868 0 l 347 0 m 174 174 l 174 521 l 347 521 l 347 174 l 174 174 m 868 521 l 347 521 l 347 694 l 694 694 l 694 868 l 868 868 l 868 521 z "},"ô":{"ha":1215,"x_min":174,"x_max":1042,"o":"m 868 174 l 868 521 l 1042 521 l 1042 174 l 868 174 m 1042 868 l 1042 694 l 868 694 l 868 868 l 1042 868 m 347 0 l 347 174 l 868 174 l 868 0 l 347 0 m 521 868 l 694 868 l 694 694 l 868 694 l 868 521 l 347 521 l 347 694 l 521 694 l 521 868 m 174 174 l 174 521 l 347 521 l 347 174 l 174 174 m 694 868 l 694 1042 l 868 1042 l 868 868 l 694 868 z "},"õ":{"ha":1215,"x_min":174,"x_max":1042,"o":"m 868 174 l 868 521 l 1042 521 l 1042 174 l 868 174 m 694 1215 l 694 1042 l 868 1042 l 868 868 l 521 868 l 521 1042 l 347 1042 l 347 1215 l 694 1215 m 347 0 l 347 174 l 868 174 l 868 0 l 347 0 m 1042 1042 l 868 1042 l 868 1215 l 1042 1215 l 1042 1042 m 174 174 l 174 521 l 347 521 l 347 174 l 174 174 m 868 521 l 347 521 l 347 694 l 868 694 l 868 521 m 174 1042 l 347 1042 l 347 868 l 174 868 l 174 1042 z "},"ö":{"ha":1215,"x_min":174,"x_max":1042,"o":"m 868 174 l 868 0 l 347 0 l 347 174 l 868 174 m 1042 868 l 868 868 l 868 1042 l 1042 1042 l 1042 868 m 174 174 l 174 694 l 347 694 l 347 174 l 174 174 m 1042 694 l 1042 174 l 868 174 l 868 694 l 1042 694 m 868 868 l 868 694 l 347 694 l 347 868 l 868 868 m 174 1042 l 347 1042 l 347 868 l 174 868 l 174 1042 z "},"÷":{"ha":1215,"x_min":174,"x_max":1042,"o":"m 1042 521 l 174 521 l 174 694 l 1042 694 l 1042 521 m 694 868 l 521 868 l 521 1042 l 694 1042 l 694 868 m 694 174 l 521 174 l 521 347 l 694 347 l 694 174 z "},"ø":{"ha":1215,"x_min":174,"x_max":1042,"o":"m 868 174 l 868 521 l 694 521 l 694 694 l 347 694 l 347 868 l 868 868 l 868 694 l 1042 694 l 1042 174 l 868 174 m 174 -174 l 174 0 l 347 0 l 347 -174 l 174 -174 m 1042 868 l 868 868 l 868 1042 l 1042 1042 l 1042 868 m 521 521 l 694 521 l 694 347 l 521 347 l 521 521 m 347 0 l 347 174 l 174 174 l 174 694 l 347 694 l 347 347 l 521 347 l 521 174 l 868 174 l 868 0 l 347 0 z "},"ù":{"ha":1215,"x_min":174,"x_max":1042,"o":"m 868 174 l 694 174 l 694 347 l 868 347 l 868 868 l 1042 868 l 1042 0 l 868 0 l 868 174 m 694 174 l 694 0 l 347 0 l 347 174 l 694 174 m 521 868 l 521 1042 l 694 1042 l 694 868 l 521 868 m 174 174 l 174 868 l 347 868 l 347 174 l 174 174 m 347 1215 l 521 1215 l 521 1042 l 347 1042 l 347 1215 z "},"ú":{"ha":1215,"x_min":174,"x_max":1042,"o":"m 868 174 l 694 174 l 694 347 l 868 347 l 868 868 l 1042 868 l 1042 0 l 868 0 l 868 174 m 868 1215 l 868 1042 l 694 1042 l 694 1215 l 868 1215 m 694 174 l 694 0 l 347 0 l 347 174 l 694 174 m 521 868 l 521 1042 l 694 1042 l 694 868 l 521 868 m 174 174 l 174 868 l 347 868 l 347 174 l 174 174 z "},"û":{"ha":1215,"x_min":174,"x_max":1042,"o":"m 868 174 l 694 174 l 694 347 l 868 347 l 868 868 l 1042 868 l 1042 0 l 868 0 l 868 174 m 694 174 l 694 0 l 347 0 l 347 174 l 694 174 m 694 1215 l 694 1042 l 521 1042 l 521 1215 l 694 1215 m 521 868 l 347 868 l 347 1042 l 521 1042 l 521 868 m 174 174 l 174 868 l 347 868 l 347 174 l 174 174 m 694 868 l 694 1042 l 868 1042 l 868 868 l 694 868 z "},"ü":{"ha":1215,"x_min":174,"x_max":1042,"o":"m 868 174 l 694 174 l 694 347 l 868 347 l 868 694 l 1042 694 l 1042 0 l 868 0 l 868 174 m 1042 868 l 868 868 l 868 1042 l 1042 1042 l 1042 868 m 694 174 l 694 0 l 347 0 l 347 174 l 694 174 m 174 174 l 174 694 l 347 694 l 347 174 l 174 174 m 174 1042 l 347 1042 l 347 868 l 174 868 l 174 1042 z "},"ý":{"ha":1215,"x_min":174,"x_max":1042,"o":"m 868 174 l 347 174 l 347 347 l 868 347 l 868 868 l 1042 868 l 1042 0 l 868 0 l 868 174 m 868 1215 l 868 1042 l 694 1042 l 694 1215 l 868 1215 m 347 0 l 868 0 l 868 -174 l 347 -174 l 347 0 m 521 868 l 521 1042 l 694 1042 l 694 868 l 521 868 m 174 347 l 174 868 l 347 868 l 347 347 l 174 347 z "},"þ":{"ha":1215,"x_min":174,"x_max":1042,"o":"m 868 174 l 347 174 l 347 -174 l 174 -174 l 174 1215 l 347 1215 l 347 868 l 868 868 l 868 694 l 347 694 l 347 347 l 868 347 l 868 174 m 1042 347 l 868 347 l 868 694 l 1042 694 l 1042 347 z "},"ÿ":{"ha":1215,"x_min":174,"x_max":1042,"o":"m 868 174 l 347 174 l 347 347 l 868 347 l 868 694 l 1042 694 l 1042 0 l 868 0 l 868 174 m 1042 868 l 868 868 l 868 1042 l 1042 1042 l 1042 868 m 347 0 l 868 0 l 868 -174 l 347 -174 l 347 0 m 174 694 l 347 694 l 347 347 l 174 347 l 174 694 m 174 1042 l 347 1042 l 347 868 l 174 868 l 174 1042 z "},"ı":{"ha":1215,"x_min":347,"x_max":868,"o":"m 868 174 l 868 0 l 347 0 l 347 174 l 521 174 l 521 694 l 694 694 l 694 174 l 868 174 z "},"Ł":{"ha":1215,"x_min":174,"x_max":1042,"o":"m 347 0 l 347 521 l 174 521 l 174 694 l 347 694 l 347 1215 l 521 1215 l 521 868 l 694 868 l 694 694 l 521 694 l 521 174 l 1042 174 l 1042 0 l 347 0 z "},"ł":{"ha":1215,"x_min":347,"x_max":868,"o":"m 868 174 l 868 0 l 347 0 l 347 174 l 521 174 l 521 521 l 347 521 l 347 694 l 521 694 l 521 1042 l 347 1042 l 347 1215 l 694 1215 l 694 868 l 868 868 l 868 694 l 694 694 l 694 174 l 868 174 z "},"Œ":{"ha":1215,"x_min":174,"x_max":1042,"o":"m 1042 521 l 694 521 l 694 174 l 1042 174 l 1042 0 l 347 0 l 347 174 l 521 174 l 521 1042 l 347 1042 l 347 1215 l 1042 1215 l 1042 1042 l 694 1042 l 694 694 l 1042 694 l 1042 521 m 174 174 l 174 1042 l 347 1042 l 347 174 l 174 174 z "},"œ":{"ha":1215,"x_min":174,"x_max":1042,"o":"m 694 174 l 1042 174 l 1042 0 l 347 0 l 347 174 l 521 174 l 521 694 l 694 694 l 694 521 l 868 521 l 868 694 l 1042 694 l 1042 347 l 694 347 l 694 174 m 521 868 l 521 694 l 347 694 l 347 868 l 521 868 m 174 174 l 174 694 l 347 694 l 347 174 l 174 174 m 694 868 l 868 868 l 868 694 l 694 694 l 694 868 z "},"Š":{"ha":1215,"x_min":174,"x_max":1042,"o":"m 868 174 l 868 0 l 174 0 l 174 174 l 868 174 m 1042 868 l 1042 694 l 347 694 l 347 868 l 694 868 l 694 1042 l 868 1042 l 868 868 l 1042 868 m 694 1215 l 694 1042 l 521 1042 l 521 1215 l 694 1215 m 1042 1042 l 868 1042 l 868 1215 l 1042 1215 l 1042 1042 m 868 521 l 868 347 l 347 347 l 347 521 l 868 521 m 1042 174 l 868 174 l 868 347 l 1042 347 l 1042 174 m 347 694 l 347 521 l 174 521 l 174 694 l 347 694 z "},"š":{"ha":1215,"x_min":174,"x_max":1042,"o":"m 868 174 l 868 0 l 174 0 l 174 174 l 868 174 m 1042 868 l 1042 694 l 347 694 l 347 868 l 694 868 l 694 1042 l 868 1042 l 868 868 l 1042 868 m 694 1215 l 694 1042 l 521 1042 l 521 1215 l 694 1215 m 1042 1042 l 868 1042 l 868 1215 l 1042 1215 l 1042 1042 m 868 521 l 868 347 l 347 347 l 347 521 l 868 521 m 1042 174 l 868 174 l 868 347 l 1042 347 l 1042 174 m 347 694 l 347 521 l 174 521 l 174 694 l 347 694 z "},"Ÿ":{"ha":1215,"x_min":174,"x_max":1042,"o":"m 868 1215 l 1042 1215 l 1042 1042 l 868 1042 l 868 1215 m 1042 521 l 868 521 l 868 868 l 1042 868 l 1042 521 m 521 521 l 521 347 l 347 347 l 347 521 l 521 521 m 694 0 l 521 0 l 521 347 l 694 347 l 694 0 m 174 1215 l 347 1215 l 347 1042 l 174 1042 l 174 1215 m 868 521 l 868 347 l 694 347 l 694 521 l 868 521 m 174 868 l 347 868 l 347 521 l 174 521 l 174 868 z "},"Ž":{"ha":1215,"x_min":174,"x_max":1042,"o":"m 1042 868 l 1042 694 l 868 694 l 868 521 l 694 521 l 694 694 l 174 694 l 174 868 l 694 868 l 694 1042 l 868 1042 l 868 868 l 1042 868 m 694 1215 l 694 1042 l 521 1042 l 521 1215 l 694 1215 m 521 521 l 694 521 l 694 347 l 521 347 l 521 521 m 1042 1042 l 868 1042 l 868 1215 l 1042 1215 l 1042 1042 m 174 174 l 347 174 l 347 347 l 521 347 l 521 174 l 1042 174 l 1042 0 l 174 0 l 174 174 z "},"ž":{"ha":1215,"x_min":174,"x_max":1042,"o":"m 1042 868 l 1042 694 l 868 694 l 868 521 l 694 521 l 694 694 l 174 694 l 174 868 l 694 868 l 694 1042 l 868 1042 l 868 868 l 1042 868 m 694 1215 l 694 1042 l 521 1042 l 521 1215 l 694 1215 m 521 521 l 694 521 l 694 347 l 521 347 l 521 521 m 1042 1042 l 868 1042 l 868 1215 l 1042 1215 l 1042 1042 m 174 174 l 347 174 l 347 347 l 521 347 l 521 174 l 1042 174 l 1042 0 l 174 0 l 174 174 z "},"ƒ":{"ha":1215,"x_min":174,"x_max":1042,"o":"m 1042 521 l 694 521 l 694 0 l 521 0 l 521 521 l 174 521 l 174 694 l 521 694 l 521 1042 l 694 1042 l 694 694 l 1042 694 l 1042 521 m 174 -174 l 174 0 l 521 0 l 521 -174 l 174 -174 m 694 1215 l 1042 1215 l 1042 1042 l 694 1042 l 694 1215 z "},"Ȧ":{"ha":1215,"x_min":174,"x_max":1042,"o":"m 174 0 l 174 694 l 347 694 l 347 521 l 868 521 l 868 694 l 1042 694 l 1042 0 l 868 0 l 868 347 l 347 347 l 347 0 l 174 0 m 694 1215 l 694 1042 l 521 1042 l 521 1215 l 694 1215 m 868 868 l 868 694 l 347 694 l 347 868 l 868 868 z "},"ȧ":{"ha":1215,"x_min":174,"x_max":1042,"o":"m 868 174 l 868 347 l 347 347 l 347 521 l 868 521 l 868 694 l 1042 694 l 1042 0 l 347 0 l 347 174 l 868 174 m 694 1215 l 694 1042 l 521 1042 l 521 1215 l 694 1215 m 174 174 l 174 347 l 347 347 l 347 174 l 174 174 m 868 868 l 868 694 l 347 694 l 347 868 l 868 868 z "},"ȷ":{"ha":1215,"x_min":174,"x_max":868,"o":"m 174 0 l 174 174 l 347 174 l 347 0 l 174 0 m 347 -174 l 347 0 l 694 0 l 694 -174 l 347 -174 m 868 0 l 694 0 l 694 694 l 868 694 l 868 0 z "},"ˆ":{"ha":1215,"x_min":521,"x_max":1042,"o":"m 694 868 l 521 868 l 521 1042 l 694 1042 l 694 868 m 868 1215 l 868 1042 l 694 1042 l 694 1215 l 868 1215 m 1042 868 l 868 868 l 868 1042 l 1042 1042 l 1042 868 z "},"ˇ":{"ha":1215,"x_min":521,"x_max":1042,"o":"m 1042 1215 l 1042 1042 l 868 1042 l 868 1215 l 1042 1215 m 694 868 l 694 1042 l 868 1042 l 868 868 l 694 868 m 694 1215 l 694 1042 l 521 1042 l 521 1215 l 694 1215 z "},"ˈ":{"ha":1215,"x_min":694,"x_max":868,"o":"m 868 1215 l 868 868 l 694 868 l 694 1215 l 868 1215 z "},"ˉ":{"ha":1215,"x_min":521,"x_max":1042,"o":"m 1042 1215 l 1042 1042 l 521 1042 l 521 1215 l 1042 1215 z "},"ˊ":{"ha":1215,"x_min":694,"x_max":1042,"o":"m 1042 1215 l 1042 1042 l 868 1042 l 868 1215 l 1042 1215 m 694 868 l 694 1042 l 868 1042 l 868 868 l 694 868 z "},"ˋ":{"ha":1215,"x_min":521,"x_max":868,"o":"m 694 868 l 694 1042 l 868 1042 l 868 868 l 694 868 m 694 1215 l 694 1042 l 521 1042 l 521 1215 l 694 1215 z "},"˒":{"ha":1215,"x_min":694,"x_max":1042,"o":"m 694 868 l 868 868 l 868 694 l 694 694 l 694 868 m 868 1215 l 868 1042 l 694 1042 l 694 1215 l 868 1215 m 1042 868 l 868 868 l 868 1042 l 1042 1042 l 1042 868 z "},"˓":{"ha":1215,"x_min":694,"x_max":1042,"o":"m 1042 1215 l 1042 1042 l 868 1042 l 868 1215 l 1042 1215 m 694 868 l 694 1042 l 868 1042 l 868 868 l 694 868 m 1042 868 l 1042 694 l 868 694 l 868 868 l 1042 868 z "},"˔":{"ha":1215,"x_min":521,"x_max":1042,"o":"m 868 1215 l 868 1042 l 1042 1042 l 1042 868 l 521 868 l 521 1042 l 694 1042 l 694 1215 l 868 1215 z "},"˕":{"ha":1215,"x_min":521,"x_max":1042,"o":"m 1042 1215 l 1042 1042 l 868 1042 l 868 868 l 694 868 l 694 1042 l 521 1042 l 521 1215 l 1042 1215 z "},"˖":{"ha":1215,"x_min":521,"x_max":1042,"o":"m 694 868 l 521 868 l 521 1042 l 694 1042 l 694 1215 l 868 1215 l 868 1042 l 1042 1042 l 1042 868 l 868 868 l 868 694 l 694 694 l 694 868 z "},"˗":{"ha":1215,"x_min":521,"x_max":1042,"o":"m 1042 1215 l 1042 1042 l 521 1042 l 521 1215 l 1042 1215 z "},"˘":{"ha":1215,"x_min":521,"x_max":1042,"o":"m 1042 1215 l 1042 1042 l 868 1042 l 868 1215 l 1042 1215 m 694 868 l 694 1042 l 868 1042 l 868 868 l 694 868 m 694 1215 l 694 1042 l 521 1042 l 521 1215 l 694 1215 z "},"˙":{"ha":1215,"x_min":521,"x_max":694,"o":"m 694 1215 l 694 1042 l 521 1042 l 521 1215 l 694 1215 z "},"˚":{"ha":1215,"x_min":347,"x_max":868,"o":"m 694 868 l 694 694 l 521 694 l 521 868 l 694 868 m 868 868 l 694 868 l 694 1042 l 868 1042 l 868 868 m 694 1215 l 694 1042 l 521 1042 l 521 1215 l 694 1215 m 347 1042 l 521 1042 l 521 868 l 347 868 l 347 1042 z "},"˛":{"ha":1215,"x_min":521,"x_max":868,"o":"m 694 174 l 694 0 l 521 0 l 521 174 l 694 174 m 868 -174 l 694 -174 l 694 0 l 868 0 l 868 -174 z "},"˜":{"ha":1215,"x_min":174,"x_max":1042,"o":"m 868 1215 l 1042 1215 l 1042 1042 l 868 1042 l 868 1215 m 694 1215 l 694 1042 l 868 1042 l 868 868 l 521 868 l 521 1042 l 347 1042 l 347 1215 l 694 1215 m 174 1042 l 347 1042 l 347 868 l 174 868 l 174 1042 z "},"˝":{"ha":1215,"x_min":174,"x_max":1042,"o":"m 868 1215 l 1042 1215 l 1042 1042 l 868 1042 l 868 1215 m 347 1215 l 521 1215 l 521 1042 l 347 1042 l 347 1215 m 694 868 l 694 1042 l 868 1042 l 868 868 l 694 868 m 174 1042 l 347 1042 l 347 868 l 174 868 l 174 1042 z "},"Δ":{"ha":1215,"x_min":174,"x_max":1042,"o":"m 868 174 l 868 347 l 1042 347 l 1042 0 l 174 0 l 174 347 l 347 347 l 347 174 l 868 174 m 694 1215 l 694 868 l 521 868 l 521 1215 l 694 1215 m 521 868 l 521 347 l 347 347 l 347 868 l 521 868 m 694 868 l 868 868 l 868 347 l 694 347 l 694 868 z "},"Ω":{"ha":1215,"x_min":174,"x_max":1042,"o":"m 868 174 l 1042 174 l 1042 0 l 694 0 l 694 347 l 868 347 l 868 174 m 868 1215 l 868 1042 l 347 1042 l 347 1215 l 868 1215 m 174 0 l 174 174 l 347 174 l 347 347 l 521 347 l 521 0 l 174 0 m 1042 1042 l 1042 347 l 868 347 l 868 1042 l 1042 1042 m 174 347 l 174 1042 l 347 1042 l 347 347 l 174 347 z "},"μ":{"ha":1215,"x_min":174,"x_max":1042,"o":"m 868 174 l 694 174 l 694 347 l 868 347 l 868 868 l 1042 868 l 1042 0 l 868 0 l 868 174 m 174 -174 l 174 868 l 347 868 l 347 347 l 521 347 l 521 174 l 347 174 l 347 -174 l 174 -174 m 694 174 l 694 0 l 521 0 l 521 174 l 694 174 z "},"π":{"ha":1215,"x_min":174,"x_max":1042,"o":"m 174 694 l 174 868 l 1042 868 l 1042 694 l 868 694 l 868 0 l 694 0 l 694 694 l 521 694 l 521 0 l 347 0 l 347 694 l 174 694 z "},"‐":{"ha":1215,"x_min":174,"x_max":1042,"o":"m 174 694 l 1042 694 l 1042 521 l 174 521 l 174 694 z "},"‑":{"ha":1215,"x_min":174,"x_max":1042,"o":"m 174 694 l 1042 694 l 1042 521 l 174 521 l 174 694 z "},"‒":{"ha":1215,"x_min":174,"x_max":1042,"o":"m 174 694 l 1042 694 l 1042 521 l 174 521 l 174 694 z "},"–":{"ha":1215,"x_min":174,"x_max":1042,"o":"m 174 694 l 1042 694 l 1042 521 l 174 521 l 174 694 z "},"—":{"ha":1215,"x_min":174,"x_max":1042,"o":"m 174 694 l 1042 694 l 1042 521 l 174 521 l 174 694 z "},"―":{"ha":1215,"x_min":0,"x_max":1215,"o":"m 1215 694 l 1215 521 l 0 521 l 0 694 l 1215 694 z "},"‖":{"ha":1215,"x_min":347,"x_max":868,"o":"m 868 1215 l 868 -174 l 694 -174 l 694 1215 l 868 1215 m 347 -174 l 347 1215 l 521 1215 l 521 -174 l 347 -174 z "},"‗":{"ha":1215,"x_min":0,"x_max":1215,"o":"m 0 0 l 1215 0 l 1215 -174 l 0 -174 l 0 0 m 0 347 l 1215 347 l 1215 174 l 0 174 l 0 347 z "},"‘":{"ha":1215,"x_min":347,"x_max":694,"o":"m 694 868 l 521 868 l 521 1042 l 694 1042 l 694 868 m 347 1042 l 347 1215 l 521 1215 l 521 1042 l 347 1042 z "},"’":{"ha":1215,"x_min":521,"x_max":868,"o":"m 694 868 l 521 868 l 521 1042 l 694 1042 l 694 868 m 868 1215 l 868 1042 l 694 1042 l 694 1215 l 868 1215 z "},"‚":{"ha":1215,"x_min":521,"x_max":868,"o":"m 868 174 l 868 0 l 694 0 l 694 174 l 868 174 m 694 -174 l 521 -174 l 521 0 l 694 0 l 694 -174 z "},"‛":{"ha":1215,"x_min":347,"x_max":694,"o":"m 694 868 l 521 868 l 521 1042 l 694 1042 l 694 868 m 347 1042 l 347 1215 l 521 1215 l 521 1042 l 347 1042 z "},"“":{"ha":1215,"x_min":174,"x_max":1042,"o":"m 868 1215 l 868 1042 l 694 1042 l 694 1215 l 868 1215 m 1042 868 l 868 868 l 868 1042 l 1042 1042 l 1042 868 m 521 868 l 347 868 l 347 1042 l 521 1042 l 521 868 m 174 1215 l 347 1215 l 347 1042 l 174 1042 l 174 1215 z "},"”":{"ha":1215,"x_min":174,"x_max":1042,"o":"m 868 1215 l 1042 1215 l 1042 1042 l 868 1042 l 868 1215 m 347 1215 l 521 1215 l 521 1042 l 347 1042 l 347 1215 m 694 868 l 694 1042 l 868 1042 l 868 868 l 694 868 m 174 1042 l 347 1042 l 347 868 l 174 868 l 174 1042 z "},"„":{"ha":1215,"x_min":174,"x_max":1042,"o":"m 868 174 l 1042 174 l 1042 0 l 868 0 l 868 174 m 174 -174 l 174 0 l 347 0 l 347 -174 l 174 -174 m 347 0 l 347 174 l 521 174 l 521 0 l 347 0 m 868 -174 l 694 -174 l 694 0 l 868 0 l 868 -174 z "},"‟":{"ha":1215,"x_min":174,"x_max":1042,"o":"m 868 1215 l 868 1042 l 694 1042 l 694 1215 l 868 1215 m 1042 868 l 868 868 l 868 1042 l 1042 1042 l 1042 868 m 521 868 l 347 868 l 347 1042 l 521 1042 l 521 868 m 174 1215 l 347 1215 l 347 1042 l 174 1042 l 174 1215 z "},"†":{"ha":1215,"x_min":174,"x_max":1042,"o":"m 694 868 l 1042 868 l 1042 694 l 694 694 l 694 0 l 521 0 l 521 694 l 174 694 l 174 868 l 521 868 l 521 1215 l 694 1215 l 694 868 z "},"‡":{"ha":1215,"x_min":174,"x_max":1042,"o":"m 1042 521 l 1042 347 l 694 347 l 694 0 l 521 0 l 521 347 l 174 347 l 174 521 l 521 521 l 521 694 l 174 694 l 174 868 l 521 868 l 521 1215 l 694 1215 l 694 868 l 1042 868 l 1042 694 l 694 694 l 694 521 l 1042 521 z "},"•":{"ha":1215,"x_min":347,"x_max":868,"o":"m 868 868 l 868 347 l 347 347 l 347 868 l 868 868 z "},"‣":{"ha":1215,"x_min":347,"x_max":1042,"o":"m 1042 521 l 694 521 l 694 347 l 347 347 l 347 868 l 694 868 l 694 694 l 1042 694 l 1042 521 z "},"․":{"ha":1215,"x_min":521,"x_max":694,"o":"m 694 -174 l 521 -174 l 521 0 l 694 0 l 694 -174 z "},"‥":{"ha":1215,"x_min":347,"x_max":868,"o":"m 347 0 l 521 0 l 521 -174 l 347 -174 l 347 0 m 868 -174 l 694 -174 l 694 0 l 868 0 l 868 -174 z "},"…":{"ha":1215,"x_min":174,"x_max":1042,"o":"m 174 0 l 347 0 l 347 -174 l 174 -174 l 174 0 m 868 0 l 1042 0 l 1042 -174 l 868 -174 l 868 0 m 694 -174 l 521 -174 l 521 0 l 694 0 l 694 -174 z "},"‧":{"ha":1215,"x_min":521,"x_max":694,"o":"m 694 521 l 521 521 l 521 694 l 694 694 l 694 521 z "},"‰":{"ha":1215,"x_min":174,"x_max":1042,"o":"m 1042 868 l 868 868 l 868 1042 l 1042 1042 l 1042 868 m 521 521 l 521 347 l 347 347 l 347 521 l 521 521 m 521 868 l 174 868 l 174 1215 l 521 1215 l 521 868 m 694 0 l 521 0 l 521 347 l 694 347 l 694 0 m 174 174 l 174 347 l 347 347 l 347 174 l 174 174 m 868 868 l 868 694 l 694 694 l 694 868 l 868 868 m 694 694 l 694 521 l 521 521 l 521 694 l 694 694 m 1042 347 l 1042 0 l 868 0 l 868 347 l 1042 347 z "},"‱":{"ha":1215,"x_min":174,"x_max":1042,"o":"m 1042 868 l 868 868 l 868 1042 l 1042 1042 l 1042 868 m 521 521 l 521 347 l 347 347 l 347 521 l 521 521 m 347 0 l 174 0 l 174 347 l 347 347 l 347 0 m 521 868 l 174 868 l 174 1215 l 521 1215 l 521 868 m 694 0 l 521 0 l 521 347 l 694 347 l 694 0 m 868 868 l 868 694 l 694 694 l 694 868 l 868 868 m 694 694 l 694 521 l 521 521 l 521 694 l 694 694 m 1042 347 l 1042 0 l 868 0 l 868 347 l 1042 347 z "},"‹":{"ha":1215,"x_min":174,"x_max":868,"o":"m 868 174 l 868 0 l 694 0 l 694 174 l 868 174 m 868 1215 l 868 1042 l 694 1042 l 694 1215 l 868 1215 m 694 174 l 521 174 l 521 347 l 694 347 l 694 174 m 521 521 l 521 347 l 347 347 l 347 521 l 521 521 m 521 868 l 521 1042 l 694 1042 l 694 868 l 521 868 m 521 694 l 347 694 l 347 868 l 521 868 l 521 694 m 174 694 l 347 694 l 347 521 l 174 521 l 174 694 z "},"›":{"ha":1215,"x_min":347,"x_max":1042,"o":"m 1042 521 l 868 521 l 868 694 l 1042 694 l 1042 521 m 694 174 l 521 174 l 521 347 l 694 347 l 694 174 m 347 0 l 347 174 l 521 174 l 521 0 l 347 0 m 521 868 l 521 1042 l 694 1042 l 694 868 l 521 868 m 347 1215 l 521 1215 l 521 1042 l 347 1042 l 347 1215 m 868 521 l 868 347 l 694 347 l 694 521 l 868 521 m 694 868 l 868 868 l 868 694 l 694 694 l 694 868 z "},"‼":{"ha":1215,"x_min":347,"x_max":868,"o":"m 868 174 l 868 0 l 694 0 l 694 174 l 868 174 m 868 1215 l 868 347 l 694 347 l 694 1215 l 868 1215 m 347 0 l 347 174 l 521 174 l 521 0 l 347 0 m 347 1215 l 521 1215 l 521 347 l 347 347 l 347 1215 z "},"‽":{"ha":1215,"x_min":174,"x_max":1042,"o":"m 868 1215 l 868 1042 l 694 1042 l 694 868 l 868 868 l 868 694 l 694 694 l 694 347 l 521 347 l 521 1042 l 347 1042 l 347 1215 l 868 1215 m 694 174 l 694 0 l 521 0 l 521 174 l 694 174 m 1042 868 l 868 868 l 868 1042 l 1042 1042 l 1042 868 m 174 1042 l 347 1042 l 347 868 l 174 868 l 174 1042 z "},"⁄":{"ha":1215,"x_min":0,"x_max":1215,"o":"m 0 0 l 0 174 l 174 174 l 174 0 l 0 0 m 1042 868 l 868 868 l 868 1042 l 1042 1042 l 1042 868 m 1215 1042 l 1042 1042 l 1042 1215 l 1215 1215 l 1215 1042 m 521 521 l 521 347 l 347 347 l 347 521 l 521 521 m 174 174 l 174 347 l 347 347 l 347 174 l 174 174 m 521 694 l 694 694 l 694 521 l 521 521 l 521 694 m 694 868 l 868 868 l 868 694 l 694 694 l 694 868 z "},"€":{"ha":1215,"x_min":0,"x_max":1042,"o":"m 868 174 l 868 0 l 347 0 l 347 174 l 868 174 m 1042 868 l 868 868 l 868 1042 l 1042 1042 l 1042 868 m 174 174 l 174 347 l 0 347 l 0 521 l 174 521 l 174 694 l 0 694 l 0 868 l 174 868 l 174 1042 l 347 1042 l 347 868 l 694 868 l 694 694 l 347 694 l 347 521 l 694 521 l 694 347 l 347 347 l 347 174 l 174 174 m 347 1215 l 868 1215 l 868 1042 l 347 1042 l 347 1215 m 1042 174 l 868 174 l 868 347 l 1042 347 l 1042 174 z "},"℗":{"ha":1215,"x_min":0,"x_max":1215,"o":"m 868 174 l 868 0 l 347 0 l 347 174 l 868 174 m 1042 868 l 868 868 l 868 1042 l 1042 1042 l 1042 868 m 1215 347 l 1042 347 l 1042 868 l 1215 868 l 1215 347 m 521 521 l 521 347 l 347 347 l 347 868 l 868 868 l 868 521 l 521 521 m 174 174 l 174 347 l 347 347 l 347 174 l 174 174 m 347 1215 l 868 1215 l 868 1042 l 347 1042 l 347 1215 m 1042 174 l 868 174 l 868 347 l 1042 347 l 1042 174 m 0 347 l 0 868 l 174 868 l 174 347 l 0 347 m 174 1042 l 347 1042 l 347 868 l 174 868 l 174 1042 z "},"℠":{"ha":1215,"x_min":0,"x_max":1042,"o":"m 868 1215 l 1042 1215 l 1042 694 l 868 694 l 868 868 l 694 868 l 694 694 l 521 694 l 521 1042 l 347 1042 l 347 694 l 0 694 l 0 868 l 174 868 l 174 1215 l 694 1215 l 694 1042 l 868 1042 l 868 1215 z "},"™":{"ha":1215,"x_min":0,"x_max":1042,"o":"m 868 1215 l 1042 1215 l 1042 694 l 868 694 l 868 868 l 694 868 l 694 694 l 521 694 l 521 1042 l 347 1042 l 347 694 l 174 694 l 174 1042 l 0 1042 l 0 1215 l 694 1215 l 694 1042 l 868 1042 l 868 1215 z "},"Ω":{"ha":1215,"x_min":174,"x_max":1042,"o":"m 868 174 l 1042 174 l 1042 0 l 694 0 l 694 347 l 868 347 l 868 174 m 868 1215 l 868 1042 l 347 1042 l 347 1215 l 868 1215 m 174 0 l 174 174 l 347 174 l 347 347 l 521 347 l 521 0 l 174 0 m 1042 1042 l 1042 347 l 868 347 l 868 1042 l 1042 1042 m 174 347 l 174 1042 l 347 1042 l 347 347 l 174 347 z "},"℧":{"ha":1215,"x_min":174,"x_max":1042,"o":"m 868 174 l 868 868 l 1042 868 l 1042 174 l 868 174 m 694 1215 l 1042 1215 l 1042 1042 l 868 1042 l 868 868 l 694 868 l 694 1215 m 347 0 l 347 174 l 868 174 l 868 0 l 347 0 m 521 868 l 347 868 l 347 1042 l 174 1042 l 174 1215 l 521 1215 l 521 868 m 174 174 l 174 868 l 347 868 l 347 174 l 174 174 z "},"←":{"ha":1215,"x_min":0,"x_max":1215,"o":"m 1215 694 l 1215 521 l 347 521 l 347 347 l 174 347 l 174 521 l 0 521 l 0 694 l 174 694 l 174 868 l 347 868 l 347 694 l 1215 694 m 694 174 l 694 0 l 521 0 l 521 174 l 694 174 m 694 1215 l 694 1042 l 521 1042 l 521 1215 l 694 1215 m 521 868 l 347 868 l 347 1042 l 521 1042 l 521 868 m 347 174 l 347 347 l 521 347 l 521 174 l 347 174 z "},"↑":{"ha":1215,"x_min":0,"x_max":1215,"o":"m 1042 521 l 1042 694 l 1215 694 l 1215 521 l 1042 521 m 1042 868 l 1042 694 l 868 694 l 868 868 l 1042 868 m 694 1215 l 694 1042 l 868 1042 l 868 868 l 694 868 l 694 -174 l 521 -174 l 521 868 l 347 868 l 347 1042 l 521 1042 l 521 1215 l 694 1215 m 174 694 l 174 868 l 347 868 l 347 694 l 174 694 m 0 694 l 174 694 l 174 521 l 0 521 l 0 694 z "},"→":{"ha":1215,"x_min":0,"x_max":1215,"o":"m 868 174 l 694 174 l 694 347 l 868 347 l 868 174 m 1042 521 l 1042 347 l 868 347 l 868 521 l 0 521 l 0 694 l 868 694 l 868 868 l 1042 868 l 1042 694 l 1215 694 l 1215 521 l 1042 521 m 694 174 l 694 0 l 521 0 l 521 174 l 694 174 m 694 1215 l 694 1042 l 521 1042 l 521 1215 l 694 1215 m 694 868 l 694 1042 l 868 1042 l 868 868 l 694 868 z "},"↓":{"ha":1215,"x_min":0,"x_max":1215,"o":"m 868 174 l 868 0 l 694 0 l 694 -174 l 521 -174 l 521 0 l 347 0 l 347 174 l 521 174 l 521 1215 l 694 1215 l 694 174 l 868 174 m 1042 521 l 1215 521 l 1215 347 l 1042 347 l 1042 521 m 1042 347 l 1042 174 l 868 174 l 868 347 l 1042 347 m 174 174 l 174 347 l 347 347 l 347 174 l 174 174 m 0 347 l 0 521 l 174 521 l 174 347 l 0 347 z "},"↲":{"ha":1215,"x_min":0,"x_max":1215,"o":"m 174 0 l 174 174 l 0 174 l 0 347 l 174 347 l 174 521 l 347 521 l 347 694 l 521 694 l 521 347 l 1042 347 l 1042 1215 l 1215 1215 l 1215 174 l 521 174 l 521 -174 l 347 -174 l 347 0 l 174 0 z "},"↵":{"ha":1215,"x_min":0,"x_max":1215,"o":"m 174 0 l 174 174 l 0 174 l 0 347 l 174 347 l 174 521 l 347 521 l 347 694 l 521 694 l 521 347 l 1042 347 l 1042 1215 l 1215 1215 l 1215 174 l 521 174 l 521 -174 l 347 -174 l 347 0 l 174 0 z "},"∂":{"ha":1215,"x_min":174,"x_max":1042,"o":"m 868 174 l 868 521 l 1042 521 l 1042 174 l 868 174 m 347 0 l 347 174 l 868 174 l 868 0 l 347 0 m 521 868 l 521 1042 l 694 1042 l 694 868 l 521 868 m 174 174 l 174 521 l 347 521 l 347 174 l 174 174 m 347 1215 l 521 1215 l 521 1042 l 347 1042 l 347 1215 m 868 521 l 347 521 l 347 694 l 694 694 l 694 868 l 868 868 l 868 521 z "},"∆":{"ha":1215,"x_min":174,"x_max":1042,"o":"m 868 174 l 868 347 l 1042 347 l 1042 0 l 174 0 l 174 347 l 347 347 l 347 174 l 868 174 m 694 1215 l 694 868 l 521 868 l 521 1215 l 694 1215 m 521 868 l 521 347 l 347 347 l 347 868 l 521 868 m 694 868 l 868 868 l 868 347 l 694 347 l 694 868 z "},"∇":{"ha":1215,"x_min":174,"x_max":1042,"o":"m 1042 868 l 868 868 l 868 1042 l 347 1042 l 347 868 l 174 868 l 174 1215 l 1042 1215 l 1042 868 m 521 868 l 521 347 l 347 347 l 347 868 l 521 868 m 694 0 l 521 0 l 521 347 l 694 347 l 694 0 m 694 868 l 868 868 l 868 347 l 694 347 l 694 868 z "},"∏":{"ha":1215,"x_min":0,"x_max":1215,"o":"m 0 0 l 174 0 l 174 1042 l 0 1042 l 0 1215 l 1215 1215 l 1215 1042 l 1042 1042 l 1042 0 l 1215 0 l 1215 -174 l 694 -174 l 694 0 l 868 0 l 868 1042 l 347 1042 l 347 0 l 521 0 l 521 -174 l 0 -174 l 0 0 z "},"∐":{"ha":1215,"x_min":0,"x_max":1215,"o":"m 0 0 l 174 0 l 174 1042 l 0 1042 l 0 1215 l 521 1215 l 521 1042 l 347 1042 l 347 0 l 868 0 l 868 1042 l 694 1042 l 694 1215 l 1215 1215 l 1215 1042 l 1042 1042 l 1042 0 l 1215 0 l 1215 -174 l 0 -174 l 0 0 z "},"∑":{"ha":1215,"x_min":0,"x_max":1215,"o":"m 0 0 l 174 0 l 174 174 l 347 174 l 347 0 l 1042 0 l 1042 174 l 1215 174 l 1215 -174 l 0 -174 l 0 0 m 1042 868 l 1042 1042 l 347 1042 l 347 868 l 174 868 l 174 1042 l 0 1042 l 0 1215 l 1215 1215 l 1215 868 l 1042 868 m 521 868 l 521 694 l 347 694 l 347 868 l 521 868 m 347 347 l 521 347 l 521 174 l 347 174 l 347 347 m 694 694 l 694 347 l 521 347 l 521 694 l 694 694 z "},"−":{"ha":1215,"x_min":174,"x_max":1042,"o":"m 174 694 l 1042 694 l 1042 521 l 174 521 l 174 694 z "},"∕":{"ha":1215,"x_min":174,"x_max":1042,"o":"m 1042 868 l 868 868 l 868 1042 l 1042 1042 l 1042 868 m 521 521 l 521 347 l 347 347 l 347 521 l 521 521 m 174 174 l 174 347 l 347 347 l 347 174 l 174 174 m 521 694 l 694 694 l 694 521 l 521 521 l 521 694 m 694 868 l 868 868 l 868 694 l 694 694 l 694 868 z "},"√":{"ha":1215,"x_min":0,"x_max":1215,"o":"m 1042 868 l 1042 1042 l 1215 1042 l 1215 868 l 1042 868 m 521 521 l 694 521 l 694 347 l 521 347 l 521 521 m 347 0 l 347 347 l 521 347 l 521 0 l 347 0 m 1042 694 l 868 694 l 868 868 l 1042 868 l 1042 694 m 868 521 l 694 521 l 694 694 l 868 694 l 868 521 m 174 347 l 174 521 l 0 521 l 0 694 l 347 694 l 347 347 l 174 347 z "},"∛":{"ha":1215,"x_min":0,"x_max":1215,"o":"m 1042 868 l 1042 1042 l 1215 1042 l 1215 868 l 1042 868 m 694 1215 l 694 694 l 347 694 l 347 868 l 521 868 l 521 1042 l 347 1042 l 347 1215 l 694 1215 m 521 521 l 694 521 l 694 347 l 521 347 l 521 521 m 347 0 l 347 347 l 521 347 l 521 0 l 347 0 m 868 521 l 694 521 l 694 694 l 868 694 l 868 521 m 0 694 l 347 694 l 347 347 l 174 347 l 174 521 l 0 521 l 0 694 m 868 868 l 1042 868 l 1042 694 l 868 694 l 868 868 z "},"∜":{"ha":1215,"x_min":0,"x_max":1215,"o":"m 1042 868 l 1042 1042 l 1215 1042 l 1215 868 l 1042 868 m 521 521 l 694 521 l 694 347 l 521 347 l 521 521 m 347 0 l 347 347 l 521 347 l 521 0 l 347 0 m 521 868 l 347 868 l 347 1215 l 521 1215 l 521 1042 l 694 1042 l 694 694 l 521 694 l 521 868 m 868 521 l 694 521 l 694 694 l 868 694 l 868 521 m 0 694 l 347 694 l 347 347 l 174 347 l 174 521 l 0 521 l 0 694 m 868 868 l 1042 868 l 1042 694 l 868 694 l 868 868 z "},"∝":{"ha":1215,"x_min":174,"x_max":1042,"o":"m 1042 521 l 1042 347 l 868 347 l 868 521 l 1042 521 m 1042 868 l 1042 694 l 868 694 l 868 868 l 1042 868 m 868 521 l 694 521 l 694 694 l 868 694 l 868 521 m 694 868 l 694 694 l 347 694 l 347 868 l 694 868 m 174 694 l 347 694 l 347 521 l 174 521 l 174 694 m 694 521 l 694 347 l 347 347 l 347 521 l 694 521 z "},"∞":{"ha":1215,"x_min":0,"x_max":1215,"o":"m 1042 521 l 1042 347 l 694 347 l 694 521 l 1042 521 m 1215 694 l 1215 521 l 1042 521 l 1042 694 l 1215 694 m 1042 868 l 1042 694 l 694 694 l 694 868 l 1042 868 m 521 521 l 521 347 l 174 347 l 174 521 l 521 521 m 521 868 l 521 694 l 174 694 l 174 868 l 521 868 m 521 694 l 694 694 l 694 521 l 521 521 l 521 694 m 174 694 l 174 521 l 0 521 l 0 694 l 174 694 z "},"∫":{"ha":1215,"x_min":174,"x_max":1042,"o":"m 1042 1215 l 1042 1042 l 694 1042 l 694 1215 l 1042 1215 m 174 0 l 521 0 l 521 -174 l 174 -174 l 174 0 m 694 0 l 521 0 l 521 1042 l 694 1042 l 694 0 z "},"∬":{"ha":1215,"x_min":174,"x_max":1215,"o":"m 174 -174 l 174 0 l 347 0 l 347 -174 l 174 -174 m 694 1215 l 694 1042 l 521 1042 l 521 1215 l 694 1215 m 1215 1042 l 1042 1042 l 1042 1215 l 1215 1215 l 1215 1042 m 347 0 l 347 1042 l 521 1042 l 521 0 l 347 0 m 868 -174 l 694 -174 l 694 0 l 868 0 l 868 -174 m 1042 1042 l 1042 0 l 868 0 l 868 1042 l 1042 1042 z "},"∭":{"ha":1215,"x_min":0,"x_max":1215,"o":"m 0 0 l 174 0 l 174 -174 l 0 -174 l 0 0 m 694 1215 l 868 1215 l 868 1042 l 694 1042 l 694 1215 m 347 0 l 174 0 l 174 1042 l 347 1042 l 347 0 m 868 -174 l 694 -174 l 694 0 l 868 0 l 868 -174 m 1042 1042 l 1042 1215 l 1215 1215 l 1215 1042 l 1042 1042 m 694 0 l 521 0 l 521 1042 l 694 1042 l 694 0 m 347 1215 l 521 1215 l 521 1042 l 347 1042 l 347 1215 m 868 1042 l 1042 1042 l 1042 0 l 868 0 l 868 1042 m 521 -174 l 347 -174 l 347 0 l 521 0 l 521 -174 z "},"≈":{"ha":1215,"x_min":174,"x_max":1042,"o":"m 868 174 l 521 174 l 521 347 l 347 347 l 347 521 l 694 521 l 694 347 l 868 347 l 868 174 m 1042 521 l 1042 347 l 868 347 l 868 521 l 1042 521 m 1042 868 l 868 868 l 868 1042 l 1042 1042 l 1042 868 m 521 868 l 347 868 l 347 1042 l 694 1042 l 694 868 l 868 868 l 868 694 l 521 694 l 521 868 m 174 174 l 174 347 l 347 347 l 347 174 l 174 174 m 347 694 l 174 694 l 174 868 l 347 868 l 347 694 z "},"≉":{"ha":1215,"x_min":174,"x_max":1042,"o":"m 868 174 l 521 174 l 521 347 l 347 347 l 347 521 l 521 521 l 521 868 l 347 868 l 347 1042 l 694 1042 l 694 868 l 868 868 l 868 694 l 694 694 l 694 347 l 868 347 l 868 174 m 1042 521 l 1042 347 l 868 347 l 868 521 l 1042 521 m 1042 868 l 868 868 l 868 1042 l 1042 1042 l 1042 868 m 694 1215 l 868 1215 l 868 1042 l 694 1042 l 694 1215 m 347 0 l 347 174 l 521 174 l 521 0 l 347 0 m 174 174 l 174 347 l 347 347 l 347 174 l 174 174 m 347 694 l 174 694 l 174 868 l 347 868 l 347 694 z "},"≠":{"ha":1215,"x_min":174,"x_max":1042,"o":"m 1042 521 l 1042 347 l 521 347 l 521 174 l 347 174 l 347 347 l 174 347 l 174 521 l 521 521 l 521 694 l 174 694 l 174 868 l 694 868 l 694 1042 l 868 1042 l 868 868 l 1042 868 l 1042 694 l 694 694 l 694 521 l 1042 521 m 347 0 l 174 0 l 174 174 l 347 174 l 347 0 m 1042 1042 l 868 1042 l 868 1215 l 1042 1215 l 1042 1042 z "},"≡":{"ha":1215,"x_min":174,"x_max":1042,"o":"m 1042 521 l 174 521 l 174 694 l 1042 694 l 1042 521 m 1042 174 l 174 174 l 174 347 l 1042 347 l 1042 174 m 1042 868 l 174 868 l 174 1042 l 1042 1042 l 1042 868 z "},"≢":{"ha":1215,"x_min":174,"x_max":1042,"o":"m 1042 521 l 521 521 l 521 347 l 1042 347 l 1042 174 l 347 174 l 347 0 l 174 0 l 174 347 l 347 347 l 347 521 l 174 521 l 174 694 l 694 694 l 694 868 l 174 868 l 174 1042 l 868 1042 l 868 1215 l 1042 1215 l 1042 868 l 868 868 l 868 694 l 1042 694 l 1042 521 z "},"≣":{"ha":1215,"x_min":174,"x_max":1042,"o":"m 1042 521 l 1042 347 l 174 347 l 174 521 l 1042 521 m 1042 868 l 1042 694 l 174 694 l 174 868 l 1042 868 m 174 0 l 174 174 l 1042 174 l 1042 0 l 174 0 m 1042 1042 l 174 1042 l 174 1215 l 1042 1215 l 1042 1042 z "},"≤":{"ha":1215,"x_min":174,"x_max":868,"o":"m 868 174 l 868 0 l 174 0 l 174 174 l 868 174 m 694 1215 l 694 1042 l 521 1042 l 521 1215 l 694 1215 m 521 521 l 694 521 l 694 347 l 521 347 l 521 521 m 521 868 l 347 868 l 347 1042 l 521 1042 l 521 868 m 521 694 l 521 521 l 347 521 l 347 694 l 521 694 m 174 694 l 174 868 l 347 868 l 347 694 l 174 694 z "},"≥":{"ha":1215,"x_min":347,"x_max":1042,"o":"m 1042 868 l 1042 694 l 868 694 l 868 868 l 1042 868 m 694 1215 l 694 1042 l 521 1042 l 521 1215 l 694 1215 m 521 521 l 694 521 l 694 347 l 521 347 l 521 521 m 347 0 l 347 174 l 1042 174 l 1042 0 l 347 0 m 868 521 l 694 521 l 694 694 l 868 694 l 868 521 m 694 868 l 694 1042 l 868 1042 l 868 868 l 694 868 z "},"⌘":{"ha":1215,"x_min":0,"x_max":1215,"o":"m 868 174 l 868 521 l 1042 521 l 1042 174 l 868 174 m 1215 694 l 1215 521 l 1042 521 l 1042 694 l 1215 694 m 1042 868 l 1042 694 l 694 694 l 694 868 l 1042 868 m 174 -174 l 174 174 l 347 174 l 347 0 l 521 0 l 521 -174 l 174 -174 m 694 1215 l 868 1215 l 868 1042 l 694 1042 l 694 1215 m 521 868 l 521 1042 l 694 1042 l 694 868 l 521 868 m 174 174 l 0 174 l 0 694 l 174 694 l 174 174 m 694 0 l 1042 0 l 1042 -174 l 694 -174 l 694 0 m 1042 174 l 1215 174 l 1215 0 l 1042 0 l 1042 174 m 521 174 l 694 174 l 694 0 l 521 0 l 521 174 m 174 868 l 521 868 l 521 694 l 174 694 l 174 868 z "},"⌛":{"ha":1215,"x_min":0,"x_max":1215,"o":"m 868 174 l 1042 174 l 1042 0 l 1215 0 l 1215 -174 l 0 -174 l 0 0 l 174 0 l 174 174 l 347 174 l 347 0 l 521 0 l 521 174 l 694 174 l 694 0 l 868 0 l 868 174 m 1042 868 l 868 868 l 868 1042 l 347 1042 l 347 868 l 174 868 l 174 1042 l 0 1042 l 0 1215 l 1215 1215 l 1215 1042 l 1042 1042 l 1042 868 m 521 868 l 521 694 l 347 694 l 347 868 l 521 868 m 868 868 l 868 694 l 694 694 l 694 868 l 868 868 m 521 174 l 347 174 l 347 347 l 521 347 l 521 174 m 694 694 l 694 347 l 521 347 l 521 694 l 694 694 m 694 347 l 868 347 l 868 174 l 694 174 l 694 347 z "},"⌥":{"ha":1215,"x_min":0,"x_max":1215,"o":"m 1042 521 l 1042 174 l 1215 174 l 1215 0 l 1042 0 l 1042 -174 l 694 -174 l 694 0 l 521 0 l 521 -174 l 174 -174 l 174 174 l 0 174 l 0 694 l 174 694 l 174 868 l 521 868 l 521 694 l 694 694 l 694 868 l 1042 868 l 1042 694 l 1215 694 l 1215 521 l 1042 521 m 694 1215 l 868 1215 l 868 1042 l 694 1042 l 694 1215 m 521 868 l 521 1042 l 694 1042 l 694 868 l 521 868 z "},"⎯":{"ha":1215,"x_min":0,"x_max":1215,"o":"m 1215 694 l 1215 521 l 0 521 l 0 694 l 1215 694 z "},"⎸":{"ha":1215,"x_min":0,"x_max":174,"o":"m 0 -174 l 0 1215 l 174 1215 l 174 -174 l 0 -174 z "},"⎹":{"ha":1215,"x_min":1042,"x_max":1215,"o":"m 1042 1215 l 1215 1215 l 1215 -174 l 1042 -174 l 1042 1215 z "},"⎺":{"ha":1215,"x_min":0,"x_max":1215,"o":"m 0 1042 l 0 1215 l 1215 1215 l 1215 1042 l 0 1042 z "},"⎻":{"ha":1215,"x_min":0,"x_max":1215,"o":"m 1215 694 l 0 694 l 0 868 l 1215 868 l 1215 694 z "},"⎼":{"ha":1215,"x_min":0,"x_max":1215,"o":"m 0 347 l 1215 347 l 1215 174 l 0 174 l 0 347 z "},"⎽":{"ha":1215,"x_min":0,"x_max":1215,"o":"m 0 0 l 1215 0 l 1215 -174 l 0 -174 l 0 0 z "},"⏎":{"ha":1215,"x_min":0,"x_max":1215,"o":"m 174 0 l 174 174 l 0 174 l 0 347 l 174 347 l 174 521 l 347 521 l 347 694 l 521 694 l 521 347 l 1042 347 l 1042 1215 l 1215 1215 l 1215 174 l 521 174 l 521 -174 l 347 -174 l 347 0 l 174 0 z "},"⏐":{"ha":1215,"x_min":521,"x_max":694,"o":"m 694 1215 l 694 -174 l 521 -174 l 521 1215 l 694 1215 z "},"⏳":{"ha":1215,"x_min":0,"x_max":1215,"o":"m 868 174 l 1042 174 l 1042 0 l 1215 0 l 1215 -174 l 0 -174 l 0 0 l 174 0 l 174 174 l 347 174 l 347 0 l 521 0 l 521 174 l 694 174 l 694 0 l 868 0 l 868 174 m 1042 868 l 868 868 l 868 1042 l 694 1042 l 694 868 l 521 868 l 521 1042 l 347 1042 l 347 868 l 174 868 l 174 1042 l 0 1042 l 0 1215 l 1215 1215 l 1215 1042 l 1042 1042 l 1042 868 m 521 868 l 521 694 l 347 694 l 347 868 l 521 868 m 868 868 l 868 694 l 694 694 l 694 868 l 868 868 m 521 174 l 347 174 l 347 347 l 521 347 l 521 174 m 694 694 l 694 347 l 521 347 l 521 694 l 694 694 m 694 347 l 868 347 l 868 174 l 694 174 l 694 347 z "},"␥":{"ha":1215,"x_min":174,"x_max":1042,"o":"m 868 174 l 868 347 l 1042 347 l 1042 174 l 868 174 m 1042 521 l 868 521 l 868 694 l 1042 694 l 1042 521 m 1042 868 l 868 868 l 868 1042 l 1042 1042 l 1042 868 m 521 521 l 521 347 l 347 347 l 347 521 l 521 521 m 521 868 l 521 1042 l 694 1042 l 694 868 l 521 868 m 174 174 l 174 347 l 347 347 l 347 174 l 174 174 m 868 521 l 868 347 l 694 347 l 694 521 l 868 521 m 868 868 l 868 694 l 694 694 l 694 868 l 868 868 m 174 1042 l 347 1042 l 347 868 l 174 868 l 174 1042 m 521 174 l 521 347 l 694 347 l 694 174 l 521 174 m 347 694 l 347 521 l 174 521 l 174 694 l 347 694 m 694 694 l 694 521 l 521 521 l 521 694 l 694 694 m 521 694 l 347 694 l 347 868 l 521 868 l 521 694 z "},"─":{"ha":1215,"x_min":0,"x_max":1215,"o":"m 1215 694 l 1215 521 l 0 521 l 0 694 l 1215 694 z "},"━":{"ha":1215,"x_min":0,"x_max":1215,"o":"m 1215 694 l 1215 347 l 0 347 l 0 694 l 1215 694 z "},"│":{"ha":1215,"x_min":521,"x_max":694,"o":"m 694 1215 l 694 -174 l 521 -174 l 521 1215 l 694 1215 z "},"┃":{"ha":1215,"x_min":521,"x_max":868,"o":"m 868 1215 l 868 -174 l 521 -174 l 521 1215 l 868 1215 z "},"┄":{"ha":1215,"x_min":0,"x_max":1042,"o":"m 868 521 l 868 694 l 1042 694 l 1042 521 l 868 521 m 694 521 l 521 521 l 521 694 l 694 694 l 694 521 m 0 694 l 347 694 l 347 521 l 0 521 l 0 694 z "},"┅":{"ha":1215,"x_min":0,"x_max":1042,"o":"m 0 347 l 0 694 l 347 694 l 347 347 l 0 347 m 1042 347 l 868 347 l 868 694 l 1042 694 l 1042 347 m 694 694 l 694 347 l 521 347 l 521 694 l 694 694 z "},"┆":{"ha":1215,"x_min":521,"x_max":694,"o":"m 694 868 l 521 868 l 521 1215 l 694 1215 l 694 868 m 694 174 l 694 0 l 521 0 l 521 174 l 694 174 m 694 694 l 694 347 l 521 347 l 521 694 l 694 694 z "},"┇":{"ha":1215,"x_min":521,"x_max":868,"o":"m 868 174 l 868 0 l 521 0 l 521 174 l 868 174 m 868 1215 l 868 868 l 521 868 l 521 1215 l 868 1215 m 868 347 l 521 347 l 521 694 l 868 694 l 868 347 z "},"┈":{"ha":1215,"x_min":0,"x_max":1215,"o":"m 1215 694 l 1215 521 l 1042 521 l 1042 694 l 1215 694 m 521 521 l 347 521 l 347 694 l 521 694 l 521 521 m 868 521 l 694 521 l 694 694 l 868 694 l 868 521 m 174 694 l 174 521 l 0 521 l 0 694 l 174 694 z "},"┉":{"ha":1215,"x_min":0,"x_max":1215,"o":"m 1215 694 l 1215 347 l 1042 347 l 1042 694 l 1215 694 m 521 347 l 347 347 l 347 694 l 521 694 l 521 347 m 174 694 l 174 347 l 0 347 l 0 694 l 174 694 m 868 347 l 694 347 l 694 694 l 868 694 l 868 347 z "},"┊":{"ha":1215,"x_min":521,"x_max":694,"o":"m 694 174 l 694 0 l 521 0 l 521 174 l 694 174 m 694 1215 l 694 1042 l 521 1042 l 521 1215 l 694 1215 m 521 521 l 694 521 l 694 347 l 521 347 l 521 521 m 521 868 l 694 868 l 694 694 l 521 694 l 521 868 z "},"┋":{"ha":1215,"x_min":521,"x_max":868,"o":"m 868 174 l 868 0 l 521 0 l 521 174 l 868 174 m 868 1215 l 868 1042 l 521 1042 l 521 1215 l 868 1215 m 521 521 l 868 521 l 868 347 l 521 347 l 521 521 m 521 868 l 868 868 l 868 694 l 521 694 l 521 868 z "},"┌":{"ha":1215,"x_min":521,"x_max":1215,"o":"m 1215 694 l 1215 521 l 694 521 l 694 -174 l 521 -174 l 521 694 l 1215 694 z "},"┍":{"ha":1215,"x_min":521,"x_max":1215,"o":"m 1215 694 l 1215 347 l 694 347 l 694 -174 l 521 -174 l 521 694 l 1215 694 z "},"┎":{"ha":1215,"x_min":521,"x_max":1215,"o":"m 868 521 l 868 -174 l 521 -174 l 521 694 l 1215 694 l 1215 521 l 868 521 z "},"┏":{"ha":1215,"x_min":521,"x_max":1215,"o":"m 1215 694 l 1215 347 l 868 347 l 868 -174 l 521 -174 l 521 694 l 1215 694 z "},"┐":{"ha":1215,"x_min":0,"x_max":694,"o":"m 0 694 l 694 694 l 694 -174 l 521 -174 l 521 521 l 0 521 l 0 694 z "},"┑":{"ha":1215,"x_min":0,"x_max":694,"o":"m 0 347 l 0 694 l 694 694 l 694 -174 l 521 -174 l 521 347 l 0 347 z "},"┒":{"ha":1215,"x_min":0,"x_max":868,"o":"m 0 694 l 868 694 l 868 -174 l 521 -174 l 521 521 l 0 521 l 0 694 z "},"┓":{"ha":1215,"x_min":0,"x_max":868,"o":"m 0 347 l 0 694 l 868 694 l 868 -174 l 521 -174 l 521 347 l 0 347 z "},"└":{"ha":1215,"x_min":521,"x_max":1215,"o":"m 1215 694 l 1215 521 l 521 521 l 521 1215 l 694 1215 l 694 694 l 1215 694 z "},"┕":{"ha":1215,"x_min":521,"x_max":1215,"o":"m 1215 694 l 1215 347 l 521 347 l 521 1215 l 694 1215 l 694 694 l 1215 694 z "},"┖":{"ha":1215,"x_min":521,"x_max":1215,"o":"m 868 1215 l 868 694 l 1215 694 l 1215 521 l 521 521 l 521 1215 l 868 1215 z "},"┗":{"ha":1215,"x_min":521,"x_max":1215,"o":"m 868 1215 l 868 694 l 1215 694 l 1215 347 l 521 347 l 521 1215 l 868 1215 z "},"┘":{"ha":1215,"x_min":0,"x_max":694,"o":"m 694 521 l 0 521 l 0 694 l 521 694 l 521 1215 l 694 1215 l 694 521 z "},"┙":{"ha":1215,"x_min":0,"x_max":694,"o":"m 0 347 l 0 694 l 521 694 l 521 1215 l 694 1215 l 694 347 l 0 347 z "},"┚":{"ha":1215,"x_min":0,"x_max":868,"o":"m 868 521 l 0 521 l 0 694 l 521 694 l 521 1215 l 868 1215 l 868 521 z "},"┛":{"ha":1215,"x_min":0,"x_max":868,"o":"m 0 347 l 0 694 l 521 694 l 521 1215 l 868 1215 l 868 347 l 0 347 z "},"├":{"ha":1215,"x_min":521,"x_max":1215,"o":"m 1215 694 l 1215 521 l 694 521 l 694 -174 l 521 -174 l 521 1215 l 694 1215 l 694 694 l 1215 694 z "},"┝":{"ha":1215,"x_min":521,"x_max":1215,"o":"m 1215 694 l 1215 347 l 694 347 l 694 -174 l 521 -174 l 521 1215 l 694 1215 l 694 694 l 1215 694 z "},"┞":{"ha":1215,"x_min":521,"x_max":1215,"o":"m 1215 694 l 1215 521 l 694 521 l 694 -174 l 521 -174 l 521 1215 l 868 1215 l 868 694 l 1215 694 z "},"┟":{"ha":1215,"x_min":521,"x_max":1215,"o":"m 868 521 l 868 -174 l 521 -174 l 521 1215 l 694 1215 l 694 694 l 1215 694 l 1215 521 l 868 521 z "},"┠":{"ha":1215,"x_min":521,"x_max":1215,"o":"m 868 521 l 868 -174 l 521 -174 l 521 1215 l 868 1215 l 868 694 l 1215 694 l 1215 521 l 868 521 z "},"┡":{"ha":1215,"x_min":521,"x_max":1215,"o":"m 1215 694 l 1215 347 l 694 347 l 694 -174 l 521 -174 l 521 1215 l 868 1215 l 868 694 l 1215 694 z "},"┢":{"ha":1215,"x_min":521,"x_max":1215,"o":"m 1215 694 l 1215 347 l 868 347 l 868 -174 l 521 -174 l 521 1215 l 694 1215 l 694 694 l 1215 694 z "},"┣":{"ha":1215,"x_min":521,"x_max":1215,"o":"m 1215 694 l 1215 347 l 868 347 l 868 -174 l 521 -174 l 521 1215 l 868 1215 l 868 694 l 1215 694 z "},"┤":{"ha":1215,"x_min":0,"x_max":694,"o":"m 694 1215 l 694 -174 l 521 -174 l 521 521 l 0 521 l 0 694 l 521 694 l 521 1215 l 694 1215 z "},"┥":{"ha":1215,"x_min":0,"x_max":694,"o":"m 0 347 l 0 694 l 521 694 l 521 1215 l 694 1215 l 694 -174 l 521 -174 l 521 347 l 0 347 z "},"┦":{"ha":1215,"x_min":0,"x_max":868,"o":"m 868 521 l 694 521 l 694 -174 l 521 -174 l 521 521 l 0 521 l 0 694 l 521 694 l 521 1215 l 868 1215 l 868 521 z "},"┧":{"ha":1215,"x_min":0,"x_max":868,"o":"m 694 1215 l 694 694 l 868 694 l 868 -174 l 521 -174 l 521 521 l 0 521 l 0 694 l 521 694 l 521 1215 l 694 1215 z "},"┨":{"ha":1215,"x_min":0,"x_max":868,"o":"m 868 1215 l 868 -174 l 521 -174 l 521 521 l 0 521 l 0 694 l 521 694 l 521 1215 l 868 1215 z "},"┩":{"ha":1215,"x_min":0,"x_max":868,"o":"m 0 347 l 0 694 l 521 694 l 521 1215 l 868 1215 l 868 347 l 694 347 l 694 -174 l 521 -174 l 521 347 l 0 347 z "},"┪":{"ha":1215,"x_min":0,"x_max":868,"o":"m 0 347 l 0 694 l 521 694 l 521 1215 l 694 1215 l 694 694 l 868 694 l 868 -174 l 521 -174 l 521 347 l 0 347 z "},"┫":{"ha":1215,"x_min":0,"x_max":868,"o":"m 0 347 l 0 694 l 521 694 l 521 1215 l 868 1215 l 868 -174 l 521 -174 l 521 347 l 0 347 z "},"┬":{"ha":1215,"x_min":0,"x_max":1215,"o":"m 1215 694 l 1215 521 l 694 521 l 694 -174 l 521 -174 l 521 521 l 0 521 l 0 694 l 1215 694 z "},"┭":{"ha":1215,"x_min":0,"x_max":1215,"o":"m 1215 694 l 1215 521 l 694 521 l 694 -174 l 521 -174 l 521 347 l 0 347 l 0 694 l 1215 694 z "},"┮":{"ha":1215,"x_min":0,"x_max":1215,"o":"m 1215 694 l 1215 347 l 694 347 l 694 -174 l 521 -174 l 521 521 l 0 521 l 0 694 l 1215 694 z "},"┯":{"ha":1215,"x_min":0,"x_max":1215,"o":"m 1215 694 l 1215 347 l 694 347 l 694 -174 l 521 -174 l 521 347 l 0 347 l 0 694 l 1215 694 z "},"┰":{"ha":1215,"x_min":0,"x_max":1215,"o":"m 868 521 l 868 -174 l 521 -174 l 521 521 l 0 521 l 0 694 l 1215 694 l 1215 521 l 868 521 z "},"┱":{"ha":1215,"x_min":0,"x_max":1215,"o":"m 868 521 l 868 -174 l 521 -174 l 521 347 l 0 347 l 0 694 l 1215 694 l 1215 521 l 868 521 z "},"┲":{"ha":1215,"x_min":0,"x_max":1215,"o":"m 1215 694 l 1215 347 l 868 347 l 868 -174 l 521 -174 l 521 521 l 0 521 l 0 694 l 1215 694 z "},"┳":{"ha":1215,"x_min":0,"x_max":1215,"o":"m 1215 694 l 1215 347 l 868 347 l 868 -174 l 521 -174 l 521 347 l 0 347 l 0 694 l 1215 694 z "},"┴":{"ha":1215,"x_min":0,"x_max":1215,"o":"m 1215 694 l 1215 521 l 0 521 l 0 694 l 521 694 l 521 1215 l 694 1215 l 694 694 l 1215 694 z "},"┵":{"ha":1215,"x_min":0,"x_max":1215,"o":"m 1215 694 l 1215 521 l 694 521 l 694 347 l 0 347 l 0 694 l 521 694 l 521 1215 l 694 1215 l 694 694 l 1215 694 z "},"┶":{"ha":1215,"x_min":0,"x_max":1215,"o":"m 1215 694 l 1215 347 l 521 347 l 521 521 l 0 521 l 0 694 l 521 694 l 521 1215 l 694 1215 l 694 694 l 1215 694 z "},"┷":{"ha":1215,"x_min":0,"x_max":1215,"o":"m 1215 694 l 1215 347 l 0 347 l 0 694 l 521 694 l 521 1215 l 694 1215 l 694 694 l 1215 694 z "},"┸":{"ha":1215,"x_min":0,"x_max":1215,"o":"m 1215 694 l 1215 521 l 0 521 l 0 694 l 521 694 l 521 1215 l 868 1215 l 868 694 l 1215 694 z "},"┹":{"ha":1215,"x_min":0,"x_max":1215,"o":"m 868 521 l 868 347 l 0 347 l 0 694 l 521 694 l 521 1215 l 868 1215 l 868 694 l 1215 694 l 1215 521 l 868 521 z "},"┺":{"ha":1215,"x_min":0,"x_max":1215,"o":"m 1215 694 l 1215 347 l 521 347 l 521 521 l 0 521 l 0 694 l 521 694 l 521 1215 l 868 1215 l 868 694 l 1215 694 z "},"┻":{"ha":1215,"x_min":0,"x_max":1215,"o":"m 1215 694 l 1215 347 l 0 347 l 0 694 l 521 694 l 521 1215 l 868 1215 l 868 694 l 1215 694 z "},"┼":{"ha":1215,"x_min":0,"x_max":1215,"o":"m 1215 694 l 1215 521 l 694 521 l 694 -174 l 521 -174 l 521 521 l 0 521 l 0 694 l 521 694 l 521 1215 l 694 1215 l 694 694 l 1215 694 z "},"┽":{"ha":1215,"x_min":0,"x_max":1215,"o":"m 1215 694 l 1215 521 l 694 521 l 694 -174 l 521 -174 l 521 347 l 0 347 l 0 694 l 521 694 l 521 1215 l 694 1215 l 694 694 l 1215 694 z "},"┾":{"ha":1215,"x_min":0,"x_max":1215,"o":"m 1215 694 l 1215 347 l 694 347 l 694 -174 l 521 -174 l 521 521 l 0 521 l 0 694 l 521 694 l 521 1215 l 694 1215 l 694 694 l 1215 694 z "},"┿":{"ha":1215,"x_min":0,"x_max":1215,"o":"m 1215 694 l 1215 347 l 694 347 l 694 -174 l 521 -174 l 521 347 l 0 347 l 0 694 l 521 694 l 521 1215 l 694 1215 l 694 694 l 1215 694 z "},"╀":{"ha":1215,"x_min":0,"x_max":1215,"o":"m 1215 694 l 1215 521 l 694 521 l 694 -174 l 521 -174 l 521 521 l 0 521 l 0 694 l 521 694 l 521 1215 l 868 1215 l 868 694 l 1215 694 z "},"╁":{"ha":1215,"x_min":0,"x_max":1215,"o":"m 868 521 l 868 -174 l 521 -174 l 521 521 l 0 521 l 0 694 l 521 694 l 521 1215 l 694 1215 l 694 694 l 1215 694 l 1215 521 l 868 521 z "},"╂":{"ha":1215,"x_min":0,"x_max":1215,"o":"m 868 521 l 868 -174 l 521 -174 l 521 521 l 0 521 l 0 694 l 521 694 l 521 1215 l 868 1215 l 868 694 l 1215 694 l 1215 521 l 868 521 z "},"╃":{"ha":1215,"x_min":0,"x_max":1215,"o":"m 1215 694 l 1215 521 l 868 521 l 868 347 l 694 347 l 694 -174 l 521 -174 l 521 347 l 0 347 l 0 694 l 521 694 l 521 1215 l 868 1215 l 868 694 l 1215 694 z "},"╄":{"ha":1215,"x_min":0,"x_max":1215,"o":"m 1215 694 l 1215 347 l 694 347 l 694 -174 l 521 -174 l 521 521 l 0 521 l 0 694 l 521 694 l 521 1215 l 868 1215 l 868 694 l 1215 694 z "},"╅":{"ha":1215,"x_min":0,"x_max":1215,"o":"m 868 521 l 868 -174 l 521 -174 l 521 347 l 0 347 l 0 694 l 521 694 l 521 1215 l 694 1215 l 694 694 l 1215 694 l 1215 521 l 868 521 z "},"╆":{"ha":1215,"x_min":0,"x_max":1215,"o":"m 1215 694 l 1215 347 l 868 347 l 868 -174 l 521 -174 l 521 521 l 0 521 l 0 694 l 521 694 l 521 1215 l 694 1215 l 694 694 l 1215 694 z "},"╇":{"ha":1215,"x_min":0,"x_max":1215,"o":"m 1215 694 l 1215 347 l 694 347 l 694 -174 l 521 -174 l 521 347 l 0 347 l 0 694 l 521 694 l 521 1215 l 868 1215 l 868 694 l 1215 694 z "},"╈":{"ha":1215,"x_min":0,"x_max":1215,"o":"m 1215 694 l 1215 347 l 868 347 l 868 -174 l 521 -174 l 521 347 l 0 347 l 0 694 l 521 694 l 521 1215 l 694 1215 l 694 694 l 1215 694 z "},"╉":{"ha":1215,"x_min":0,"x_max":1215,"o":"m 868 521 l 868 -174 l 521 -174 l 521 347 l 0 347 l 0 694 l 521 694 l 521 1215 l 868 1215 l 868 694 l 1215 694 l 1215 521 l 868 521 z "},"╊":{"ha":1215,"x_min":0,"x_max":1215,"o":"m 1215 694 l 1215 347 l 868 347 l 868 -174 l 521 -174 l 521 521 l 0 521 l 0 694 l 521 694 l 521 1215 l 868 1215 l 868 694 l 1215 694 z "},"╋":{"ha":1215,"x_min":0,"x_max":1215,"o":"m 1215 694 l 1215 347 l 868 347 l 868 -174 l 521 -174 l 521 347 l 0 347 l 0 694 l 521 694 l 521 1215 l 868 1215 l 868 694 l 1215 694 z "},"╌":{"ha":1215,"x_min":0,"x_max":1042,"o":"m 1042 521 l 694 521 l 694 694 l 1042 694 l 1042 521 m 0 694 l 521 694 l 521 521 l 0 521 l 0 694 z "},"╍":{"ha":1215,"x_min":0,"x_max":1042,"o":"m 0 347 l 0 694 l 521 694 l 521 347 l 0 347 m 1042 347 l 694 347 l 694 694 l 1042 694 l 1042 347 z "},"╎":{"ha":1215,"x_min":521,"x_max":694,"o":"m 694 521 l 694 0 l 521 0 l 521 521 l 694 521 m 694 1215 l 694 694 l 521 694 l 521 1215 l 694 1215 z "},"╏":{"ha":1215,"x_min":521,"x_max":868,"o":"m 868 521 l 868 0 l 521 0 l 521 521 l 868 521 m 868 1215 l 868 694 l 521 694 l 521 1215 l 868 1215 z "},"═":{"ha":1215,"x_min":0,"x_max":1215,"o":"m 1215 694 l 0 694 l 0 868 l 1215 868 l 1215 694 m 0 347 l 0 521 l 1215 521 l 1215 347 l 0 347 z "},"║":{"ha":1215,"x_min":347,"x_max":868,"o":"m 868 1215 l 868 -174 l 694 -174 l 694 1215 l 868 1215 m 347 -174 l 347 1215 l 521 1215 l 521 -174 l 347 -174 z "},"╒":{"ha":1215,"x_min":521,"x_max":1215,"o":"m 1215 694 l 694 694 l 694 521 l 1215 521 l 1215 347 l 694 347 l 694 -174 l 521 -174 l 521 868 l 1215 868 l 1215 694 z "},"╓":{"ha":1215,"x_min":347,"x_max":1215,"o":"m 868 521 l 868 -174 l 694 -174 l 694 521 l 521 521 l 521 -174 l 347 -174 l 347 694 l 1215 694 l 1215 521 l 868 521 z "},"╔":{"ha":1215,"x_min":347,"x_max":1215,"o":"m 1215 694 l 521 694 l 521 -174 l 347 -174 l 347 868 l 1215 868 l 1215 694 m 694 521 l 1215 521 l 1215 347 l 868 347 l 868 -174 l 694 -174 l 694 521 z "},"╕":{"ha":1215,"x_min":0,"x_max":694,"o":"m 0 347 l 0 521 l 521 521 l 521 694 l 0 694 l 0 868 l 694 868 l 694 -174 l 521 -174 l 521 347 l 0 347 z "},"╖":{"ha":1215,"x_min":0,"x_max":868,"o":"m 694 521 l 521 521 l 521 -174 l 347 -174 l 347 521 l 0 521 l 0 694 l 868 694 l 868 -174 l 694 -174 l 694 521 z "},"╗":{"ha":1215,"x_min":0,"x_max":868,"o":"m 0 347 l 0 521 l 521 521 l 521 -174 l 347 -174 l 347 347 l 0 347 m 868 868 l 868 -174 l 694 -174 l 694 694 l 0 694 l 0 868 l 868 868 z "},"╘":{"ha":1215,"x_min":521,"x_max":1215,"o":"m 1215 694 l 694 694 l 694 521 l 1215 521 l 1215 347 l 521 347 l 521 1215 l 694 1215 l 694 868 l 1215 868 l 1215 694 z "},"╙":{"ha":1215,"x_min":347,"x_max":1215,"o":"m 868 1215 l 868 694 l 1215 694 l 1215 521 l 347 521 l 347 1215 l 521 1215 l 521 694 l 694 694 l 694 1215 l 868 1215 z "},"╚":{"ha":1215,"x_min":347,"x_max":1215,"o":"m 1215 694 l 694 694 l 694 1215 l 868 1215 l 868 868 l 1215 868 l 1215 694 m 1215 347 l 347 347 l 347 1215 l 521 1215 l 521 521 l 1215 521 l 1215 347 z "},"╛":{"ha":1215,"x_min":0,"x_max":694,"o":"m 0 347 l 0 521 l 521 521 l 521 694 l 0 694 l 0 868 l 521 868 l 521 1215 l 694 1215 l 694 347 l 0 347 z "},"╜":{"ha":1215,"x_min":0,"x_max":868,"o":"m 868 521 l 0 521 l 0 694 l 347 694 l 347 1215 l 521 1215 l 521 694 l 694 694 l 694 1215 l 868 1215 l 868 521 z "},"╝":{"ha":1215,"x_min":0,"x_max":868,"o":"m 0 347 l 0 521 l 694 521 l 694 1215 l 868 1215 l 868 347 l 0 347 m 0 694 l 0 868 l 347 868 l 347 1215 l 521 1215 l 521 694 l 0 694 z "},"╞":{"ha":1215,"x_min":521,"x_max":1215,"o":"m 1215 694 l 694 694 l 694 521 l 1215 521 l 1215 347 l 694 347 l 694 -174 l 521 -174 l 521 1215 l 694 1215 l 694 868 l 1215 868 l 1215 694 z "},"╟":{"ha":1215,"x_min":347,"x_max":1215,"o":"m 868 521 l 868 -174 l 694 -174 l 694 1215 l 868 1215 l 868 694 l 1215 694 l 1215 521 l 868 521 m 347 -174 l 347 1215 l 521 1215 l 521 -174 l 347 -174 z "},"╠":{"ha":1215,"x_min":347,"x_max":1215,"o":"m 1215 694 l 694 694 l 694 1215 l 868 1215 l 868 868 l 1215 868 l 1215 694 m 1215 347 l 868 347 l 868 -174 l 694 -174 l 694 521 l 1215 521 l 1215 347 m 347 -174 l 347 1215 l 521 1215 l 521 -174 l 347 -174 z "},"╡":{"ha":1215,"x_min":0,"x_max":694,"o":"m 0 347 l 0 521 l 521 521 l 521 694 l 0 694 l 0 868 l 521 868 l 521 1215 l 694 1215 l 694 -174 l 521 -174 l 521 347 l 0 347 z "},"╢":{"ha":1215,"x_min":0,"x_max":868,"o":"m 868 1215 l 868 -174 l 694 -174 l 694 1215 l 868 1215 m 0 694 l 347 694 l 347 1215 l 521 1215 l 521 -174 l 347 -174 l 347 521 l 0 521 l 0 694 z "},"╣":{"ha":1215,"x_min":0,"x_max":868,"o":"m 868 1215 l 868 -174 l 694 -174 l 694 1215 l 868 1215 m 521 521 l 521 -174 l 347 -174 l 347 347 l 0 347 l 0 521 l 521 521 m 347 1215 l 521 1215 l 521 694 l 0 694 l 0 868 l 347 868 l 347 1215 z "},"╤":{"ha":1215,"x_min":0,"x_max":1215,"o":"m 1215 694 l 0 694 l 0 868 l 1215 868 l 1215 694 m 0 347 l 0 521 l 1215 521 l 1215 347 l 694 347 l 694 -174 l 521 -174 l 521 347 l 0 347 z "},"╥":{"ha":1215,"x_min":0,"x_max":1215,"o":"m 868 521 l 868 -174 l 694 -174 l 694 521 l 521 521 l 521 -174 l 347 -174 l 347 521 l 0 521 l 0 694 l 1215 694 l 1215 521 l 868 521 z "},"╦":{"ha":1215,"x_min":0,"x_max":1215,"o":"m 1215 694 l 0 694 l 0 868 l 1215 868 l 1215 694 m 1215 347 l 868 347 l 868 -174 l 694 -174 l 694 521 l 1215 521 l 1215 347 m 521 521 l 521 -174 l 347 -174 l 347 347 l 0 347 l 0 521 l 521 521 z "},"╧":{"ha":1215,"x_min":0,"x_max":1215,"o":"m 1215 694 l 0 694 l 0 868 l 521 868 l 521 1215 l 694 1215 l 694 868 l 1215 868 l 1215 694 m 0 347 l 0 521 l 1215 521 l 1215 347 l 0 347 z "},"╨":{"ha":1215,"x_min":0,"x_max":1215,"o":"m 1215 694 l 1215 521 l 0 521 l 0 694 l 347 694 l 347 1215 l 521 1215 l 521 694 l 694 694 l 694 1215 l 868 1215 l 868 694 l 1215 694 z "},"╩":{"ha":1215,"x_min":0,"x_max":1215,"o":"m 1215 694 l 694 694 l 694 1215 l 868 1215 l 868 868 l 1215 868 l 1215 694 m 1215 347 l 0 347 l 0 521 l 1215 521 l 1215 347 m 347 1215 l 521 1215 l 521 694 l 0 694 l 0 868 l 347 868 l 347 1215 z "},"╪":{"ha":1215,"x_min":0,"x_max":1215,"o":"m 1215 694 l 694 694 l 694 521 l 1215 521 l 1215 347 l 694 347 l 694 -174 l 521 -174 l 521 347 l 0 347 l 0 521 l 521 521 l 521 694 l 0 694 l 0 868 l 521 868 l 521 1215 l 694 1215 l 694 868 l 1215 868 l 1215 694 z "},"╫":{"ha":1215,"x_min":0,"x_max":1215,"o":"m 1215 694 l 1215 521 l 868 521 l 868 -174 l 694 -174 l 694 521 l 521 521 l 521 -174 l 347 -174 l 347 521 l 0 521 l 0 694 l 347 694 l 347 1215 l 521 1215 l 521 694 l 694 694 l 694 1215 l 868 1215 l 868 694 l 1215 694 z "},"╬":{"ha":1215,"x_min":0,"x_max":1215,"o":"m 1215 694 l 694 694 l 694 1215 l 868 1215 l 868 868 l 1215 868 l 1215 694 m 1215 347 l 868 347 l 868 -174 l 694 -174 l 694 521 l 1215 521 l 1215 347 m 521 521 l 521 -174 l 347 -174 l 347 347 l 0 347 l 0 521 l 521 521 m 347 1215 l 521 1215 l 521 694 l 0 694 l 0 868 l 347 868 l 347 1215 z "},"╭":{"ha":1215,"x_min":521,"x_max":1215,"o":"m 868 521 l 868 347 l 694 347 l 694 521 l 868 521 m 1215 694 l 1215 521 l 868 521 l 868 694 l 1215 694 m 694 -174 l 521 -174 l 521 347 l 694 347 l 694 -174 z "},"╮":{"ha":1215,"x_min":0,"x_max":694,"o":"m 0 694 l 347 694 l 347 521 l 0 521 l 0 694 m 521 521 l 521 347 l 347 347 l 347 521 l 521 521 m 694 -174 l 521 -174 l 521 347 l 694 347 l 694 -174 z "},"╯":{"ha":1215,"x_min":0,"x_max":694,"o":"m 694 868 l 521 868 l 521 1215 l 694 1215 l 694 868 m 0 694 l 347 694 l 347 521 l 0 521 l 0 694 m 347 694 l 347 868 l 521 868 l 521 694 l 347 694 z "},"╰":{"ha":1215,"x_min":521,"x_max":1215,"o":"m 868 521 l 868 694 l 1215 694 l 1215 521 l 868 521 m 694 868 l 868 868 l 868 694 l 694 694 l 694 868 m 694 1215 l 694 868 l 521 868 l 521 1215 l 694 1215 z "},"╱":{"ha":1215,"x_min":0,"x_max":1215,"o":"m 0 0 l 174 0 l 174 -174 l 0 -174 l 0 0 m 174 0 l 174 174 l 347 174 l 347 0 l 174 0 m 1042 868 l 868 868 l 868 1042 l 1042 1042 l 1042 868 m 1215 1042 l 1042 1042 l 1042 1215 l 1215 1215 l 1215 1042 m 347 174 l 347 347 l 521 347 l 521 174 l 347 174 m 521 347 l 521 694 l 694 694 l 694 347 l 521 347 m 694 868 l 868 868 l 868 694 l 694 694 l 694 868 z "},"╲":{"ha":1215,"x_min":0,"x_max":1215,"o":"m 868 174 l 1042 174 l 1042 0 l 868 0 l 868 174 m 694 174 l 694 347 l 868 347 l 868 174 l 694 174 m 521 868 l 521 694 l 347 694 l 347 868 l 521 868 m 0 1215 l 174 1215 l 174 1042 l 0 1042 l 0 1215 m 521 347 l 521 694 l 694 694 l 694 347 l 521 347 m 1215 -174 l 1042 -174 l 1042 0 l 1215 0 l 1215 -174 m 174 1042 l 347 1042 l 347 868 l 174 868 l 174 1042 z "},"╳":{"ha":1215,"x_min":0,"x_max":1215,"o":"m 0 0 l 174 0 l 174 -174 l 0 -174 l 0 0 m 868 174 l 1042 174 l 1042 0 l 868 0 l 868 174 m 1042 868 l 868 868 l 868 1042 l 1042 1042 l 1042 868 m 347 0 l 174 0 l 174 174 l 347 174 l 347 0 m 521 868 l 521 694 l 347 694 l 347 868 l 521 868 m 1042 1042 l 1042 1215 l 1215 1215 l 1215 1042 l 1042 1042 m 0 1215 l 174 1215 l 174 1042 l 0 1042 l 0 1215 m 1215 0 l 1215 -174 l 1042 -174 l 1042 0 l 1215 0 m 868 868 l 868 694 l 694 694 l 694 868 l 868 868 m 174 1042 l 347 1042 l 347 868 l 174 868 l 174 1042 m 521 174 l 347 174 l 347 347 l 521 347 l 521 174 m 694 694 l 694 347 l 521 347 l 521 694 l 694 694 m 694 347 l 868 347 l 868 174 l 694 174 l 694 347 z "},"╴":{"ha":1215,"x_min":0,"x_max":694,"o":"m 694 521 l 0 521 l 0 694 l 694 694 l 694 521 z "},"╵":{"ha":1215,"x_min":521,"x_max":694,"o":"m 694 521 l 521 521 l 521 1215 l 694 1215 l 694 521 z "},"╶":{"ha":1215,"x_min":521,"x_max":1215,"o":"m 1215 694 l 1215 521 l 521 521 l 521 694 l 1215 694 z "},"╷":{"ha":1215,"x_min":521,"x_max":694,"o":"m 694 694 l 694 -174 l 521 -174 l 521 694 l 694 694 z "},"╸":{"ha":1215,"x_min":0,"x_max":868,"o":"m 0 347 l 0 694 l 868 694 l 868 347 l 0 347 z "},"╹":{"ha":1215,"x_min":521,"x_max":868,"o":"m 868 1215 l 868 347 l 521 347 l 521 1215 l 868 1215 z "},"╺":{"ha":1215,"x_min":521,"x_max":1215,"o":"m 1215 694 l 1215 347 l 521 347 l 521 694 l 1215 694 z "},"╻":{"ha":1215,"x_min":521,"x_max":868,"o":"m 868 -174 l 521 -174 l 521 694 l 868 694 l 868 -174 z "},"╼":{"ha":1215,"x_min":0,"x_max":1215,"o":"m 1215 694 l 1215 347 l 521 347 l 521 521 l 0 521 l 0 694 l 1215 694 z "},"╽":{"ha":1215,"x_min":521,"x_max":868,"o":"m 694 1215 l 694 694 l 868 694 l 868 -174 l 521 -174 l 521 1215 l 694 1215 z "},"╾":{"ha":1215,"x_min":0,"x_max":1215,"o":"m 868 521 l 868 347 l 0 347 l 0 694 l 1215 694 l 1215 521 l 868 521 z "},"╿":{"ha":1215,"x_min":521,"x_max":868,"o":"m 868 1215 l 868 347 l 694 347 l 694 -174 l 521 -174 l 521 1215 l 868 1215 z "},"▀":{"ha":1215,"x_min":0,"x_max":1215,"o":"m 0 521 l 0 1215 l 1215 1215 l 1215 521 l 0 521 z "},"▁":{"ha":1215,"x_min":0,"x_max":1215,"o":"m 0 0 l 1215 0 l 1215 -174 l 0 -174 l 0 0 z "},"▂":{"ha":1215,"x_min":0,"x_max":1215,"o":"m 0 -174 l 0 174 l 1215 174 l 1215 -174 l 0 -174 z "},"▃":{"ha":1215,"x_min":0,"x_max":1215,"o":"m 0 -174 l 0 347 l 1215 347 l 1215 -174 l 0 -174 z "},"▄":{"ha":1215,"x_min":0,"x_max":1215,"o":"m 0 -174 l 0 521 l 1215 521 l 1215 -174 l 0 -174 z "},"▅":{"ha":1215,"x_min":0,"x_max":1215,"o":"m 0 -174 l 0 694 l 1215 694 l 1215 -174 l 0 -174 z "},"▆":{"ha":1215,"x_min":0,"x_max":1215,"o":"m 0 -174 l 0 868 l 1215 868 l 1215 -174 l 0 -174 z "},"▇":{"ha":1215,"x_min":0,"x_max":1215,"o":"m 0 -174 l 0 1042 l 1215 1042 l 1215 -174 l 0 -174 z "},"█":{"ha":1215,"x_min":0,"x_max":1215,"o":"m 0 -174 l 0 1215 l 1215 1215 l 1215 -174 l 0 -174 z "},"▉":{"ha":1215,"x_min":0,"x_max":1042,"o":"m 0 -174 l 0 1215 l 1042 1215 l 1042 -174 l 0 -174 z "},"▊":{"ha":1215,"x_min":0,"x_max":868,"o":"m 0 -174 l 0 1215 l 868 1215 l 868 -174 l 0 -174 z "},"▋":{"ha":1215,"x_min":0,"x_max":694,"o":"m 0 -174 l 0 1215 l 694 1215 l 694 -174 l 0 -174 z "},"▌":{"ha":1215,"x_min":0,"x_max":694,"o":"m 0 -174 l 0 1215 l 694 1215 l 694 -174 l 0 -174 z "},"▍":{"ha":1215,"x_min":0,"x_max":521,"o":"m 0 -174 l 0 1215 l 521 1215 l 521 -174 l 0 -174 z "},"▎":{"ha":1215,"x_min":0,"x_max":347,"o":"m 0 -174 l 0 1215 l 347 1215 l 347 -174 l 0 -174 z "},"▏":{"ha":1215,"x_min":0,"x_max":174,"o":"m 0 -174 l 0 1215 l 174 1215 l 174 -174 l 0 -174 z "},"▐":{"ha":1215,"x_min":521,"x_max":1215,"o":"m 1215 -174 l 521 -174 l 521 1215 l 1215 1215 l 1215 -174 z "},"░":{"ha":1215,"x_min":0,"x_max":1215,"o":"m 1042 521 l 1215 521 l 1215 347 l 1042 347 l 1042 521 m 521 868 l 694 868 l 694 694 l 521 694 l 521 868 m 1042 1042 l 1042 1215 l 1215 1215 l 1215 1042 l 1042 1042 m 694 0 l 521 0 l 521 174 l 694 174 l 694 0 m 347 1215 l 521 1215 l 521 1042 l 347 1042 l 347 1215 m 868 521 l 868 347 l 694 347 l 694 521 l 868 521 m 174 1042 l 0 1042 l 0 1215 l 174 1215 l 174 1042 m 347 347 l 347 521 l 521 521 l 521 347 l 347 347 m 868 1042 l 694 1042 l 694 1215 l 868 1215 l 868 1042 m 174 521 l 174 347 l 0 347 l 0 521 l 174 521 m 868 174 l 1042 174 l 1042 0 l 868 0 l 868 174 m 1042 868 l 1042 694 l 868 694 l 868 868 l 1042 868 m 347 0 l 174 0 l 174 174 l 347 174 l 347 0 m 347 694 l 174 694 l 174 868 l 347 868 l 347 694 z "},"▒":{"ha":1215,"x_min":0,"x_max":1215,"o":"m 0 0 l 174 0 l 174 -174 l 0 -174 l 0 0 m 1042 521 l 1042 347 l 868 347 l 868 521 l 1042 521 m 1215 694 l 1215 521 l 1042 521 l 1042 694 l 1215 694 m 521 868 l 694 868 l 694 694 l 521 694 l 521 868 m 1042 1042 l 1215 1042 l 1215 868 l 1042 868 l 1042 1042 m 694 0 l 868 0 l 868 -174 l 694 -174 l 694 0 m 347 1215 l 347 1042 l 174 1042 l 174 1215 l 347 1215 m 868 521 l 694 521 l 694 694 l 868 694 l 868 521 m 1215 0 l 1215 -174 l 1042 -174 l 1042 0 l 1215 0 m 174 1042 l 174 868 l 0 868 l 0 1042 l 174 1042 m 0 694 l 174 694 l 174 521 l 0 521 l 0 694 m 347 347 l 174 347 l 174 521 l 347 521 l 347 347 m 521 174 l 694 174 l 694 0 l 521 0 l 521 174 m 868 1042 l 868 1215 l 1042 1215 l 1042 1042 l 868 1042 m 521 -174 l 347 -174 l 347 0 l 521 0 l 521 -174 m 694 174 l 694 347 l 868 347 l 868 174 l 694 174 m 1042 347 l 1215 347 l 1215 174 l 1042 174 l 1042 347 m 0 174 l 0 347 l 174 347 l 174 174 l 0 174 m 521 694 l 521 521 l 347 521 l 347 694 l 521 694 m 694 868 l 694 1042 l 868 1042 l 868 868 l 694 868 m 347 1042 l 521 1042 l 521 868 l 347 868 l 347 1042 m 868 174 l 1042 174 l 1042 0 l 868 0 l 868 174 m 1042 868 l 1042 694 l 868 694 l 868 868 l 1042 868 m 694 1215 l 694 1042 l 521 1042 l 521 1215 l 694 1215 m 521 521 l 694 521 l 694 347 l 521 347 l 521 521 m 347 0 l 174 0 l 174 174 l 347 174 l 347 0 m 347 694 l 174 694 l 174 868 l 347 868 l 347 694 m 521 347 l 521 174 l 347 174 l 347 347 l 521 347 z "},"▓":{"ha":1215,"x_min":0,"x_max":1215,"o":"m 1042 521 l 1042 694 l 868 694 l 868 521 l 1042 521 m 521 868 l 521 694 l 694 694 l 694 868 l 521 868 m 1042 1042 l 868 1042 l 868 868 l 1042 868 l 1042 1042 m 694 0 l 694 174 l 521 174 l 521 0 l 694 0 m 174 1042 l 174 868 l 347 868 l 347 1042 l 174 1042 m 347 347 l 174 347 l 174 174 l 347 174 l 347 347 m 174 521 l 347 521 l 347 694 l 174 694 l 174 521 m 0 -174 l 0 1215 l 521 1215 l 521 1042 l 694 1042 l 694 1215 l 1215 1215 l 1215 -174 l 1042 -174 l 1042 0 l 868 0 l 868 -174 l 347 -174 l 347 0 l 174 0 l 174 -174 l 0 -174 m 1042 347 l 868 347 l 868 174 l 1042 174 l 1042 347 m 521 521 l 521 347 l 694 347 l 694 521 l 521 521 z "},"▔":{"ha":1215,"x_min":0,"x_max":1215,"o":"m 0 1042 l 0 1215 l 1215 1215 l 1215 1042 l 0 1042 z "},"▕":{"ha":1215,"x_min":1042,"x_max":1215,"o":"m 1042 1215 l 1215 1215 l 1215 -174 l 1042 -174 l 1042 1215 z "},"◆":{"ha":1215,"x_min":0,"x_max":1215,"o":"m 868 174 l 694 174 l 694 0 l 521 0 l 521 174 l 347 174 l 347 347 l 174 347 l 174 521 l 0 521 l 0 694 l 174 694 l 174 868 l 347 868 l 347 1042 l 521 1042 l 521 1215 l 694 1215 l 694 1042 l 868 1042 l 868 868 l 1042 868 l 1042 694 l 1215 694 l 1215 521 l 1042 521 l 1042 347 l 868 347 l 868 174 z "},"◇":{"ha":1215,"x_min":0,"x_max":1215,"o":"m 868 174 l 694 174 l 694 347 l 868 347 l 868 174 m 1042 521 l 1042 347 l 868 347 l 868 521 l 1042 521 m 1215 694 l 1215 521 l 1042 521 l 1042 694 l 1215 694 m 1042 868 l 1042 694 l 868 694 l 868 868 l 1042 868 m 694 1215 l 694 1042 l 521 1042 l 521 1215 l 694 1215 m 521 868 l 347 868 l 347 1042 l 521 1042 l 521 868 m 694 0 l 521 0 l 521 174 l 694 174 l 694 0 m 868 868 l 694 868 l 694 1042 l 868 1042 l 868 868 m 0 694 l 174 694 l 174 521 l 0 521 l 0 694 m 521 174 l 347 174 l 347 347 l 521 347 l 521 174 m 347 347 l 174 347 l 174 521 l 347 521 l 347 347 m 347 694 l 174 694 l 174 868 l 347 868 l 347 694 z "},"◈":{"ha":1215,"x_min":0,"x_max":1215,"o":"m 868 174 l 694 174 l 694 347 l 868 347 l 868 174 m 1215 694 l 1215 521 l 1042 521 l 1042 694 l 1215 694 m 1042 521 l 1042 347 l 868 347 l 868 521 l 1042 521 m 1042 868 l 1042 694 l 868 694 l 868 868 l 1042 868 m 694 1215 l 694 1042 l 521 1042 l 521 1215 l 694 1215 m 521 521 l 347 521 l 347 694 l 521 694 l 521 868 l 694 868 l 694 694 l 868 694 l 868 521 l 694 521 l 694 347 l 521 347 l 521 521 m 521 868 l 347 868 l 347 1042 l 521 1042 l 521 868 m 694 0 l 521 0 l 521 174 l 694 174 l 694 0 m 868 868 l 694 868 l 694 1042 l 868 1042 l 868 868 m 0 694 l 174 694 l 174 521 l 0 521 l 0 694 m 521 174 l 347 174 l 347 347 l 521 347 l 521 174 m 347 347 l 174 347 l 174 521 l 347 521 l 347 347 m 347 694 l 174 694 l 174 868 l 347 868 l 347 694 z "},"◊":{"ha":1215,"x_min":174,"x_max":1042,"o":"m 868 174 l 694 174 l 694 521 l 868 521 l 868 174 m 1042 521 l 868 521 l 868 694 l 1042 694 l 1042 521 m 694 174 l 694 0 l 521 0 l 521 174 l 694 174 m 694 1215 l 694 1042 l 521 1042 l 521 1215 l 694 1215 m 521 521 l 521 174 l 347 174 l 347 521 l 521 521 m 521 1042 l 521 694 l 347 694 l 347 1042 l 521 1042 m 174 694 l 347 694 l 347 521 l 174 521 l 174 694 m 694 694 l 694 1042 l 868 1042 l 868 694 l 694 694 z "},"♡":{"ha":1215,"x_min":0,"x_max":1215,"o":"m 868 174 l 694 174 l 694 347 l 868 347 l 868 174 m 1042 521 l 1042 868 l 1215 868 l 1215 521 l 1042 521 m 1042 868 l 694 868 l 694 1042 l 1042 1042 l 1042 868 m 521 868 l 694 868 l 694 694 l 521 694 l 521 868 m 694 0 l 521 0 l 521 174 l 694 174 l 694 0 m 521 1042 l 521 868 l 174 868 l 174 1042 l 521 1042 m 868 521 l 1042 521 l 1042 347 l 868 347 l 868 521 m 521 174 l 347 174 l 347 347 l 521 347 l 521 174 m 347 347 l 174 347 l 174 521 l 347 521 l 347 347 m 174 868 l 174 521 l 0 521 l 0 868 l 174 868 z "},"♢":{"ha":1215,"x_min":0,"x_max":1215,"o":"m 868 174 l 694 174 l 694 347 l 868 347 l 868 174 m 1042 521 l 1042 347 l 868 347 l 868 521 l 1042 521 m 1215 694 l 1215 521 l 1042 521 l 1042 694 l 1215 694 m 1042 868 l 1042 694 l 868 694 l 868 868 l 1042 868 m 694 1215 l 694 1042 l 521 1042 l 521 1215 l 694 1215 m 521 868 l 347 868 l 347 1042 l 521 1042 l 521 868 m 694 0 l 521 0 l 521 174 l 694 174 l 694 0 m 868 868 l 694 868 l 694 1042 l 868 1042 l 868 868 m 0 694 l 174 694 l 174 521 l 0 521 l 0 694 m 521 174 l 347 174 l 347 347 l 521 347 l 521 174 m 347 347 l 174 347 l 174 521 l 347 521 l 347 347 m 347 694 l 174 694 l 174 868 l 347 868 l 347 694 z "},"♥":{"ha":1215,"x_min":0,"x_max":1215,"o":"m 868 174 l 694 174 l 694 0 l 521 0 l 521 174 l 347 174 l 347 347 l 174 347 l 174 521 l 0 521 l 0 868 l 174 868 l 174 1042 l 521 1042 l 521 868 l 694 868 l 694 1042 l 1042 1042 l 1042 868 l 1215 868 l 1215 521 l 1042 521 l 1042 347 l 868 347 l 868 174 z "},"♦":{"ha":1215,"x_min":0,"x_max":1215,"o":"m 868 174 l 694 174 l 694 0 l 521 0 l 521 174 l 347 174 l 347 347 l 174 347 l 174 521 l 0 521 l 0 694 l 174 694 l 174 868 l 347 868 l 347 1042 l 521 1042 l 521 1215 l 694 1215 l 694 1042 l 868 1042 l 868 868 l 1042 868 l 1042 694 l 1215 694 l 1215 521 l 1042 521 l 1042 347 l 868 347 l 868 174 z "},"✓":{"ha":1215,"x_min":0,"x_max":1215,"o":"m 1042 868 l 1042 1042 l 1215 1042 l 1215 868 l 1042 868 m 521 521 l 694 521 l 694 347 l 521 347 l 521 521 m 347 0 l 347 347 l 521 347 l 521 0 l 347 0 m 1042 694 l 868 694 l 868 868 l 1042 868 l 1042 694 m 868 521 l 694 521 l 694 694 l 868 694 l 868 521 m 174 694 l 174 521 l 0 521 l 0 694 l 174 694 m 174 347 l 174 521 l 347 521 l 347 347 l 174 347 z "},"":{"ha":1215,"x_min":0,"x_max":1215,"o":"m 868 174 l 868 521 l 1042 521 l 1042 174 l 868 174 m 1215 694 l 1215 521 l 1042 521 l 1042 694 l 1215 694 m 1042 868 l 1042 694 l 694 694 l 694 868 l 1042 868 m 174 -174 l 174 174 l 347 174 l 347 0 l 521 0 l 521 -174 l 174 -174 m 694 1215 l 868 1215 l 868 1042 l 694 1042 l 694 1215 m 521 868 l 521 1042 l 694 1042 l 694 868 l 521 868 m 174 174 l 0 174 l 0 694 l 174 694 l 174 174 m 694 0 l 1042 0 l 1042 -174 l 694 -174 l 694 0 m 1042 174 l 1215 174 l 1215 0 l 1042 0 l 1042 174 m 521 174 l 694 174 l 694 0 l 521 0 l 521 174 m 174 868 l 521 868 l 521 694 l 174 694 l 174 868 z "},"":{"ha":1215,"x_min":0,"x_max":1215,"o":"m 0 0 l 0 174 l 694 174 l 694 347 l 521 347 l 521 521 l 694 521 l 694 694 l 174 694 l 174 868 l 868 868 l 868 1042 l 694 1042 l 694 1215 l 1215 1215 l 1215 694 l 1042 694 l 1042 521 l 1215 521 l 1215 347 l 1042 347 l 1042 0 l 347 0 l 347 -174 l 174 -174 l 174 0 l 0 0 m 0 347 l 0 694 l 174 694 l 174 347 l 0 347 z "},"":{"ha":1215,"x_min":0,"x_max":1215,"o":"m 521 521 l 521 347 l 694 347 l 694 0 l 521 0 l 521 174 l 347 174 l 347 347 l 0 347 l 0 521 l 521 521 m 521 868 l 521 1042 l 868 1042 l 868 868 l 521 868 m 694 0 l 1215 0 l 1215 -174 l 694 -174 l 694 0 m 521 694 l 0 694 l 0 868 l 521 868 l 521 694 z "},"":{"ha":1215,"x_min":174,"x_max":1042,"o":"m 174 0 l 174 694 l 347 694 l 347 521 l 868 521 l 868 694 l 1042 694 l 1042 0 l 868 0 l 868 347 l 347 347 l 347 0 l 174 0 m 694 1215 l 694 1042 l 521 1042 l 521 1215 l 694 1215 m 868 868 l 868 694 l 347 694 l 347 868 l 868 868 z "},"":{"ha":1215,"x_min":174,"x_max":1042,"o":"m 868 174 l 868 347 l 347 347 l 347 521 l 868 521 l 868 694 l 1042 694 l 1042 0 l 347 0 l 347 174 l 868 174 m 694 1215 l 694 1042 l 521 1042 l 521 1215 l 694 1215 m 174 174 l 174 347 l 347 347 l 347 174 l 174 174 m 868 868 l 868 694 l 347 694 l 347 868 l 868 868 z "},"":{"ha":1215,"x_min":174,"x_max":1042,"o":"m 868 174 l 694 174 l 694 347 l 347 347 l 347 521 l 1042 521 l 1042 347 l 868 347 l 868 174 m 1042 868 l 347 868 l 347 1042 l 1042 1042 l 1042 868 m 694 174 l 694 0 l 521 0 l 521 174 l 694 174 m 174 868 l 347 868 l 347 521 l 174 521 l 174 868 z "},"":{"ha":1215,"x_min":174,"x_max":1042,"o":"m 868 174 l 868 694 l 1042 694 l 1042 -174 l 868 -174 l 868 0 l 694 0 l 694 174 l 868 174 m 174 0 l 174 694 l 347 694 l 347 0 l 174 0 m 347 0 l 694 0 l 694 -174 l 347 -174 l 347 0 m 521 868 l 694 868 l 694 694 l 521 694 l 521 868 m 521 1042 l 521 868 l 347 868 l 347 1042 l 521 1042 z "},"":{"ha":1215,"x_min":0,"x_max":1215,"o":"m 0 -174 l 0 521 l 174 521 l 174 347 l 347 347 l 347 0 l 521 0 l 521 347 l 694 347 l 694 521 l 868 521 l 868 694 l 1042 694 l 1042 868 l 868 868 l 868 694 l 694 694 l 694 521 l 521 521 l 521 347 l 347 347 l 347 694 l 0 694 l 0 1215 l 1215 1215 l 1215 -174 l 0 -174 z "},"":{"ha":1215,"x_min":0,"x_max":0,"o":""},"":{"ha":1215,"x_min":521,"x_max":694,"o":"m 694 174 l 694 0 l 521 0 l 521 174 l 694 174 m 694 1215 l 694 347 l 521 347 l 521 1215 l 694 1215 z "},"":{"ha":1215,"x_min":347,"x_max":868,"o":"m 868 1215 l 868 694 l 694 694 l 694 1215 l 868 1215 m 521 1215 l 521 694 l 347 694 l 347 1215 l 521 1215 z "},"":{"ha":1215,"x_min":174,"x_max":1042,"o":"m 1042 521 l 1042 347 l 868 347 l 868 0 l 694 0 l 694 347 l 521 347 l 521 0 l 347 0 l 347 347 l 174 347 l 174 521 l 347 521 l 347 694 l 174 694 l 174 868 l 347 868 l 347 1215 l 521 1215 l 521 868 l 694 868 l 694 1215 l 868 1215 l 868 868 l 1042 868 l 1042 694 l 868 694 l 868 521 l 1042 521 m 521 521 l 694 521 l 694 694 l 521 694 l 521 521 z "},"":{"ha":1215,"x_min":174,"x_max":1042,"o":"m 868 174 l 694 174 l 694 0 l 521 0 l 521 174 l 174 174 l 174 347 l 521 347 l 521 521 l 347 521 l 347 694 l 521 694 l 521 868 l 347 868 l 347 1042 l 521 1042 l 521 1215 l 694 1215 l 694 1042 l 1042 1042 l 1042 868 l 694 868 l 694 694 l 868 694 l 868 521 l 694 521 l 694 347 l 868 347 l 868 174 m 1042 521 l 1042 347 l 868 347 l 868 521 l 1042 521 m 347 694 l 174 694 l 174 868 l 347 868 l 347 694 z "},"":{"ha":1215,"x_min":174,"x_max":1042,"o":"m 1042 868 l 868 868 l 868 1042 l 1042 1042 l 1042 868 m 521 521 l 521 347 l 347 347 l 347 521 l 521 521 m 521 868 l 174 868 l 174 1215 l 521 1215 l 521 868 m 1042 347 l 1042 0 l 694 0 l 694 347 l 1042 347 m 174 174 l 174 347 l 347 347 l 347 174 l 174 174 m 521 694 l 694 694 l 694 521 l 521 521 l 521 694 m 694 868 l 868 868 l 868 694 l 694 694 l 694 868 z "},"":{"ha":1215,"x_min":174,"x_max":1042,"o":"m 868 174 l 1042 174 l 1042 0 l 868 0 l 868 174 m 1042 521 l 1042 347 l 868 347 l 868 521 l 1042 521 m 521 521 l 694 521 l 694 347 l 521 347 l 521 521 m 347 0 l 347 174 l 694 174 l 694 0 l 347 0 m 174 174 l 174 521 l 347 521 l 347 174 l 174 174 m 347 1215 l 521 1215 l 521 1042 l 347 1042 l 347 1215 m 521 1042 l 694 1042 l 694 694 l 521 694 l 521 1042 m 174 1042 l 347 1042 l 347 694 l 174 694 l 174 1042 m 347 694 l 521 694 l 521 521 l 347 521 l 347 694 m 694 347 l 868 347 l 868 174 l 694 174 l 694 347 z "},"":{"ha":1215,"x_min":521,"x_max":694,"o":"m 694 1215 l 694 694 l 521 694 l 521 1215 l 694 1215 z "},"":{"ha":1215,"x_min":174,"x_max":694,"o":"m 694 174 l 694 0 l 521 0 l 521 174 l 694 174 m 694 1215 l 694 1042 l 521 1042 l 521 1215 l 694 1215 m 521 868 l 347 868 l 347 1042 l 521 1042 l 521 868 m 521 347 l 521 174 l 347 174 l 347 347 l 521 347 m 174 347 l 174 868 l 347 868 l 347 347 l 174 347 z "},"":{"ha":1215,"x_min":521,"x_max":1042,"o":"m 868 174 l 694 174 l 694 347 l 868 347 l 868 174 m 1042 868 l 1042 347 l 868 347 l 868 868 l 1042 868 m 694 174 l 694 0 l 521 0 l 521 174 l 694 174 m 694 1215 l 694 1042 l 521 1042 l 521 1215 l 694 1215 m 694 868 l 694 1042 l 868 1042 l 868 868 l 694 868 z "},"":{"ha":1215,"x_min":174,"x_max":1042,"o":"m 868 174 l 868 347 l 1042 347 l 1042 174 l 868 174 m 1042 868 l 868 868 l 868 1042 l 1042 1042 l 1042 868 m 694 1215 l 694 868 l 868 868 l 868 694 l 694 694 l 694 521 l 868 521 l 868 347 l 694 347 l 694 0 l 521 0 l 521 347 l 347 347 l 347 521 l 521 521 l 521 694 l 347 694 l 347 868 l 521 868 l 521 1215 l 694 1215 m 174 174 l 174 347 l 347 347 l 347 174 l 174 174 m 174 1042 l 347 1042 l 347 868 l 174 868 l 174 1042 z "},"":{"ha":1215,"x_min":174,"x_max":1042,"o":"m 1042 521 l 694 521 l 694 174 l 521 174 l 521 521 l 174 521 l 174 694 l 521 694 l 521 1042 l 694 1042 l 694 694 l 1042 694 l 1042 521 z "},"":{"ha":1215,"x_min":347,"x_max":694,"o":"m 694 521 l 694 174 l 521 174 l 521 521 l 694 521 m 521 174 l 521 0 l 347 0 l 347 174 l 521 174 z "},"":{"ha":1215,"x_min":174,"x_max":1042,"o":"m 174 694 l 1042 694 l 1042 521 l 174 521 l 174 694 z "},"":{"ha":1215,"x_min":521,"x_max":694,"o":"m 694 174 l 694 0 l 521 0 l 521 174 l 694 174 z "},"":{"ha":1215,"x_min":174,"x_max":1042,"o":"m 1042 868 l 868 868 l 868 1042 l 1042 1042 l 1042 868 m 521 521 l 521 347 l 347 347 l 347 521 l 521 521 m 174 174 l 174 347 l 347 347 l 347 174 l 174 174 m 521 694 l 694 694 l 694 521 l 521 521 l 521 694 m 694 868 l 868 868 l 868 694 l 694 694 l 694 868 z "},"":{"ha":1215,"x_min":174,"x_max":1042,"o":"m 868 174 l 868 0 l 347 0 l 347 174 l 868 174 m 868 1215 l 868 1042 l 347 1042 l 347 1215 l 868 1215 m 521 521 l 521 347 l 347 347 l 347 174 l 174 174 l 174 1042 l 347 1042 l 347 521 l 521 521 m 1042 1042 l 1042 174 l 868 174 l 868 694 l 694 694 l 694 868 l 868 868 l 868 1042 l 1042 1042 m 521 694 l 694 694 l 694 521 l 521 521 l 521 694 z "},"":{"ha":1215,"x_min":347,"x_max":868,"o":"m 868 174 l 868 0 l 347 0 l 347 174 l 521 174 l 521 868 l 347 868 l 347 1042 l 521 1042 l 521 1215 l 694 1215 l 694 174 l 868 174 z "},"":{"ha":1215,"x_min":174,"x_max":1042,"o":"m 868 1215 l 868 1042 l 347 1042 l 347 1215 l 868 1215 m 174 0 l 174 347 l 347 347 l 347 174 l 1042 174 l 1042 0 l 174 0 m 521 521 l 521 347 l 347 347 l 347 521 l 521 521 m 1042 1042 l 1042 694 l 868 694 l 868 1042 l 1042 1042 m 521 694 l 868 694 l 868 521 l 521 521 l 521 694 m 174 1042 l 347 1042 l 347 868 l 174 868 l 174 1042 z "},"":{"ha":1215,"x_min":174,"x_max":1042,"o":"m 868 174 l 868 521 l 1042 521 l 1042 174 l 868 174 m 1042 868 l 868 868 l 868 1042 l 174 1042 l 174 1215 l 1042 1215 l 1042 868 m 521 521 l 521 694 l 694 694 l 694 868 l 868 868 l 868 521 l 521 521 m 347 0 l 347 174 l 868 174 l 868 0 l 347 0 m 174 174 l 174 347 l 347 347 l 347 174 l 174 174 z "},"":{"ha":1215,"x_min":174,"x_max":1042,"o":"m 1042 521 l 1042 347 l 868 347 l 868 0 l 694 0 l 694 347 l 174 347 l 174 694 l 347 694 l 347 521 l 694 521 l 694 868 l 521 868 l 521 1042 l 694 1042 l 694 1215 l 868 1215 l 868 521 l 1042 521 m 521 868 l 521 694 l 347 694 l 347 868 l 521 868 z "},"":{"ha":1215,"x_min":174,"x_max":1042,"o":"m 868 174 l 868 0 l 347 0 l 347 174 l 868 174 m 1042 1042 l 347 1042 l 347 868 l 868 868 l 868 694 l 174 694 l 174 1215 l 1042 1215 l 1042 1042 m 174 174 l 174 347 l 347 347 l 347 174 l 174 174 m 1042 694 l 1042 174 l 868 174 l 868 694 l 1042 694 z "},"":{"ha":1215,"x_min":174,"x_max":1042,"o":"m 868 174 l 868 521 l 1042 521 l 1042 174 l 868 174 m 347 0 l 347 174 l 868 174 l 868 0 l 347 0 m 521 868 l 347 868 l 347 1042 l 521 1042 l 521 868 m 1042 1042 l 521 1042 l 521 1215 l 1042 1215 l 1042 1042 m 174 174 l 174 868 l 347 868 l 347 694 l 868 694 l 868 521 l 347 521 l 347 174 l 174 174 z "},"":{"ha":1215,"x_min":174,"x_max":1042,"o":"m 1042 868 l 868 868 l 868 1042 l 174 1042 l 174 1215 l 1042 1215 l 1042 868 m 521 521 l 521 0 l 347 0 l 347 521 l 521 521 m 521 694 l 694 694 l 694 521 l 521 521 l 521 694 m 694 868 l 868 868 l 868 694 l 694 694 l 694 868 z "},"":{"ha":1215,"x_min":174,"x_max":1042,"o":"m 868 174 l 868 521 l 1042 521 l 1042 174 l 868 174 m 868 1215 l 868 1042 l 347 1042 l 347 1215 l 868 1215 m 347 0 l 347 174 l 868 174 l 868 0 l 347 0 m 1042 1042 l 1042 694 l 868 694 l 868 1042 l 1042 1042 m 174 174 l 174 521 l 347 521 l 347 174 l 174 174 m 868 521 l 347 521 l 347 694 l 868 694 l 868 521 m 174 694 l 174 1042 l 347 1042 l 347 694 l 174 694 z "},"":{"ha":1215,"x_min":174,"x_max":1042,"o":"m 868 174 l 694 174 l 694 347 l 868 347 l 868 174 m 868 1215 l 868 1042 l 347 1042 l 347 1215 l 868 1215 m 174 0 l 174 174 l 694 174 l 694 0 l 174 0 m 1042 347 l 868 347 l 868 521 l 347 521 l 347 694 l 868 694 l 868 1042 l 1042 1042 l 1042 347 m 174 694 l 174 1042 l 347 1042 l 347 694 l 174 694 z "},"":{"ha":1215,"x_min":521,"x_max":694,"o":"m 694 868 l 694 694 l 521 694 l 521 868 l 694 868 m 694 521 l 694 347 l 521 347 l 521 521 l 694 521 z "},"":{"ha":1215,"x_min":347,"x_max":694,"o":"m 694 868 l 694 694 l 521 694 l 521 868 l 694 868 m 694 174 l 521 174 l 521 521 l 694 521 l 694 174 m 521 174 l 521 0 l 347 0 l 347 174 l 521 174 z "},"":{"ha":1215,"x_min":174,"x_max":868,"o":"m 868 174 l 868 0 l 694 0 l 694 174 l 868 174 m 868 1215 l 868 1042 l 694 1042 l 694 1215 l 868 1215 m 694 174 l 521 174 l 521 347 l 694 347 l 694 174 m 521 521 l 521 347 l 347 347 l 347 521 l 521 521 m 521 868 l 521 1042 l 694 1042 l 694 868 l 521 868 m 521 694 l 347 694 l 347 868 l 521 868 l 521 694 m 174 694 l 347 694 l 347 521 l 174 521 l 174 694 z "},"":{"ha":1215,"x_min":174,"x_max":1042,"o":"m 1042 521 l 1042 347 l 174 347 l 174 521 l 1042 521 m 174 694 l 174 868 l 1042 868 l 1042 694 l 174 694 z "},"":{"ha":1215,"x_min":347,"x_max":1042,"o":"m 1042 521 l 868 521 l 868 694 l 1042 694 l 1042 521 m 694 174 l 521 174 l 521 347 l 694 347 l 694 174 m 347 0 l 347 174 l 521 174 l 521 0 l 347 0 m 521 868 l 521 1042 l 694 1042 l 694 868 l 521 868 m 347 1215 l 521 1215 l 521 1042 l 347 1042 l 347 1215 m 868 521 l 868 347 l 694 347 l 694 521 l 868 521 m 694 868 l 868 868 l 868 694 l 694 694 l 694 868 z "},"":{"ha":1215,"x_min":174,"x_max":1042,"o":"m 868 1215 l 868 1042 l 347 1042 l 347 1215 l 868 1215 m 1042 868 l 868 868 l 868 1042 l 1042 1042 l 1042 868 m 694 174 l 694 0 l 521 0 l 521 174 l 694 174 m 521 347 l 521 694 l 694 694 l 694 347 l 521 347 m 694 868 l 868 868 l 868 694 l 694 694 l 694 868 m 174 1042 l 347 1042 l 347 868 l 174 868 l 174 1042 z "},"":{"ha":1215,"x_min":174,"x_max":1042,"o":"m 1042 521 l 868 521 l 868 347 l 521 347 l 521 868 l 694 868 l 694 694 l 868 694 l 868 1042 l 1042 1042 l 1042 521 m 868 1215 l 868 1042 l 347 1042 l 347 1215 l 868 1215 m 347 0 l 347 174 l 1042 174 l 1042 0 l 347 0 m 174 174 l 174 1042 l 347 1042 l 347 174 l 174 174 z "},"":{"ha":1215,"x_min":174,"x_max":1042,"o":"m 1042 868 l 1042 0 l 868 0 l 868 347 l 347 347 l 347 0 l 174 0 l 174 868 l 347 868 l 347 521 l 868 521 l 868 868 l 1042 868 m 694 1215 l 694 1042 l 521 1042 l 521 1215 l 694 1215 m 521 868 l 347 868 l 347 1042 l 521 1042 l 521 868 m 694 868 l 694 1042 l 868 1042 l 868 868 l 694 868 z "},"":{"ha":1215,"x_min":174,"x_max":1042,"o":"m 868 174 l 868 521 l 1042 521 l 1042 174 l 868 174 m 868 1215 l 868 1042 l 347 1042 l 347 694 l 868 694 l 868 521 l 347 521 l 347 174 l 868 174 l 868 0 l 174 0 l 174 1215 l 868 1215 m 1042 1042 l 1042 694 l 868 694 l 868 1042 l 1042 1042 z "},"":{"ha":1215,"x_min":174,"x_max":1042,"o":"m 868 174 l 868 0 l 347 0 l 347 174 l 868 174 m 868 1215 l 868 1042 l 347 1042 l 347 1215 l 868 1215 m 1042 868 l 868 868 l 868 1042 l 1042 1042 l 1042 868 m 1042 347 l 1042 174 l 868 174 l 868 347 l 1042 347 m 174 174 l 174 1042 l 347 1042 l 347 174 l 174 174 z "},"":{"ha":1215,"x_min":174,"x_max":1042,"o":"m 868 174 l 868 0 l 174 0 l 174 1215 l 868 1215 l 868 1042 l 347 1042 l 347 174 l 868 174 m 1042 174 l 868 174 l 868 1042 l 1042 1042 l 1042 174 z "},"":{"ha":1215,"x_min":174,"x_max":1042,"o":"m 868 521 l 347 521 l 347 174 l 1042 174 l 1042 0 l 174 0 l 174 1215 l 1042 1215 l 1042 1042 l 347 1042 l 347 694 l 868 694 l 868 521 z "},"":{"ha":1215,"x_min":174,"x_max":1042,"o":"m 868 521 l 347 521 l 347 0 l 174 0 l 174 1215 l 1042 1215 l 1042 1042 l 347 1042 l 347 694 l 868 694 l 868 521 z "},"":{"ha":1215,"x_min":174,"x_max":1042,"o":"m 868 174 l 868 347 l 694 347 l 694 521 l 1042 521 l 1042 0 l 347 0 l 347 174 l 868 174 m 1042 1042 l 347 1042 l 347 1215 l 1042 1215 l 1042 1042 m 174 174 l 174 1042 l 347 1042 l 347 174 l 174 174 z "},"":{"ha":1215,"x_min":174,"x_max":1042,"o":"m 868 521 l 347 521 l 347 0 l 174 0 l 174 1215 l 347 1215 l 347 694 l 868 694 l 868 1215 l 1042 1215 l 1042 0 l 868 0 l 868 521 z "},"":{"ha":1215,"x_min":347,"x_max":868,"o":"m 868 174 l 868 0 l 347 0 l 347 174 l 521 174 l 521 1042 l 347 1042 l 347 1215 l 868 1215 l 868 1042 l 694 1042 l 694 174 l 868 174 z "},"":{"ha":1215,"x_min":174,"x_max":1042,"o":"m 868 174 l 868 1215 l 1042 1215 l 1042 174 l 868 174 m 174 347 l 347 347 l 347 174 l 174 174 l 174 347 m 347 0 l 347 174 l 868 174 l 868 0 l 347 0 z "},"":{"ha":1215,"x_min":174,"x_max":1042,"o":"m 868 174 l 1042 174 l 1042 0 l 868 0 l 868 174 m 521 521 l 694 521 l 694 347 l 521 347 l 521 521 m 347 0 l 174 0 l 174 1215 l 347 1215 l 347 694 l 521 694 l 521 521 l 347 521 l 347 0 m 521 868 l 694 868 l 694 694 l 521 694 l 521 868 m 1042 1042 l 868 1042 l 868 1215 l 1042 1215 l 1042 1042 m 868 868 l 694 868 l 694 1042 l 868 1042 l 868 868 m 694 347 l 868 347 l 868 174 l 694 174 l 694 347 z "},"":{"ha":1215,"x_min":174,"x_max":1042,"o":"m 1042 174 l 1042 0 l 174 0 l 174 1215 l 347 1215 l 347 174 l 1042 174 z "},"":{"ha":1215,"x_min":174,"x_max":1042,"o":"m 868 1215 l 1042 1215 l 1042 0 l 868 0 l 868 868 l 694 868 l 694 1042 l 868 1042 l 868 1215 m 174 0 l 174 1215 l 347 1215 l 347 1042 l 521 1042 l 521 868 l 347 868 l 347 0 l 174 0 m 521 521 l 521 868 l 694 868 l 694 521 l 521 521 z "},"":{"ha":1215,"x_min":174,"x_max":1042,"o":"m 868 1215 l 1042 1215 l 1042 0 l 868 0 l 868 347 l 694 347 l 694 521 l 868 521 l 868 1215 m 174 0 l 174 1215 l 347 1215 l 347 868 l 521 868 l 521 694 l 347 694 l 347 0 l 174 0 m 521 521 l 521 694 l 694 694 l 694 521 l 521 521 z "},"":{"ha":1215,"x_min":174,"x_max":1042,"o":"m 868 174 l 868 0 l 347 0 l 347 174 l 868 174 m 1042 174 l 868 174 l 868 1042 l 1042 1042 l 1042 174 m 868 1215 l 868 1042 l 347 1042 l 347 1215 l 868 1215 m 174 1042 l 347 1042 l 347 174 l 174 174 l 174 1042 z "},"":{"ha":1215,"x_min":174,"x_max":1042,"o":"m 868 521 l 347 521 l 347 0 l 174 0 l 174 1215 l 868 1215 l 868 1042 l 347 1042 l 347 694 l 868 694 l 868 521 m 1042 1042 l 1042 694 l 868 694 l 868 1042 l 1042 1042 z "},"":{"ha":1215,"x_min":174,"x_max":1042,"o":"m 868 174 l 1042 174 l 1042 0 l 868 0 l 868 174 m 868 1215 l 868 1042 l 347 1042 l 347 1215 l 868 1215 m 694 174 l 694 0 l 347 0 l 347 174 l 694 174 m 521 521 l 694 521 l 694 347 l 521 347 l 521 521 m 1042 347 l 868 347 l 868 1042 l 1042 1042 l 1042 347 m 174 174 l 174 1042 l 347 1042 l 347 174 l 174 174 m 868 347 l 868 174 l 694 174 l 694 347 l 868 347 z "},"":{"ha":1215,"x_min":174,"x_max":1042,"o":"m 868 174 l 1042 174 l 1042 0 l 868 0 l 868 174 m 868 1215 l 868 1042 l 347 1042 l 347 694 l 868 694 l 868 521 l 694 521 l 694 347 l 521 347 l 521 521 l 347 521 l 347 0 l 174 0 l 174 1215 l 868 1215 m 694 174 l 694 347 l 868 347 l 868 174 l 694 174 m 1042 1042 l 1042 694 l 868 694 l 868 1042 l 1042 1042 z "},"":{"ha":1215,"x_min":174,"x_max":1042,"o":"m 868 174 l 868 521 l 1042 521 l 1042 174 l 868 174 m 868 1215 l 868 1042 l 347 1042 l 347 1215 l 868 1215 m 1042 868 l 868 868 l 868 1042 l 1042 1042 l 1042 868 m 347 0 l 347 174 l 868 174 l 868 0 l 347 0 m 174 174 l 174 347 l 347 347 l 347 174 l 174 174 m 868 521 l 347 521 l 347 694 l 868 694 l 868 521 m 174 694 l 174 1042 l 347 1042 l 347 694 l 174 694 z "},"":{"ha":1215,"x_min":174,"x_max":1042,"o":"m 1042 1215 l 1042 1042 l 694 1042 l 694 0 l 521 0 l 521 1042 l 174 1042 l 174 1215 l 1042 1215 z "},"":{"ha":1215,"x_min":174,"x_max":1042,"o":"m 868 174 l 868 1215 l 1042 1215 l 1042 174 l 868 174 m 347 0 l 347 174 l 868 174 l 868 0 l 347 0 m 174 174 l 174 1215 l 347 1215 l 347 174 l 174 174 z "},"":{"ha":1215,"x_min":174,"x_max":1042,"o":"m 868 174 l 694 174 l 694 347 l 868 347 l 868 174 m 868 1215 l 1042 1215 l 1042 347 l 868 347 l 868 1215 m 694 174 l 694 0 l 521 0 l 521 174 l 694 174 m 174 1215 l 347 1215 l 347 347 l 174 347 l 174 1215 m 521 347 l 521 174 l 347 174 l 347 347 l 521 347 z "},"":{"ha":1215,"x_min":174,"x_max":1042,"o":"m 868 174 l 694 174 l 694 347 l 868 347 l 868 1215 l 1042 1215 l 1042 0 l 868 0 l 868 174 m 174 0 l 174 1215 l 347 1215 l 347 347 l 521 347 l 521 174 l 347 174 l 347 0 l 174 0 m 521 347 l 521 694 l 694 694 l 694 347 l 521 347 z "},"":{"ha":1215,"x_min":174,"x_max":1042,"o":"m 1042 868 l 868 868 l 868 1215 l 1042 1215 l 1042 868 m 521 521 l 521 347 l 347 347 l 347 521 l 521 521 m 347 0 l 174 0 l 174 347 l 347 347 l 347 0 m 521 868 l 521 694 l 347 694 l 347 868 l 521 868 m 347 1215 l 347 868 l 174 868 l 174 1215 l 347 1215 m 868 521 l 868 347 l 694 347 l 694 521 l 868 521 m 868 868 l 868 694 l 694 694 l 694 868 l 868 868 m 694 694 l 694 521 l 521 521 l 521 694 l 694 694 m 1042 347 l 1042 0 l 868 0 l 868 347 l 1042 347 z "},"":{"ha":1215,"x_min":174,"x_max":1042,"o":"m 868 1215 l 1042 1215 l 1042 868 l 868 868 l 868 1215 m 521 868 l 521 694 l 347 694 l 347 868 l 521 868 m 694 0 l 521 0 l 521 694 l 694 694 l 694 0 m 174 1215 l 347 1215 l 347 868 l 174 868 l 174 1215 m 694 868 l 868 868 l 868 694 l 694 694 l 694 868 z "},"":{"ha":1215,"x_min":174,"x_max":1042,"o":"m 1042 868 l 868 868 l 868 1042 l 174 1042 l 174 1215 l 1042 1215 l 1042 868 m 174 0 l 174 347 l 347 347 l 347 174 l 1042 174 l 1042 0 l 174 0 m 521 521 l 521 347 l 347 347 l 347 521 l 521 521 m 521 694 l 694 694 l 694 521 l 521 521 l 521 694 m 694 868 l 868 868 l 868 694 l 694 694 l 694 868 z "},"":{"ha":1215,"x_min":174,"x_max":1042,"o":"m 1042 1215 l 1042 1042 l 521 1042 l 521 174 l 1042 174 l 1042 0 l 174 0 l 174 1215 l 1042 1215 z "},"":{"ha":1215,"x_min":174,"x_max":1042,"o":"m 868 174 l 868 347 l 1042 347 l 1042 174 l 868 174 m 521 521 l 521 694 l 694 694 l 694 521 l 521 521 m 521 868 l 521 694 l 347 694 l 347 868 l 521 868 m 868 521 l 868 347 l 694 347 l 694 521 l 868 521 m 174 1042 l 347 1042 l 347 868 l 174 868 l 174 1042 z "},"":{"ha":1215,"x_min":174,"x_max":1042,"o":"m 1042 1215 l 1042 0 l 174 0 l 174 174 l 694 174 l 694 1042 l 174 1042 l 174 1215 l 1042 1215 z "},"":{"ha":1215,"x_min":174,"x_max":1042,"o":"m 1042 521 l 1042 347 l 868 347 l 868 521 l 1042 521 m 521 521 l 347 521 l 347 694 l 521 694 l 521 521 m 521 868 l 694 868 l 694 694 l 521 694 l 521 868 m 868 521 l 694 521 l 694 694 l 868 694 l 868 521 m 174 347 l 174 521 l 347 521 l 347 347 l 174 347 z "},"":{"ha":1215,"x_min":0,"x_max":1215,"o":"m 0 0 l 1215 0 l 1215 -174 l 0 -174 l 0 0 z "},"":{"ha":1215,"x_min":347,"x_max":868,"o":"m 694 868 l 868 868 l 868 694 l 694 694 l 694 868 m 347 1042 l 347 1215 l 521 1215 l 521 1042 l 347 1042 m 521 868 l 521 1042 l 694 1042 l 694 868 l 521 868 z "},"":{"ha":1215,"x_min":174,"x_max":1042,"o":"m 868 174 l 868 347 l 347 347 l 347 521 l 868 521 l 868 694 l 1042 694 l 1042 0 l 347 0 l 347 174 l 868 174 m 174 174 l 174 347 l 347 347 l 347 174 l 174 174 m 868 868 l 868 694 l 347 694 l 347 868 l 868 868 z "},"":{"ha":1215,"x_min":174,"x_max":1042,"o":"m 868 174 l 868 0 l 174 0 l 174 1215 l 347 1215 l 347 868 l 868 868 l 868 694 l 347 694 l 347 174 l 868 174 m 1042 174 l 868 174 l 868 694 l 1042 694 l 1042 174 z "},"":{"ha":1215,"x_min":174,"x_max":1042,"o":"m 1042 174 l 1042 0 l 347 0 l 347 174 l 1042 174 m 174 694 l 347 694 l 347 174 l 174 174 l 174 694 m 1042 868 l 1042 694 l 347 694 l 347 868 l 1042 868 z "},"":{"ha":1215,"x_min":174,"x_max":1042,"o":"m 868 174 l 868 694 l 347 694 l 347 868 l 868 868 l 868 1215 l 1042 1215 l 1042 0 l 347 0 l 347 174 l 868 174 m 174 694 l 347 694 l 347 174 l 174 174 l 174 694 z "},"":{"ha":1215,"x_min":174,"x_max":1042,"o":"m 347 0 l 347 174 l 1042 174 l 1042 0 l 347 0 m 1042 347 l 347 347 l 347 174 l 174 174 l 174 694 l 347 694 l 347 521 l 868 521 l 868 694 l 1042 694 l 1042 347 m 868 868 l 868 694 l 347 694 l 347 868 l 868 868 z "},"":{"ha":1215,"x_min":174,"x_max":1042,"o":"m 868 1215 l 868 1042 l 521 1042 l 521 1215 l 868 1215 m 1042 868 l 868 868 l 868 1042 l 1042 1042 l 1042 868 m 521 521 l 521 0 l 347 0 l 347 521 l 174 521 l 174 694 l 347 694 l 347 1042 l 521 1042 l 521 694 l 868 694 l 868 521 l 521 521 z "},"":{"ha":1215,"x_min":174,"x_max":1042,"o":"m 868 174 l 347 174 l 347 347 l 868 347 l 868 694 l 1042 694 l 1042 0 l 868 0 l 868 174 m 347 0 l 868 0 l 868 -174 l 347 -174 l 347 0 m 174 694 l 347 694 l 347 347 l 174 347 l 174 694 m 868 868 l 868 694 l 347 694 l 347 868 l 868 868 z "},"":{"ha":1215,"x_min":174,"x_max":1042,"o":"m 174 0 l 174 1215 l 347 1215 l 347 868 l 868 868 l 868 694 l 347 694 l 347 0 l 174 0 m 868 0 l 868 694 l 1042 694 l 1042 0 l 868 0 z "},"":{"ha":1215,"x_min":347,"x_max":868,"o":"m 868 174 l 868 0 l 347 0 l 347 174 l 521 174 l 521 694 l 347 694 l 347 868 l 694 868 l 694 174 l 868 174 m 694 1215 l 694 1042 l 521 1042 l 521 1215 l 694 1215 z "},"":{"ha":1215,"x_min":174,"x_max":868,"o":"m 868 1215 l 868 1042 l 694 1042 l 694 1215 l 868 1215 m 174 0 l 174 174 l 347 174 l 347 0 l 174 0 m 347 0 l 694 0 l 694 -174 l 347 -174 l 347 0 m 521 868 l 868 868 l 868 0 l 694 0 l 694 694 l 521 694 l 521 868 z "},"":{"ha":1215,"x_min":174,"x_max":1042,"o":"m 868 174 l 1042 174 l 1042 0 l 868 0 l 868 174 m 1042 868 l 1042 694 l 868 694 l 868 868 l 1042 868 m 174 0 l 174 1215 l 347 1215 l 347 521 l 694 521 l 694 347 l 347 347 l 347 0 l 174 0 m 694 174 l 694 347 l 868 347 l 868 174 l 694 174 m 868 521 l 694 521 l 694 694 l 868 694 l 868 521 z "},"":{"ha":1215,"x_min":347,"x_max":868,"o":"m 868 174 l 868 0 l 347 0 l 347 174 l 521 174 l 521 1042 l 347 1042 l 347 1215 l 694 1215 l 694 174 l 868 174 z "},"":{"ha":1215,"x_min":174,"x_max":1042,"o":"m 1042 868 l 1042 0 l 868 0 l 868 694 l 694 694 l 694 868 l 1042 868 m 174 0 l 174 868 l 521 868 l 521 694 l 347 694 l 347 0 l 174 0 m 694 174 l 521 174 l 521 694 l 694 694 l 694 174 z "},"":{"ha":1215,"x_min":174,"x_max":1042,"o":"m 174 0 l 174 868 l 868 868 l 868 694 l 347 694 l 347 0 l 174 0 m 868 0 l 868 694 l 1042 694 l 1042 0 l 868 0 z "},"":{"ha":1215,"x_min":174,"x_max":1042,"o":"m 868 174 l 868 0 l 347 0 l 347 174 l 868 174 m 1042 174 l 868 174 l 868 694 l 1042 694 l 1042 174 m 174 694 l 347 694 l 347 174 l 174 174 l 174 694 m 868 868 l 868 694 l 347 694 l 347 868 l 868 868 z "},"":{"ha":1215,"x_min":174,"x_max":1042,"o":"m 868 174 l 347 174 l 347 -174 l 174 -174 l 174 868 l 868 868 l 868 694 l 347 694 l 347 347 l 868 347 l 868 174 m 1042 347 l 868 347 l 868 694 l 1042 694 l 1042 347 z "},"":{"ha":1215,"x_min":174,"x_max":1042,"o":"m 868 174 l 347 174 l 347 347 l 868 347 l 868 694 l 347 694 l 347 868 l 1042 868 l 1042 -174 l 868 -174 l 868 174 m 174 694 l 347 694 l 347 347 l 174 347 l 174 694 z "},"":{"ha":1215,"x_min":174,"x_max":1042,"o":"m 174 0 l 174 868 l 347 868 l 347 694 l 521 694 l 521 521 l 347 521 l 347 0 l 174 0 m 1042 868 l 1042 694 l 521 694 l 521 868 l 1042 868 z "},"":{"ha":1215,"x_min":174,"x_max":1042,"o":"m 868 174 l 868 0 l 174 0 l 174 174 l 868 174 m 1042 868 l 1042 694 l 347 694 l 347 868 l 1042 868 m 1042 347 l 1042 174 l 868 174 l 868 347 l 1042 347 m 868 521 l 868 347 l 347 347 l 347 521 l 868 521 m 174 694 l 347 694 l 347 521 l 174 521 l 174 694 z "},"":{"ha":1215,"x_min":174,"x_max":1042,"o":"m 868 174 l 868 0 l 521 0 l 521 174 l 868 174 m 521 868 l 868 868 l 868 694 l 521 694 l 521 174 l 347 174 l 347 694 l 174 694 l 174 868 l 347 868 l 347 1215 l 521 1215 l 521 868 m 1042 347 l 1042 174 l 868 174 l 868 347 l 1042 347 z "},"":{"ha":1215,"x_min":174,"x_max":1042,"o":"m 868 174 l 694 174 l 694 347 l 868 347 l 868 868 l 1042 868 l 1042 0 l 868 0 l 868 174 m 694 174 l 694 0 l 347 0 l 347 174 l 694 174 m 174 174 l 174 868 l 347 868 l 347 174 l 174 174 z "},"":{"ha":1215,"x_min":174,"x_max":1042,"o":"m 868 174 l 694 174 l 694 347 l 868 347 l 868 174 m 1042 868 l 1042 347 l 868 347 l 868 868 l 1042 868 m 694 174 l 694 0 l 521 0 l 521 174 l 694 174 m 521 347 l 521 174 l 347 174 l 347 347 l 521 347 m 174 347 l 174 868 l 347 868 l 347 347 l 174 347 z "},"":{"ha":1215,"x_min":174,"x_max":1042,"o":"m 868 174 l 868 868 l 1042 868 l 1042 0 l 694 0 l 694 174 l 868 174 m 174 0 l 174 868 l 347 868 l 347 174 l 521 174 l 521 0 l 174 0 m 694 174 l 521 174 l 521 521 l 694 521 l 694 174 z "},"":{"ha":1215,"x_min":174,"x_max":1042,"o":"m 868 174 l 1042 174 l 1042 0 l 868 0 l 868 174 m 1042 868 l 1042 694 l 868 694 l 868 868 l 1042 868 m 521 521 l 694 521 l 694 347 l 521 347 l 521 521 m 347 0 l 174 0 l 174 174 l 347 174 l 347 0 m 868 521 l 694 521 l 694 694 l 868 694 l 868 521 m 347 347 l 521 347 l 521 174 l 347 174 l 347 347 m 347 694 l 174 694 l 174 868 l 347 868 l 347 694 m 694 347 l 868 347 l 868 174 l 694 174 l 694 347 m 521 694 l 521 521 l 347 521 l 347 694 l 521 694 z "},"":{"ha":1215,"x_min":174,"x_max":1042,"o":"m 868 174 l 347 174 l 347 347 l 868 347 l 868 868 l 1042 868 l 1042 0 l 868 0 l 868 174 m 347 0 l 868 0 l 868 -174 l 347 -174 l 347 0 m 174 347 l 174 868 l 347 868 l 347 347 l 174 347 z "},"":{"ha":1215,"x_min":174,"x_max":1042,"o":"m 1042 868 l 1042 694 l 868 694 l 868 521 l 694 521 l 694 694 l 174 694 l 174 868 l 1042 868 m 174 0 l 174 174 l 347 174 l 347 347 l 521 347 l 521 174 l 1042 174 l 1042 0 l 174 0 m 521 521 l 694 521 l 694 347 l 521 347 l 521 521 z "},"":{"ha":1215,"x_min":174,"x_max":1042,"o":"m 694 174 l 1042 174 l 1042 0 l 521 0 l 521 174 l 347 174 l 347 521 l 174 521 l 174 694 l 347 694 l 347 1042 l 521 1042 l 521 1215 l 1042 1215 l 1042 1042 l 694 1042 l 694 694 l 521 694 l 521 521 l 694 521 l 694 174 z "},"":{"ha":1215,"x_min":521,"x_max":694,"o":"m 694 1215 l 694 -174 l 521 -174 l 521 1215 l 694 1215 z "},"":{"ha":1215,"x_min":174,"x_max":1042,"o":"m 868 174 l 694 174 l 694 0 l 174 0 l 174 174 l 521 174 l 521 521 l 694 521 l 694 694 l 521 694 l 521 1042 l 174 1042 l 174 1215 l 694 1215 l 694 1042 l 868 1042 l 868 694 l 1042 694 l 1042 521 l 868 521 l 868 174 z "},"":{"ha":1215,"x_min":174,"x_max":1042,"o":"m 868 1215 l 1042 1215 l 1042 1042 l 868 1042 l 868 1215 m 694 1215 l 694 1042 l 868 1042 l 868 868 l 521 868 l 521 1042 l 347 1042 l 347 1215 l 694 1215 m 174 1042 l 347 1042 l 347 868 l 174 868 l 174 1042 z "},"":{"ha":1215,"x_min":174,"x_max":1042,"o":"m 868 174 l 868 347 l 1042 347 l 1042 174 l 868 174 m 1042 521 l 868 521 l 868 694 l 1042 694 l 1042 521 m 1042 868 l 868 868 l 868 1042 l 1042 1042 l 1042 868 m 521 521 l 521 347 l 347 347 l 347 521 l 521 521 m 521 868 l 521 1042 l 694 1042 l 694 868 l 521 868 m 174 174 l 174 347 l 347 347 l 347 174 l 174 174 m 868 521 l 868 347 l 694 347 l 694 521 l 868 521 m 868 868 l 868 694 l 694 694 l 694 868 l 868 868 m 174 1042 l 347 1042 l 347 868 l 174 868 l 174 1042 m 521 174 l 521 347 l 694 347 l 694 174 l 521 174 m 347 694 l 347 521 l 174 521 l 174 694 l 347 694 m 694 694 l 694 521 l 521 521 l 521 694 l 694 694 m 521 694 l 347 694 l 347 868 l 521 868 l 521 694 z "},"":{"ha":1215,"x_min":0,"x_max":1215,"o":"m 1042 521 l 1042 174 l 1215 174 l 1215 0 l 1042 0 l 1042 -174 l 694 -174 l 694 0 l 521 0 l 521 -174 l 174 -174 l 174 174 l 0 174 l 0 694 l 174 694 l 174 868 l 521 868 l 521 694 l 694 694 l 694 868 l 1042 868 l 1042 694 l 1215 694 l 1215 521 l 1042 521 m 694 1215 l 868 1215 l 868 1042 l 694 1042 l 694 1215 m 521 868 l 521 1042 l 694 1042 l 694 868 l 521 868 z "},"":{"ha":1215,"x_min":0,"x_max":1215,"o":"m 868 174 l 868 521 l 1042 521 l 1042 174 l 868 174 m 1215 694 l 1215 521 l 1042 521 l 1042 694 l 1215 694 m 1042 868 l 1042 694 l 694 694 l 694 868 l 1042 868 m 174 -174 l 174 174 l 347 174 l 347 0 l 521 0 l 521 -174 l 174 -174 m 694 1215 l 868 1215 l 868 1042 l 694 1042 l 694 1215 m 521 868 l 521 1042 l 694 1042 l 694 868 l 521 868 m 174 174 l 0 174 l 0 694 l 174 694 l 174 174 m 694 0 l 1042 0 l 1042 -174 l 694 -174 l 694 0 m 1042 174 l 1215 174 l 1215 0 l 1042 0 l 1042 174 m 521 174 l 694 174 l 694 0 l 521 0 l 521 174 m 174 868 l 521 868 l 521 694 l 174 694 l 174 868 z "},"":{"ha":1215,"x_min":174,"x_max":1215,"o":"m 868 174 l 1042 174 l 1042 0 l 694 0 l 694 174 l 521 174 l 521 0 l 347 0 l 347 -174 l 174 -174 l 174 868 l 347 868 l 347 694 l 521 694 l 521 521 l 694 521 l 694 347 l 868 347 l 868 174 m 1215 -174 l 1042 -174 l 1042 0 l 1215 0 l 1215 -174 z "},"":{"ha":1215,"x_min":0,"x_max":1215,"o":"m 868 174 l 1042 174 l 1042 0 l 1215 0 l 1215 -174 l 0 -174 l 0 0 l 174 0 l 174 174 l 347 174 l 347 0 l 521 0 l 521 174 l 694 174 l 694 0 l 868 0 l 868 174 m 1042 868 l 868 868 l 868 1042 l 347 1042 l 347 868 l 174 868 l 174 1042 l 0 1042 l 0 1215 l 1215 1215 l 1215 1042 l 1042 1042 l 1042 868 m 521 868 l 521 694 l 347 694 l 347 868 l 521 868 m 868 868 l 868 694 l 694 694 l 694 868 l 868 868 m 521 174 l 347 174 l 347 347 l 521 347 l 521 174 m 694 694 l 694 347 l 521 347 l 521 694 l 694 694 m 694 347 l 868 347 l 868 174 l 694 174 l 694 347 z "},"":{"ha":1215,"x_min":0,"x_max":1215,"o":"m 1042 868 l 1042 1042 l 1215 1042 l 1215 868 l 1042 868 m 521 521 l 694 521 l 694 347 l 521 347 l 521 521 m 347 0 l 347 347 l 521 347 l 521 0 l 347 0 m 1042 694 l 868 694 l 868 868 l 1042 868 l 1042 694 m 868 521 l 694 521 l 694 694 l 868 694 l 868 521 m 174 694 l 174 521 l 0 521 l 0 694 l 174 694 m 174 347 l 174 521 l 347 521 l 347 347 l 174 347 z "},"":{"ha":1215,"x_min":0,"x_max":1215,"o":"m 1042 868 l 868 868 l 868 694 l 694 694 l 694 521 l 521 521 l 521 347 l 347 347 l 347 694 l 0 694 l 0 1215 l 1215 1215 l 1215 1042 l 1042 1042 l 1042 868 m 347 0 l 521 0 l 521 347 l 694 347 l 694 521 l 868 521 l 868 694 l 1042 694 l 1042 868 l 1215 868 l 1215 -174 l 0 -174 l 0 521 l 174 521 l 174 347 l 347 347 l 347 0 z "},"":{"ha":1215,"x_min":0,"x_max":1215,"o":"m 0 -174 l 0 174 l 174 174 l 174 0 l 347 0 l 347 -174 l 0 -174 m 1042 347 l 521 347 l 521 694 l 347 694 l 347 521 l 174 521 l 174 347 l 0 347 l 0 1215 l 1042 1215 l 1042 347 m 1215 -174 l 521 -174 l 521 174 l 1215 174 l 1215 -174 z "},"":{"ha":1215,"x_min":0,"x_max":1215,"o":"m 0 0 l 1215 0 l 1215 -174 l 0 -174 l 0 0 m 1215 694 l 0 694 l 0 868 l 1215 868 l 1215 694 m 1215 347 l 0 347 l 0 521 l 1215 521 l 1215 347 m 1215 1042 l 0 1042 l 0 1215 l 1215 1215 l 1215 1042 z "},"":{"ha":1215,"x_min":0,"x_max":1215,"o":"m 1215 694 l 1215 521 l 347 521 l 347 347 l 174 347 l 174 521 l 0 521 l 0 694 l 174 694 l 174 868 l 347 868 l 347 694 l 1215 694 m 694 174 l 694 0 l 521 0 l 521 174 l 694 174 m 694 1215 l 694 1042 l 521 1042 l 521 1215 l 694 1215 m 521 868 l 347 868 l 347 1042 l 521 1042 l 521 868 m 347 174 l 347 347 l 521 347 l 521 174 l 347 174 z "},"":{"ha":1215,"x_min":174,"x_max":1042,"o":"m 174 0 l 347 0 l 347 -174 l 174 -174 l 174 0 m 868 0 l 1042 0 l 1042 -174 l 868 -174 l 868 0 m 694 -174 l 521 -174 l 521 0 l 694 0 l 694 -174 z "},"":{"ha":1215,"x_min":0,"x_max":1215,"o":"m 868 174 l 868 0 l 694 0 l 694 -174 l 521 -174 l 521 0 l 347 0 l 347 174 l 521 174 l 521 1215 l 694 1215 l 694 174 l 868 174 m 1042 521 l 1215 521 l 1215 347 l 1042 347 l 1042 521 m 1042 347 l 1042 174 l 868 174 l 868 347 l 1042 347 m 174 174 l 174 347 l 347 347 l 347 174 l 174 174 m 0 347 l 0 521 l 174 521 l 174 347 l 0 347 z "},"":{"ha":1215,"x_min":0,"x_max":1215,"o":"m 1042 521 l 1042 694 l 1215 694 l 1215 521 l 1042 521 m 1042 868 l 1042 694 l 868 694 l 868 868 l 1042 868 m 694 1215 l 694 1042 l 868 1042 l 868 868 l 694 868 l 694 -174 l 521 -174 l 521 868 l 347 868 l 347 1042 l 521 1042 l 521 1215 l 694 1215 m 174 694 l 174 868 l 347 868 l 347 694 l 174 694 m 0 694 l 174 694 l 174 521 l 0 521 l 0 694 z "},"":{"ha":1215,"x_min":0,"x_max":1215,"o":"m 0 1042 l 0 1215 l 1215 1215 l 1215 1042 l 0 1042 z "},"":{"ha":1215,"x_min":0,"x_max":1215,"o":"m 174 0 l 174 174 l 0 174 l 0 347 l 174 347 l 174 521 l 347 521 l 347 694 l 521 694 l 521 347 l 1042 347 l 1042 1215 l 1215 1215 l 1215 174 l 521 174 l 521 -174 l 347 -174 l 347 0 l 174 0 z "},"":{"ha":1215,"x_min":0,"x_max":1042,"o":"m 0 -174 l 0 1215 l 1042 1215 l 1042 -174 l 0 -174 z "},"":{"ha":1215,"x_min":0,"x_max":1215,"o":"m 0 0 l 694 0 l 694 -174 l 0 -174 l 0 0 m 1215 694 l 1215 521 l 868 521 l 868 0 l 694 0 l 694 174 l 521 174 l 521 347 l 347 347 l 347 521 l 174 521 l 174 694 l 347 694 l 347 868 l 521 868 l 521 1042 l 694 1042 l 694 1215 l 868 1215 l 868 694 l 1215 694 m 868 -174 l 868 0 l 1215 0 l 1215 -174 l 868 -174 m 0 1215 l 347 1215 l 347 1042 l 0 1042 l 0 1215 z "},"":{"ha":1215,"x_min":0,"x_max":1215,"o":"m 0 0 l 347 0 l 347 -174 l 0 -174 l 0 0 m 1042 521 l 868 521 l 868 347 l 694 347 l 694 174 l 521 174 l 521 0 l 347 0 l 347 521 l 0 521 l 0 694 l 347 694 l 347 1215 l 521 1215 l 521 1042 l 694 1042 l 694 868 l 868 868 l 868 694 l 1042 694 l 1042 521 m 1215 0 l 1215 -174 l 521 -174 l 521 0 l 1215 0 m 868 1042 l 868 1215 l 1215 1215 l 1215 1042 l 868 1042 z "},"":{"ha":1215,"x_min":0,"x_max":1215,"o":"m 868 174 l 694 174 l 694 0 l 521 0 l 521 174 l 347 174 l 347 347 l 174 347 l 174 521 l 0 521 l 0 694 l 521 694 l 521 1042 l 694 1042 l 694 694 l 1215 694 l 1215 521 l 1042 521 l 1042 347 l 868 347 l 868 174 m 1042 868 l 1042 1215 l 1215 1215 l 1215 868 l 1042 868 m 1042 174 l 1215 174 l 1215 -174 l 1042 -174 l 1042 174 z "},"":{"ha":1215,"x_min":0,"x_max":1215,"o":"m 1042 521 l 1215 521 l 1215 347 l 694 347 l 694 0 l 521 0 l 521 347 l 0 347 l 0 521 l 174 521 l 174 694 l 347 694 l 347 868 l 521 868 l 521 1042 l 694 1042 l 694 868 l 868 868 l 868 694 l 1042 694 l 1042 521 m 1042 868 l 1042 1215 l 1215 1215 l 1215 868 l 1042 868 m 1042 174 l 1215 174 l 1215 -174 l 1042 -174 l 1042 174 z "},"":{"ha":1215,"x_min":0,"x_max":1215,"o":"m 1215 694 l 1215 521 l 0 521 l 0 694 l 1215 694 z "},"":{"ha":1215,"x_min":0,"x_max":1215,"o":"m 0 -174 l 0 1215 l 174 1215 l 174 0 l 1215 0 l 1215 -174 l 0 -174 z "},"":{"ha":1215,"x_min":0,"x_max":1215,"o":"m 868 174 l 694 174 l 694 347 l 868 347 l 868 174 m 1042 521 l 1042 347 l 868 347 l 868 521 l 0 521 l 0 694 l 868 694 l 868 868 l 1042 868 l 1042 694 l 1215 694 l 1215 521 l 1042 521 m 694 174 l 694 0 l 521 0 l 521 174 l 694 174 m 694 1215 l 694 1042 l 521 1042 l 521 1215 l 694 1215 m 694 868 l 694 1042 l 868 1042 l 868 868 l 694 868 z "},"":{"ha":1215,"x_min":0,"x_max":1215,"o":"m 0 0 l 174 0 l 174 -174 l 0 -174 l 0 0 m 1042 521 l 1042 347 l 868 347 l 868 521 l 1042 521 m 1215 694 l 1215 521 l 1042 521 l 1042 694 l 1215 694 m 521 868 l 694 868 l 694 694 l 521 694 l 521 868 m 1042 1042 l 1215 1042 l 1215 868 l 1042 868 l 1042 1042 m 694 0 l 868 0 l 868 -174 l 694 -174 l 694 0 m 347 1215 l 347 1042 l 174 1042 l 174 1215 l 347 1215 m 868 521 l 694 521 l 694 694 l 868 694 l 868 521 m 1215 0 l 1215 -174 l 1042 -174 l 1042 0 l 1215 0 m 174 1042 l 174 868 l 0 868 l 0 1042 l 174 1042 m 0 694 l 174 694 l 174 521 l 0 521 l 0 694 m 347 347 l 174 347 l 174 521 l 347 521 l 347 347 m 521 174 l 694 174 l 694 0 l 521 0 l 521 174 m 868 1042 l 868 1215 l 1042 1215 l 1042 1042 l 868 1042 m 521 -174 l 347 -174 l 347 0 l 521 0 l 521 -174 m 694 174 l 694 347 l 868 347 l 868 174 l 694 174 m 1042 347 l 1215 347 l 1215 174 l 1042 174 l 1042 347 m 0 174 l 0 347 l 174 347 l 174 174 l 0 174 m 521 694 l 521 521 l 347 521 l 347 694 l 521 694 m 694 868 l 694 1042 l 868 1042 l 868 868 l 694 868 m 347 1042 l 521 1042 l 521 868 l 347 868 l 347 1042 m 868 174 l 1042 174 l 1042 0 l 868 0 l 868 174 m 1042 868 l 1042 694 l 868 694 l 868 868 l 1042 868 m 694 1215 l 694 1042 l 521 1042 l 521 1215 l 694 1215 m 521 521 l 694 521 l 694 347 l 521 347 l 521 521 m 347 0 l 174 0 l 174 174 l 347 174 l 347 0 m 347 694 l 174 694 l 174 868 l 347 868 l 347 694 m 521 347 l 521 174 l 347 174 l 347 347 l 521 347 z "},"":{"ha":1215,"x_min":0,"x_max":1215,"o":"m 0 0 l 0 174 l 174 174 l 174 0 l 0 0 m 1215 694 l 1042 694 l 1042 868 l 1215 868 l 1215 694 m 1042 521 l 868 521 l 868 694 l 1042 694 l 1042 521 m 521 868 l 521 1042 l 694 1042 l 694 868 l 521 868 m 1042 1042 l 1042 1215 l 1215 1215 l 1215 1042 l 1042 1042 m 694 0 l 694 174 l 868 174 l 868 0 l 694 0 m 347 1215 l 521 1215 l 521 1042 l 347 1042 l 347 1215 m 868 521 l 868 347 l 694 347 l 694 521 l 868 521 m 1215 0 l 1042 0 l 1042 174 l 1215 174 l 1215 0 m 0 694 l 0 868 l 174 868 l 174 694 l 0 694 m 174 1042 l 0 1042 l 0 1215 l 174 1215 l 174 1042 m 521 174 l 521 0 l 347 0 l 347 174 l 521 174 m 347 347 l 347 521 l 521 521 l 521 347 l 347 347 m 868 1042 l 1042 1042 l 1042 868 l 868 868 l 868 1042 m 694 694 l 694 868 l 868 868 l 868 694 l 694 694 m 174 521 l 174 694 l 347 694 l 347 521 l 174 521 m 521 -174 l 521 0 l 694 0 l 694 -174 l 521 -174 m 868 1215 l 868 1042 l 694 1042 l 694 1215 l 868 1215 m 694 174 l 521 174 l 521 347 l 694 347 l 694 174 m 1042 347 l 1042 521 l 1215 521 l 1215 347 l 1042 347 m 521 694 l 347 694 l 347 868 l 521 868 l 521 694 m 174 347 l 0 347 l 0 521 l 174 521 l 174 347 m 347 1042 l 347 868 l 174 868 l 174 1042 l 347 1042 m 868 347 l 1042 347 l 1042 174 l 868 174 l 868 347 m 174 -174 l 174 0 l 347 0 l 347 -174 l 174 -174 m 521 521 l 521 694 l 694 694 l 694 521 l 521 521 m 868 -174 l 868 0 l 1042 0 l 1042 -174 l 868 -174 m 174 174 l 174 347 l 347 347 l 347 174 l 174 174 z "},"":{"ha":1215,"x_min":0,"x_max":1215,"o":"m 0 0 l 0 868 l 174 868 l 174 174 l 1215 174 l 1215 0 l 0 0 m 1215 694 l 1042 694 l 1042 868 l 1215 868 l 1215 694 m 1042 868 l 174 868 l 174 1042 l 1042 1042 l 1042 868 z "},"":{"ha":1215,"x_min":0,"x_max":1215,"o":"m 0 0 l 0 174 l 1042 174 l 1042 694 l 1215 694 l 1215 0 l 0 0 m 1042 868 l 1042 694 l 0 694 l 0 868 l 1042 868 z "},"":{"ha":1215,"x_min":1042,"x_max":1215,"o":"m 1042 1215 l 1215 1215 l 1215 -174 l 1042 -174 l 1042 1215 z "},"":{"ha":1215,"x_min":0,"x_max":1215,"o":"m 868 174 l 694 174 l 694 0 l 521 0 l 521 174 l 347 174 l 347 347 l 174 347 l 174 521 l 0 521 l 0 694 l 174 694 l 174 868 l 347 868 l 347 1042 l 521 1042 l 521 1215 l 694 1215 l 694 1042 l 868 1042 l 868 868 l 1042 868 l 1042 694 l 1215 694 l 1215 521 l 1042 521 l 1042 347 l 868 347 l 868 174 z "},"":{"ha":1215,"x_min":0,"x_max":1215,"o":"m 0 0 l 1215 0 l 1215 -174 l 0 -174 l 0 0 m 0 1042 l 0 1215 l 1215 1215 l 1215 1042 l 0 1042 z "},"":{"ha":1215,"x_min":0,"x_max":1215,"o":"m 1215 694 l 694 694 l 694 1215 l 868 1215 l 868 868 l 1215 868 l 1215 694 m 1215 347 l 868 347 l 868 0 l 694 0 l 694 521 l 1215 521 l 1215 347 m 521 521 l 521 0 l 347 0 l 347 347 l 0 347 l 0 521 l 521 521 m 347 1215 l 521 1215 l 521 694 l 0 694 l 0 868 l 347 868 l 347 1215 z "},"":{"ha":1215,"x_min":0,"x_max":1215,"o":"m 0 0 l 1042 0 l 1042 1042 l 0 1042 l 0 1215 l 1215 1215 l 1215 -174 l 0 -174 l 0 0 m 347 347 l 347 694 l 694 694 l 694 347 l 347 347 z "},"":{"ha":1215,"x_min":0,"x_max":174,"o":"m 0 -174 l 0 1215 l 174 1215 l 174 -174 l 0 -174 z "},"":{"ha":1215,"x_min":0,"x_max":0,"o":""},"":{"ha":1215,"x_min":521,"x_max":694,"o":"m 694 868 l 694 0 l 521 0 l 521 868 l 694 868 m 694 1215 l 694 1042 l 521 1042 l 521 1215 l 694 1215 z "},"":{"ha":1215,"x_min":174,"x_max":1042,"o":"m 1042 868 l 694 868 l 694 347 l 1042 347 l 1042 174 l 694 174 l 694 0 l 521 0 l 521 174 l 347 174 l 347 347 l 521 347 l 521 868 l 347 868 l 347 1042 l 521 1042 l 521 1215 l 694 1215 l 694 1042 l 1042 1042 l 1042 868 m 174 347 l 174 868 l 347 868 l 347 347 l 174 347 z "},"":{"ha":1215,"x_min":174,"x_max":1215,"o":"m 1042 868 l 1042 1042 l 1215 1042 l 1215 868 l 1042 868 m 174 0 l 174 174 l 347 174 l 347 0 l 174 0 m 521 521 l 521 174 l 347 174 l 347 521 l 174 521 l 174 694 l 347 694 l 347 1042 l 521 1042 l 521 694 l 694 694 l 694 521 l 521 521 m 1042 1042 l 521 1042 l 521 1215 l 1042 1215 l 1042 1042 m 1215 0 l 521 0 l 521 174 l 1215 174 l 1215 0 z "},"":{"ha":1215,"x_min":174,"x_max":1042,"o":"m 868 174 l 868 347 l 1042 347 l 1042 174 l 868 174 m 1042 868 l 868 868 l 868 1042 l 1042 1042 l 1042 868 m 521 521 l 694 521 l 694 694 l 521 694 l 521 521 m 174 174 l 174 347 l 347 347 l 347 174 l 174 174 m 868 868 l 868 347 l 347 347 l 347 868 l 868 868 m 174 1042 l 347 1042 l 347 868 l 174 868 l 174 1042 z "},"":{"ha":1215,"x_min":174,"x_max":1042,"o":"m 1042 521 l 1042 347 l 694 347 l 694 0 l 521 0 l 521 347 l 174 347 l 174 521 l 521 521 l 521 694 l 694 694 l 694 521 l 1042 521 m 868 1215 l 1042 1215 l 1042 868 l 868 868 l 868 1215 m 521 868 l 521 694 l 347 694 l 347 868 l 521 868 m 174 1215 l 347 1215 l 347 868 l 174 868 l 174 1215 m 694 868 l 868 868 l 868 694 l 694 694 l 694 868 z "},"":{"ha":1215,"x_min":521,"x_max":694,"o":"m 694 1215 l 694 694 l 521 694 l 521 1215 l 694 1215 m 694 -174 l 521 -174 l 521 347 l 694 347 l 694 -174 z "},"":{"ha":1215,"x_min":174,"x_max":1042,"o":"m 868 174 l 868 0 l 174 0 l 174 174 l 868 174 m 1042 521 l 868 521 l 868 694 l 1042 694 l 1042 521 m 1042 347 l 1042 174 l 868 174 l 868 347 l 1042 347 m 1042 1042 l 347 1042 l 347 1215 l 1042 1215 l 1042 1042 m 868 521 l 868 347 l 347 347 l 347 521 l 868 521 m 174 694 l 347 694 l 347 521 l 174 521 l 174 694 m 868 868 l 868 694 l 347 694 l 347 868 l 868 868 m 174 1042 l 347 1042 l 347 868 l 174 868 l 174 1042 z "},"":{"ha":1215,"x_min":174,"x_max":1042,"o":"m 1042 1215 l 1042 1042 l 868 1042 l 868 1215 l 1042 1215 m 174 1042 l 174 1215 l 347 1215 l 347 1042 l 174 1042 z "},"":{"ha":1215,"x_min":0,"x_max":1215,"o":"m 868 174 l 868 0 l 347 0 l 347 174 l 868 174 m 1042 868 l 868 868 l 868 1042 l 1042 1042 l 1042 868 m 1215 347 l 1042 347 l 1042 868 l 1215 868 l 1215 347 m 521 521 l 868 521 l 868 347 l 521 347 l 521 521 m 521 868 l 868 868 l 868 694 l 521 694 l 521 868 m 174 174 l 174 347 l 347 347 l 347 174 l 174 174 m 347 1215 l 868 1215 l 868 1042 l 347 1042 l 347 1215 m 1042 174 l 868 174 l 868 347 l 1042 347 l 1042 174 m 0 347 l 0 868 l 174 868 l 174 347 l 0 347 m 174 1042 l 347 1042 l 347 868 l 174 868 l 174 1042 m 347 694 l 521 694 l 521 521 l 347 521 l 347 694 z "},"":{"ha":1215,"x_min":347,"x_max":868,"o":"m 868 174 l 347 174 l 347 347 l 868 347 l 868 174 m 694 1215 l 694 1042 l 868 1042 l 868 521 l 521 521 l 521 694 l 694 694 l 694 868 l 521 868 l 521 1042 l 347 1042 l 347 1215 l 694 1215 m 521 868 l 521 694 l 347 694 l 347 868 l 521 868 z "},"":{"ha":1215,"x_min":0,"x_max":1215,"o":"m 868 174 l 868 347 l 1042 347 l 1042 174 l 868 174 m 1042 868 l 868 868 l 868 1042 l 1042 1042 l 1042 868 m 694 1215 l 694 1042 l 521 1042 l 521 1215 l 694 1215 m 521 521 l 521 694 l 694 694 l 694 521 l 521 521 m 521 868 l 347 868 l 347 1042 l 521 1042 l 521 868 m 1042 1042 l 1042 1215 l 1215 1215 l 1215 1042 l 1042 1042 m 694 0 l 521 0 l 521 174 l 694 174 l 694 0 m 868 521 l 868 347 l 694 347 l 694 521 l 868 521 m 1042 174 l 1215 174 l 1215 0 l 1042 0 l 1042 174 m 868 868 l 868 694 l 694 694 l 694 868 l 868 868 m 0 694 l 174 694 l 174 521 l 0 521 l 0 694 m 521 174 l 347 174 l 347 347 l 521 347 l 521 174 m 347 347 l 174 347 l 174 521 l 347 521 l 347 347 m 347 694 l 174 694 l 174 868 l 347 868 l 347 694 z "},"":{"ha":1215,"x_min":174,"x_max":1042,"o":"m 174 694 l 174 868 l 1042 868 l 1042 347 l 868 347 l 868 694 l 174 694 z "},"":{"ha":1215,"x_min":174,"x_max":1042,"o":"m 174 694 l 1042 694 l 1042 521 l 174 521 l 174 694 z "},"":{"ha":1215,"x_min":0,"x_max":1215,"o":"m 868 174 l 868 0 l 347 0 l 347 174 l 868 174 m 1042 868 l 868 868 l 868 1042 l 1042 1042 l 1042 868 m 1215 347 l 1042 347 l 1042 868 l 1215 868 l 1215 347 m 521 521 l 521 347 l 347 347 l 347 868 l 868 868 l 868 694 l 694 694 l 694 521 l 521 521 m 174 174 l 174 347 l 347 347 l 347 174 l 174 174 m 347 1215 l 868 1215 l 868 1042 l 347 1042 l 347 1215 m 868 521 l 868 347 l 694 347 l 694 521 l 868 521 m 1042 174 l 868 174 l 868 347 l 1042 347 l 1042 174 m 0 347 l 0 868 l 174 868 l 174 347 l 0 347 m 174 1042 l 347 1042 l 347 868 l 174 868 l 174 1042 z "},"":{"ha":1215,"x_min":174,"x_max":1042,"o":"m 1042 1215 l 1042 1042 l 174 1042 l 174 1215 l 1042 1215 z "},"":{"ha":1215,"x_min":347,"x_max":868,"o":"m 694 868 l 694 694 l 521 694 l 521 868 l 694 868 m 868 868 l 694 868 l 694 1042 l 868 1042 l 868 868 m 694 1215 l 694 1042 l 521 1042 l 521 1215 l 694 1215 m 347 1042 l 521 1042 l 521 868 l 347 868 l 347 1042 z "},"":{"ha":1215,"x_min":174,"x_max":1042,"o":"m 1042 868 l 1042 694 l 694 694 l 694 347 l 521 347 l 521 694 l 174 694 l 174 868 l 521 868 l 521 1215 l 694 1215 l 694 868 l 1042 868 m 174 0 l 174 174 l 1042 174 l 1042 0 l 174 0 z "},"":{"ha":1215,"x_min":347,"x_max":868,"o":"m 694 1215 l 694 1042 l 347 1042 l 347 1215 l 694 1215 m 521 868 l 694 868 l 694 694 l 868 694 l 868 521 l 347 521 l 347 694 l 521 694 l 521 868 m 694 868 l 694 1042 l 868 1042 l 868 868 l 694 868 z "},"":{"ha":1215,"x_min":347,"x_max":868,"o":"m 868 1215 l 868 1042 l 694 1042 l 694 868 l 521 868 l 521 1042 l 347 1042 l 347 1215 l 868 1215 m 694 868 l 868 868 l 868 694 l 694 694 l 694 868 m 694 521 l 347 521 l 347 694 l 694 694 l 694 521 z "},"":{"ha":1215,"x_min":347,"x_max":868,"o":"m 694 868 l 521 868 l 521 1042 l 694 1042 l 694 868 m 868 1215 l 868 1042 l 694 1042 l 694 1215 l 868 1215 m 347 694 l 347 868 l 521 868 l 521 694 l 347 694 z "},"":{"ha":1215,"x_min":174,"x_max":1042,"o":"m 868 174 l 694 174 l 694 347 l 868 347 l 868 868 l 1042 868 l 1042 0 l 868 0 l 868 174 m 174 -174 l 174 868 l 347 868 l 347 347 l 521 347 l 521 174 l 347 174 l 347 -174 l 174 -174 m 694 174 l 694 0 l 521 0 l 521 174 l 694 174 z "},"":{"ha":1215,"x_min":174,"x_max":1042,"o":"m 521 521 l 347 521 l 347 694 l 521 694 l 521 1042 l 347 1042 l 347 1215 l 1042 1215 l 1042 0 l 868 0 l 868 521 l 694 521 l 694 0 l 521 0 l 521 521 m 174 694 l 174 1042 l 347 1042 l 347 694 l 174 694 m 694 694 l 868 694 l 868 1042 l 694 1042 l 694 694 z "},"":{"ha":1215,"x_min":521,"x_max":694,"o":"m 694 521 l 521 521 l 521 694 l 694 694 l 694 521 z "},"":{"ha":1215,"x_min":521,"x_max":868,"o":"m 868 174 l 868 0 l 694 0 l 694 174 l 868 174 m 694 -174 l 521 -174 l 521 0 l 694 0 l 694 -174 z "},"":{"ha":1215,"x_min":347,"x_max":868,"o":"m 868 521 l 347 521 l 347 694 l 521 694 l 521 868 l 347 868 l 347 1042 l 521 1042 l 521 1215 l 694 1215 l 694 694 l 868 694 l 868 521 z "},"":{"ha":1215,"x_min":347,"x_max":868,"o":"m 868 174 l 347 174 l 347 347 l 868 347 l 868 174 m 694 1215 l 694 1042 l 521 1042 l 521 1215 l 694 1215 m 521 521 l 521 694 l 694 694 l 694 521 l 521 521 m 521 1042 l 521 694 l 347 694 l 347 1042 l 521 1042 m 694 694 l 694 1042 l 868 1042 l 868 694 l 694 694 z "},"":{"ha":1215,"x_min":0,"x_max":1215,"o":"m 0 0 l 0 174 l 174 174 l 174 0 l 0 0 m 868 174 l 694 174 l 694 347 l 868 347 l 868 174 m 1042 521 l 1042 347 l 868 347 l 868 521 l 1042 521 m 1215 694 l 1215 521 l 1042 521 l 1042 694 l 1215 694 m 1042 868 l 1042 694 l 868 694 l 868 868 l 1042 868 m 694 1215 l 694 1042 l 521 1042 l 521 1215 l 694 1215 m 521 521 l 521 347 l 347 347 l 347 521 l 521 521 m 521 868 l 521 694 l 347 694 l 347 868 l 521 868 m 0 1215 l 174 1215 l 174 1042 l 0 1042 l 0 1215 m 694 0 l 521 0 l 521 174 l 694 174 l 694 0 m 174 174 l 174 347 l 347 347 l 347 174 l 174 174 m 174 1042 l 347 1042 l 347 868 l 174 868 l 174 1042 m 868 868 l 694 868 l 694 1042 l 868 1042 l 868 868 m 694 694 l 694 521 l 521 521 l 521 694 l 694 694 z "},"":{"ha":1215,"x_min":174,"x_max":1042,"o":"m 868 174 l 694 174 l 694 521 l 868 521 l 868 347 l 1042 347 l 1042 0 l 868 0 l 868 174 m 1042 868 l 868 868 l 868 1042 l 1042 1042 l 1042 868 m 521 521 l 521 347 l 347 347 l 347 521 l 521 521 m 174 174 l 174 347 l 347 347 l 347 174 l 174 174 m 347 1215 l 347 694 l 174 694 l 174 1215 l 347 1215 m 868 868 l 868 694 l 694 694 l 694 868 l 868 868 m 694 694 l 694 521 l 521 521 l 521 694 l 694 694 z "},"":{"ha":1215,"x_min":174,"x_max":1042,"o":"m 868 174 l 1042 174 l 1042 0 l 694 0 l 694 521 l 1042 521 l 1042 347 l 868 347 l 868 174 m 1042 868 l 868 868 l 868 1042 l 1042 1042 l 1042 868 m 521 521 l 521 347 l 347 347 l 347 521 l 521 521 m 174 174 l 174 347 l 347 347 l 347 174 l 174 174 m 347 1215 l 347 694 l 174 694 l 174 1215 l 347 1215 m 868 868 l 868 694 l 694 694 l 694 868 l 868 868 m 694 694 l 694 521 l 521 521 l 521 694 l 694 694 z "},"":{"ha":1215,"x_min":174,"x_max":1042,"o":"m 868 174 l 694 174 l 694 521 l 868 521 l 868 347 l 1042 347 l 1042 0 l 868 0 l 868 174 m 1042 868 l 868 868 l 868 1042 l 1042 1042 l 1042 868 m 521 521 l 521 347 l 347 347 l 347 521 l 521 521 m 174 174 l 174 347 l 347 347 l 347 174 l 174 174 m 868 868 l 868 694 l 694 694 l 694 868 l 868 868 m 174 1042 l 174 1215 l 521 1215 l 521 694 l 174 694 l 174 868 l 347 868 l 347 1042 l 174 1042 m 694 694 l 694 521 l 521 521 l 521 694 l 694 694 z "},"":{"ha":1215,"x_min":174,"x_max":1042,"o":"m 868 174 l 868 0 l 347 0 l 347 174 l 868 174 m 694 1215 l 694 1042 l 521 1042 l 521 1215 l 694 1215 m 521 521 l 521 868 l 694 868 l 694 521 l 521 521 m 1042 347 l 1042 174 l 868 174 l 868 347 l 1042 347 m 174 174 l 174 347 l 347 347 l 347 174 l 174 174 m 521 347 l 347 347 l 347 521 l 521 521 l 521 347 z "},"":{"ha":1215,"x_min":174,"x_max":1042,"o":"m 868 174 l 347 174 l 347 0 l 174 0 l 174 521 l 347 521 l 347 347 l 868 347 l 868 521 l 1042 521 l 1042 0 l 868 0 l 868 174 m 694 1215 l 694 1042 l 521 1042 l 521 1215 l 694 1215 m 521 521 l 347 521 l 347 694 l 521 694 l 521 521 m 521 868 l 694 868 l 694 694 l 521 694 l 521 868 m 868 521 l 694 521 l 694 694 l 868 694 l 868 521 m 868 868 l 694 868 l 694 1042 l 868 1042 l 868 868 z "},"":{"ha":1215,"x_min":174,"x_max":1042,"o":"m 868 174 l 347 174 l 347 0 l 174 0 l 174 521 l 347 521 l 347 347 l 868 347 l 868 521 l 1042 521 l 1042 0 l 868 0 l 868 174 m 694 1215 l 694 1042 l 521 1042 l 521 1215 l 694 1215 m 521 521 l 347 521 l 347 694 l 521 694 l 521 521 m 521 868 l 694 868 l 694 694 l 521 694 l 521 868 m 521 1042 l 521 868 l 347 868 l 347 1042 l 521 1042 m 868 521 l 694 521 l 694 694 l 868 694 l 868 521 z "},"":{"ha":1215,"x_min":174,"x_max":1042,"o":"m 868 174 l 347 174 l 347 0 l 174 0 l 174 521 l 347 521 l 347 347 l 868 347 l 868 521 l 1042 521 l 1042 0 l 868 0 l 868 174 m 694 1215 l 694 1042 l 521 1042 l 521 1215 l 694 1215 m 521 521 l 347 521 l 347 694 l 521 694 l 521 521 m 521 868 l 694 868 l 694 694 l 521 694 l 521 868 m 521 1042 l 521 868 l 347 868 l 347 1042 l 521 1042 m 868 521 l 694 521 l 694 694 l 868 694 l 868 521 m 868 868 l 694 868 l 694 1042 l 868 1042 l 868 868 z "},"":{"ha":1215,"x_min":174,"x_max":1042,"o":"m 868 174 l 347 174 l 347 0 l 174 0 l 174 521 l 347 521 l 347 347 l 868 347 l 868 521 l 1042 521 l 1042 0 l 868 0 l 868 174 m 694 1215 l 694 1042 l 868 1042 l 868 868 l 694 868 l 694 694 l 521 694 l 521 1042 l 347 1042 l 347 1215 l 694 1215 m 521 521 l 347 521 l 347 694 l 521 694 l 521 521 m 1042 1042 l 868 1042 l 868 1215 l 1042 1215 l 1042 1042 m 868 521 l 694 521 l 694 694 l 868 694 l 868 521 m 174 1042 l 347 1042 l 347 868 l 174 868 l 174 1042 z "},"":{"ha":1215,"x_min":174,"x_max":1042,"o":"m 868 174 l 347 174 l 347 0 l 174 0 l 174 521 l 347 521 l 347 347 l 868 347 l 868 521 l 1042 521 l 1042 0 l 868 0 l 868 174 m 521 521 l 347 521 l 347 694 l 521 694 l 521 521 m 521 868 l 694 868 l 694 694 l 521 694 l 521 868 m 1042 1042 l 868 1042 l 868 1215 l 1042 1215 l 1042 1042 m 347 1215 l 347 1042 l 174 1042 l 174 1215 l 347 1215 m 868 521 l 694 521 l 694 694 l 868 694 l 868 521 z "},"":{"ha":1215,"x_min":174,"x_max":1042,"o":"m 868 1215 l 868 1042 l 347 1042 l 347 1215 l 868 1215 m 1042 868 l 868 868 l 868 1042 l 1042 1042 l 1042 868 m 174 0 l 174 694 l 347 694 l 347 521 l 868 521 l 868 694 l 1042 694 l 1042 0 l 868 0 l 868 347 l 347 347 l 347 0 l 174 0 m 868 868 l 868 694 l 347 694 l 347 868 l 868 868 m 174 1042 l 347 1042 l 347 868 l 174 868 l 174 1042 z "},"":{"ha":1215,"x_min":174,"x_max":1042,"o":"m 1042 521 l 694 521 l 694 174 l 1042 174 l 1042 0 l 521 0 l 521 521 l 347 521 l 347 0 l 174 0 l 174 1042 l 347 1042 l 347 694 l 521 694 l 521 1042 l 347 1042 l 347 1215 l 1042 1215 l 1042 1042 l 694 1042 l 694 694 l 1042 694 l 1042 521 z "},"":{"ha":1215,"x_min":174,"x_max":1042,"o":"m 1042 521 l 1042 347 l 868 347 l 868 521 l 1042 521 m 868 1215 l 868 1042 l 347 1042 l 347 1215 l 868 1215 m 1042 868 l 868 868 l 868 1042 l 1042 1042 l 1042 868 m 694 174 l 347 174 l 347 347 l 868 347 l 868 0 l 694 0 l 694 174 m 694 -174 l 521 -174 l 521 0 l 694 0 l 694 -174 m 174 1042 l 347 1042 l 347 347 l 174 347 l 174 1042 z "},"":{"ha":1215,"x_min":174,"x_max":1042,"o":"m 868 1215 l 868 1042 l 694 1042 l 694 1215 l 868 1215 m 174 0 l 174 868 l 868 868 l 868 1042 l 1042 1042 l 1042 694 l 347 694 l 347 521 l 868 521 l 868 347 l 347 347 l 347 174 l 1042 174 l 1042 0 l 174 0 z "},"":{"ha":1215,"x_min":174,"x_max":1042,"o":"m 868 1215 l 1042 1215 l 1042 1042 l 868 1042 l 868 1215 m 1042 868 l 1042 694 l 347 694 l 347 521 l 868 521 l 868 347 l 347 347 l 347 174 l 1042 174 l 1042 0 l 174 0 l 174 868 l 694 868 l 694 1042 l 868 1042 l 868 868 l 1042 868 z "},"":{"ha":1215,"x_min":174,"x_max":1042,"o":"m 868 1215 l 868 1042 l 694 1042 l 694 1215 l 868 1215 m 174 0 l 174 868 l 521 868 l 521 1042 l 694 1042 l 694 868 l 868 868 l 868 1042 l 1042 1042 l 1042 694 l 347 694 l 347 521 l 868 521 l 868 347 l 347 347 l 347 174 l 1042 174 l 1042 0 l 174 0 z "},"":{"ha":1215,"x_min":174,"x_max":1042,"o":"m 868 1215 l 1042 1215 l 1042 1042 l 868 1042 l 868 1215 m 1042 868 l 1042 694 l 347 694 l 347 521 l 868 521 l 868 347 l 347 347 l 347 174 l 1042 174 l 1042 0 l 174 0 l 174 868 l 1042 868 m 174 1215 l 347 1215 l 347 1042 l 174 1042 l 174 1215 z "},"":{"ha":1215,"x_min":347,"x_max":868,"o":"m 868 174 l 868 0 l 347 0 l 347 174 l 521 174 l 521 694 l 347 694 l 347 868 l 521 868 l 521 1042 l 694 1042 l 694 868 l 868 868 l 868 694 l 694 694 l 694 174 l 868 174 m 347 1215 l 521 1215 l 521 1042 l 347 1042 l 347 1215 z "},"":{"ha":1215,"x_min":347,"x_max":868,"o":"m 868 174 l 868 0 l 347 0 l 347 174 l 521 174 l 521 694 l 347 694 l 347 868 l 521 868 l 521 1042 l 694 1042 l 694 868 l 868 868 l 868 694 l 694 694 l 694 174 l 868 174 m 868 1215 l 868 1042 l 694 1042 l 694 1215 l 868 1215 z "},"":{"ha":1215,"x_min":347,"x_max":868,"o":"m 868 174 l 868 0 l 347 0 l 347 174 l 521 174 l 521 694 l 347 694 l 347 1042 l 521 1042 l 521 868 l 694 868 l 694 1042 l 868 1042 l 868 694 l 694 694 l 694 174 l 868 174 m 694 1215 l 694 1042 l 521 1042 l 521 1215 l 694 1215 z "},"":{"ha":1215,"x_min":174,"x_max":1042,"o":"m 868 174 l 868 0 l 347 0 l 347 174 l 521 174 l 521 694 l 347 694 l 347 868 l 868 868 l 868 694 l 694 694 l 694 174 l 868 174 m 868 1215 l 1042 1215 l 1042 1042 l 868 1042 l 868 1215 m 174 1215 l 347 1215 l 347 1042 l 174 1042 l 174 1215 z "},"":{"ha":1215,"x_min":174,"x_max":1042,"o":"m 868 174 l 868 0 l 347 0 l 347 521 l 174 521 l 174 694 l 347 694 l 347 1215 l 868 1215 l 868 1042 l 521 1042 l 521 694 l 694 694 l 694 521 l 521 521 l 521 174 l 868 174 m 1042 1042 l 1042 174 l 868 174 l 868 1042 l 1042 1042 z "},"":{"ha":1215,"x_min":174,"x_max":1042,"o":"m 868 174 l 694 174 l 694 347 l 868 347 l 868 694 l 1042 694 l 1042 0 l 868 0 l 868 174 m 694 1215 l 694 1042 l 868 1042 l 868 868 l 521 868 l 521 1042 l 347 1042 l 347 1215 l 694 1215 m 521 521 l 694 521 l 694 347 l 521 347 l 521 521 m 347 0 l 174 0 l 174 694 l 521 694 l 521 521 l 347 521 l 347 0 m 1042 1042 l 868 1042 l 868 1215 l 1042 1215 l 1042 1042 m 174 1042 l 347 1042 l 347 868 l 174 868 l 174 1042 z "},"":{"ha":1215,"x_min":174,"x_max":1042,"o":"m 868 174 l 868 0 l 347 0 l 347 174 l 868 174 m 694 1215 l 694 1042 l 521 1042 l 521 1215 l 694 1215 m 174 174 l 174 694 l 347 694 l 347 174 l 174 174 m 1042 694 l 1042 174 l 868 174 l 868 694 l 1042 694 m 694 868 l 694 1042 l 868 1042 l 868 694 l 347 694 l 347 868 l 694 868 z "},"":{"ha":1215,"x_min":174,"x_max":1042,"o":"m 868 174 l 868 0 l 347 0 l 347 174 l 868 174 m 868 1215 l 1042 1215 l 1042 1042 l 868 1042 l 868 1215 m 174 174 l 174 694 l 347 694 l 347 174 l 174 174 m 1042 694 l 1042 174 l 868 174 l 868 694 l 1042 694 m 694 868 l 694 1042 l 868 1042 l 868 694 l 347 694 l 347 868 l 694 868 z "},"":{"ha":1215,"x_min":174,"x_max":1042,"o":"m 868 174 l 868 0 l 347 0 l 347 174 l 868 174 m 868 1215 l 868 1042 l 694 1042 l 694 1215 l 868 1215 m 1042 868 l 868 868 l 868 1042 l 1042 1042 l 1042 868 m 521 868 l 521 1042 l 694 1042 l 694 868 l 868 868 l 868 694 l 347 694 l 347 868 l 521 868 m 1042 694 l 1042 174 l 868 174 l 868 694 l 1042 694 m 174 174 l 174 694 l 347 694 l 347 174 l 174 174 z "},"":{"ha":1215,"x_min":174,"x_max":1042,"o":"m 868 174 l 868 0 l 347 0 l 347 174 l 868 174 m 868 1215 l 1042 1215 l 1042 1042 l 868 1042 l 868 1215 m 694 1215 l 694 1042 l 868 1042 l 868 694 l 347 694 l 347 868 l 521 868 l 521 1042 l 347 1042 l 347 1215 l 694 1215 m 1042 694 l 1042 174 l 868 174 l 868 694 l 1042 694 m 174 174 l 174 694 l 347 694 l 347 174 l 174 174 m 174 1042 l 347 1042 l 347 868 l 174 868 l 174 1042 z "},"":{"ha":1215,"x_min":174,"x_max":1042,"o":"m 868 174 l 868 868 l 1042 868 l 1042 174 l 868 174 m 868 1215 l 1042 1215 l 1042 1042 l 868 1042 l 868 1215 m 347 0 l 347 174 l 868 174 l 868 0 l 347 0 m 174 174 l 174 868 l 347 868 l 347 174 l 174 174 m 174 1215 l 347 1215 l 347 1042 l 174 1042 l 174 1215 m 868 868 l 347 868 l 347 1042 l 868 1042 l 868 868 z "},"":{"ha":1215,"x_min":174,"x_max":1042,"o":"m 868 174 l 868 347 l 1042 347 l 1042 174 l 868 174 m 1042 868 l 868 868 l 868 1042 l 1042 1042 l 1042 868 m 521 521 l 521 347 l 347 347 l 347 521 l 521 521 m 521 868 l 521 694 l 347 694 l 347 868 l 521 868 m 174 174 l 174 347 l 347 347 l 347 174 l 174 174 m 868 521 l 868 347 l 694 347 l 694 521 l 868 521 m 868 868 l 868 694 l 694 694 l 694 868 l 868 868 m 174 1042 l 347 1042 l 347 868 l 174 868 l 174 1042 m 694 694 l 694 521 l 521 521 l 521 694 l 694 694 z "},"":{"ha":1215,"x_min":174,"x_max":1042,"o":"m 868 174 l 868 0 l 347 0 l 347 174 l 174 174 l 174 868 l 347 868 l 347 347 l 521 347 l 521 174 l 868 174 m 1042 868 l 1042 174 l 868 174 l 868 694 l 694 694 l 694 868 l 347 868 l 347 1042 l 868 1042 l 868 868 l 1042 868 m 174 -174 l 174 0 l 347 0 l 347 -174 l 174 -174 m 1042 1042 l 868 1042 l 868 1215 l 1042 1215 l 1042 1042 m 694 694 l 694 347 l 521 347 l 521 694 l 694 694 z "},"":{"ha":1215,"x_min":174,"x_max":1042,"o":"m 868 174 l 868 868 l 1042 868 l 1042 174 l 868 174 m 347 0 l 347 174 l 868 174 l 868 0 l 347 0 m 521 868 l 521 1042 l 694 1042 l 694 868 l 521 868 m 174 174 l 174 868 l 347 868 l 347 174 l 174 174 m 347 1215 l 521 1215 l 521 1042 l 347 1042 l 347 1215 z "},"":{"ha":1215,"x_min":174,"x_max":1042,"o":"m 868 174 l 868 868 l 1042 868 l 1042 174 l 868 174 m 868 1215 l 868 1042 l 694 1042 l 694 1215 l 868 1215 m 347 0 l 347 174 l 868 174 l 868 0 l 347 0 m 521 868 l 521 1042 l 694 1042 l 694 868 l 521 868 m 174 174 l 174 868 l 347 868 l 347 174 l 174 174 z "},"":{"ha":1215,"x_min":174,"x_max":1042,"o":"m 868 174 l 868 868 l 1042 868 l 1042 174 l 868 174 m 694 1215 l 694 1042 l 521 1042 l 521 1215 l 694 1215 m 347 0 l 347 174 l 868 174 l 868 0 l 347 0 m 521 868 l 347 868 l 347 1042 l 521 1042 l 521 868 m 174 174 l 174 868 l 347 868 l 347 174 l 174 174 m 694 868 l 694 1042 l 868 1042 l 868 868 l 694 868 z "},"":{"ha":1215,"x_min":174,"x_max":1042,"o":"m 868 174 l 868 868 l 1042 868 l 1042 174 l 868 174 m 868 1215 l 1042 1215 l 1042 1042 l 868 1042 l 868 1215 m 347 0 l 347 174 l 868 174 l 868 0 l 347 0 m 174 174 l 174 868 l 347 868 l 347 174 l 174 174 m 174 1215 l 347 1215 l 347 1042 l 174 1042 l 174 1215 z "},"":{"ha":1215,"x_min":174,"x_max":1042,"o":"m 868 1215 l 868 1042 l 694 1042 l 694 1215 l 868 1215 m 1042 521 l 868 521 l 868 868 l 1042 868 l 1042 521 m 521 521 l 521 347 l 347 347 l 347 521 l 521 521 m 521 868 l 521 1042 l 694 1042 l 694 868 l 521 868 m 694 0 l 521 0 l 521 347 l 694 347 l 694 0 m 868 521 l 868 347 l 694 347 l 694 521 l 868 521 m 174 868 l 347 868 l 347 521 l 174 521 l 174 868 z "},"":{"ha":1215,"x_min":174,"x_max":1042,"o":"m 1042 521 l 868 521 l 868 694 l 1042 694 l 1042 521 m 174 0 l 174 1215 l 347 1215 l 347 868 l 868 868 l 868 694 l 347 694 l 347 521 l 868 521 l 868 347 l 347 347 l 347 0 l 174 0 z "},"":{"ha":1215,"x_min":174,"x_max":1042,"o":"m 868 174 l 868 521 l 1042 521 l 1042 174 l 868 174 m 868 1215 l 868 1042 l 347 1042 l 347 694 l 868 694 l 868 521 l 347 521 l 347 -174 l 174 -174 l 174 1215 l 868 1215 m 1042 1042 l 1042 694 l 868 694 l 868 1042 l 1042 1042 m 868 0 l 521 0 l 521 174 l 868 174 l 868 0 z "},"":{"ha":1215,"x_min":174,"x_max":1042,"o":"m 868 174 l 868 347 l 347 347 l 347 521 l 868 521 l 868 694 l 1042 694 l 1042 0 l 347 0 l 347 174 l 868 174 m 868 1215 l 868 1042 l 694 1042 l 694 1215 l 868 1215 m 1042 868 l 868 868 l 868 1042 l 1042 1042 l 1042 868 m 174 174 l 174 347 l 347 347 l 347 174 l 174 174 m 868 868 l 868 694 l 347 694 l 347 868 l 868 868 z "},"":{"ha":1215,"x_min":174,"x_max":1042,"o":"m 868 174 l 868 347 l 347 347 l 347 521 l 868 521 l 868 694 l 1042 694 l 1042 0 l 347 0 l 347 174 l 868 174 m 868 1215 l 1042 1215 l 1042 1042 l 868 1042 l 868 1215 m 174 174 l 174 347 l 347 347 l 347 174 l 174 174 m 694 868 l 694 1042 l 868 1042 l 868 694 l 347 694 l 347 868 l 694 868 z "},"":{"ha":1215,"x_min":174,"x_max":1042,"o":"m 868 174 l 868 347 l 347 347 l 347 521 l 868 521 l 868 694 l 1042 694 l 1042 0 l 347 0 l 347 174 l 868 174 m 868 1215 l 868 1042 l 694 1042 l 694 1215 l 868 1215 m 1042 868 l 868 868 l 868 1042 l 1042 1042 l 1042 868 m 521 868 l 521 1042 l 694 1042 l 694 868 l 868 868 l 868 694 l 347 694 l 347 868 l 521 868 m 174 174 l 174 347 l 347 347 l 347 174 l 174 174 z "},"":{"ha":1215,"x_min":174,"x_max":1042,"o":"m 868 174 l 868 347 l 347 347 l 347 521 l 868 521 l 868 694 l 1042 694 l 1042 0 l 347 0 l 347 174 l 868 174 m 694 1215 l 694 1042 l 868 1042 l 868 694 l 347 694 l 347 868 l 521 868 l 521 1042 l 347 1042 l 347 1215 l 694 1215 m 1042 1042 l 868 1042 l 868 1215 l 1042 1215 l 1042 1042 m 174 174 l 174 347 l 347 347 l 347 174 l 174 174 m 174 1042 l 347 1042 l 347 868 l 174 868 l 174 1042 z "},"":{"ha":1215,"x_min":174,"x_max":1042,"o":"m 868 174 l 868 347 l 347 347 l 347 521 l 868 521 l 868 694 l 1042 694 l 1042 0 l 347 0 l 347 174 l 868 174 m 1042 868 l 868 868 l 868 1042 l 1042 1042 l 1042 868 m 174 174 l 174 347 l 347 347 l 347 174 l 174 174 m 868 868 l 868 694 l 347 694 l 347 868 l 868 868 m 174 1042 l 347 1042 l 347 868 l 174 868 l 174 1042 z "},"":{"ha":1215,"x_min":174,"x_max":1042,"o":"m 868 174 l 868 347 l 347 347 l 347 521 l 868 521 l 868 694 l 1042 694 l 1042 0 l 347 0 l 347 174 l 868 174 m 694 1215 l 694 1042 l 521 1042 l 521 1215 l 694 1215 m 521 868 l 694 868 l 694 1042 l 868 1042 l 868 694 l 347 694 l 347 1042 l 521 1042 l 521 868 m 174 174 l 174 347 l 347 347 l 347 174 l 174 174 z "},"":{"ha":1215,"x_min":174,"x_max":1042,"o":"m 521 521 l 521 694 l 694 694 l 694 521 l 868 521 l 868 694 l 1042 694 l 1042 347 l 694 347 l 694 174 l 1042 174 l 1042 0 l 347 0 l 347 174 l 521 174 l 521 347 l 347 347 l 347 521 l 521 521 m 521 868 l 521 694 l 174 694 l 174 868 l 521 868 m 174 174 l 174 347 l 347 347 l 347 174 l 174 174 m 868 868 l 868 694 l 694 694 l 694 868 l 868 868 z "},"":{"ha":1215,"x_min":174,"x_max":1042,"o":"m 868 174 l 868 0 l 694 0 l 694 174 l 347 174 l 347 347 l 1042 347 l 1042 174 l 868 174 m 1042 868 l 1042 694 l 347 694 l 347 868 l 1042 868 m 694 0 l 694 -174 l 521 -174 l 521 0 l 694 0 m 174 694 l 347 694 l 347 347 l 174 347 l 174 694 z "},"":{"ha":1215,"x_min":174,"x_max":1042,"o":"m 868 1215 l 868 1042 l 694 1042 l 694 1215 l 868 1215 m 1042 868 l 868 868 l 868 1042 l 1042 1042 l 1042 868 m 347 0 l 347 174 l 1042 174 l 1042 0 l 347 0 m 1042 347 l 347 347 l 347 174 l 174 174 l 174 694 l 347 694 l 347 521 l 868 521 l 868 694 l 1042 694 l 1042 347 m 868 868 l 868 694 l 347 694 l 347 868 l 868 868 z "},"":{"ha":1215,"x_min":174,"x_max":1042,"o":"m 868 1215 l 1042 1215 l 1042 1042 l 868 1042 l 868 1215 m 347 0 l 347 174 l 1042 174 l 1042 0 l 347 0 m 1042 347 l 347 347 l 347 174 l 174 174 l 174 694 l 347 694 l 347 521 l 868 521 l 868 694 l 1042 694 l 1042 347 m 694 868 l 694 1042 l 868 1042 l 868 694 l 347 694 l 347 868 l 694 868 z "},"":{"ha":1215,"x_min":174,"x_max":1042,"o":"m 868 1215 l 868 1042 l 694 1042 l 694 1215 l 868 1215 m 1042 868 l 868 868 l 868 1042 l 1042 1042 l 1042 868 m 347 0 l 347 174 l 1042 174 l 1042 0 l 347 0 m 521 868 l 521 1042 l 694 1042 l 694 868 l 868 868 l 868 694 l 347 694 l 347 868 l 521 868 m 1042 347 l 347 347 l 347 174 l 174 174 l 174 694 l 347 694 l 347 521 l 868 521 l 868 694 l 1042 694 l 1042 347 z "},"":{"ha":1215,"x_min":174,"x_max":1042,"o":"m 1042 868 l 868 868 l 868 1042 l 1042 1042 l 1042 868 m 347 0 l 347 174 l 1042 174 l 1042 0 l 347 0 m 1042 347 l 347 347 l 347 174 l 174 174 l 174 694 l 347 694 l 347 521 l 868 521 l 868 694 l 1042 694 l 1042 347 m 868 868 l 868 694 l 347 694 l 347 868 l 868 868 m 174 1042 l 347 1042 l 347 868 l 174 868 l 174 1042 z "},"":{"ha":1215,"x_min":347,"x_max":868,"o":"m 868 174 l 868 0 l 347 0 l 347 174 l 521 174 l 521 694 l 694 694 l 694 174 l 868 174 m 521 868 l 521 1042 l 694 1042 l 694 868 l 521 868 m 347 1215 l 521 1215 l 521 1042 l 347 1042 l 347 1215 z "},"":{"ha":1215,"x_min":347,"x_max":868,"o":"m 868 174 l 868 0 l 347 0 l 347 174 l 521 174 l 521 694 l 694 694 l 694 174 l 868 174 m 868 1215 l 868 1042 l 694 1042 l 694 1215 l 868 1215 m 521 868 l 521 1042 l 694 1042 l 694 868 l 521 868 z "},"":{"ha":1215,"x_min":347,"x_max":868,"o":"m 868 174 l 868 0 l 347 0 l 347 174 l 521 174 l 521 694 l 694 694 l 694 174 l 868 174 m 694 1215 l 694 1042 l 521 1042 l 521 1215 l 694 1215 m 521 868 l 347 868 l 347 1042 l 521 1042 l 521 868 m 694 868 l 694 1042 l 868 1042 l 868 868 l 694 868 z "},"":{"ha":1215,"x_min":174,"x_max":1042,"o":"m 868 174 l 868 0 l 347 0 l 347 174 l 521 174 l 521 694 l 694 694 l 694 174 l 868 174 m 1042 868 l 868 868 l 868 1042 l 1042 1042 l 1042 868 m 174 1042 l 347 1042 l 347 868 l 174 868 l 174 1042 z "},"":{"ha":1215,"x_min":174,"x_max":1042,"o":"m 868 174 l 868 521 l 1042 521 l 1042 174 l 868 174 m 868 1215 l 868 1042 l 694 1042 l 694 1215 l 868 1215 m 347 0 l 347 174 l 868 174 l 868 0 l 347 0 m 521 868 l 521 1042 l 694 1042 l 694 868 l 521 868 m 174 174 l 174 521 l 347 521 l 347 174 l 174 174 m 347 1215 l 521 1215 l 521 1042 l 347 1042 l 347 1215 m 521 694 l 694 694 l 694 868 l 868 868 l 868 521 l 347 521 l 347 868 l 521 868 l 521 694 z "},"":{"ha":1215,"x_min":174,"x_max":1042,"o":"m 1042 521 l 1042 0 l 868 0 l 868 521 l 1042 521 m 868 1215 l 1042 1215 l 1042 1042 l 868 1042 l 868 1215 m 174 0 l 174 694 l 868 694 l 868 521 l 347 521 l 347 0 l 174 0 m 694 1215 l 694 1042 l 868 1042 l 868 868 l 521 868 l 521 1042 l 347 1042 l 347 1215 l 694 1215 m 174 1042 l 347 1042 l 347 868 l 174 868 l 174 1042 z "},"":{"ha":1215,"x_min":174,"x_max":1042,"o":"m 868 174 l 868 521 l 1042 521 l 1042 174 l 868 174 m 347 0 l 347 174 l 868 174 l 868 0 l 347 0 m 521 868 l 521 1042 l 694 1042 l 694 868 l 521 868 m 174 174 l 174 521 l 347 521 l 347 174 l 174 174 m 868 521 l 347 521 l 347 694 l 694 694 l 694 868 l 868 868 l 868 521 z "},"":{"ha":1215,"x_min":174,"x_max":1042,"o":"m 868 174 l 868 521 l 1042 521 l 1042 174 l 868 174 m 1042 868 l 868 868 l 868 1042 l 1042 1042 l 1042 868 m 347 0 l 347 174 l 868 174 l 868 0 l 347 0 m 174 174 l 174 521 l 347 521 l 347 174 l 174 174 m 868 521 l 347 521 l 347 694 l 694 694 l 694 868 l 868 868 l 868 521 z "},"":{"ha":1215,"x_min":174,"x_max":1042,"o":"m 868 174 l 868 521 l 1042 521 l 1042 174 l 868 174 m 1042 868 l 1042 694 l 868 694 l 868 868 l 1042 868 m 347 0 l 347 174 l 868 174 l 868 0 l 347 0 m 521 868 l 694 868 l 694 694 l 868 694 l 868 521 l 347 521 l 347 694 l 521 694 l 521 868 m 174 174 l 174 521 l 347 521 l 347 174 l 174 174 m 694 868 l 694 1042 l 868 1042 l 868 868 l 694 868 z "},"":{"ha":1215,"x_min":174,"x_max":1042,"o":"m 868 174 l 868 521 l 1042 521 l 1042 174 l 868 174 m 694 1215 l 694 1042 l 868 1042 l 868 868 l 521 868 l 521 1042 l 347 1042 l 347 1215 l 694 1215 m 347 0 l 347 174 l 868 174 l 868 0 l 347 0 m 1042 1042 l 868 1042 l 868 1215 l 1042 1215 l 1042 1042 m 174 174 l 174 521 l 347 521 l 347 174 l 174 174 m 868 521 l 347 521 l 347 694 l 868 694 l 868 521 m 174 1042 l 347 1042 l 347 868 l 174 868 l 174 1042 z "},"":{"ha":1215,"x_min":174,"x_max":1042,"o":"m 868 174 l 868 0 l 347 0 l 347 174 l 868 174 m 1042 868 l 868 868 l 868 1042 l 1042 1042 l 1042 868 m 174 174 l 174 694 l 347 694 l 347 174 l 174 174 m 1042 694 l 1042 174 l 868 174 l 868 694 l 1042 694 m 868 868 l 868 694 l 347 694 l 347 868 l 868 868 m 174 1042 l 347 1042 l 347 868 l 174 868 l 174 1042 z "},"":{"ha":1215,"x_min":174,"x_max":1042,"o":"m 1042 521 l 174 521 l 174 694 l 1042 694 l 1042 521 m 694 868 l 521 868 l 521 1042 l 694 1042 l 694 868 m 694 174 l 521 174 l 521 347 l 694 347 l 694 174 z "},"":{"ha":1215,"x_min":174,"x_max":1042,"o":"m 868 174 l 868 521 l 694 521 l 694 694 l 347 694 l 347 868 l 868 868 l 868 694 l 1042 694 l 1042 174 l 868 174 m 174 -174 l 174 0 l 347 0 l 347 -174 l 174 -174 m 1042 868 l 868 868 l 868 1042 l 1042 1042 l 1042 868 m 521 521 l 694 521 l 694 347 l 521 347 l 521 521 m 347 0 l 347 174 l 174 174 l 174 694 l 347 694 l 347 347 l 521 347 l 521 174 l 868 174 l 868 0 l 347 0 z "},"":{"ha":1215,"x_min":174,"x_max":1042,"o":"m 868 174 l 694 174 l 694 347 l 868 347 l 868 868 l 1042 868 l 1042 0 l 868 0 l 868 174 m 694 174 l 694 0 l 347 0 l 347 174 l 694 174 m 521 868 l 521 1042 l 694 1042 l 694 868 l 521 868 m 174 174 l 174 868 l 347 868 l 347 174 l 174 174 m 347 1215 l 521 1215 l 521 1042 l 347 1042 l 347 1215 z "},"":{"ha":1215,"x_min":174,"x_max":1042,"o":"m 868 174 l 694 174 l 694 347 l 868 347 l 868 868 l 1042 868 l 1042 0 l 868 0 l 868 174 m 868 1215 l 868 1042 l 694 1042 l 694 1215 l 868 1215 m 694 174 l 694 0 l 347 0 l 347 174 l 694 174 m 521 868 l 521 1042 l 694 1042 l 694 868 l 521 868 m 174 174 l 174 868 l 347 868 l 347 174 l 174 174 z "},"":{"ha":1215,"x_min":174,"x_max":1042,"o":"m 868 174 l 694 174 l 694 347 l 868 347 l 868 868 l 1042 868 l 1042 0 l 868 0 l 868 174 m 694 174 l 694 0 l 347 0 l 347 174 l 694 174 m 694 1215 l 694 1042 l 521 1042 l 521 1215 l 694 1215 m 521 868 l 347 868 l 347 1042 l 521 1042 l 521 868 m 174 174 l 174 868 l 347 868 l 347 174 l 174 174 m 694 868 l 694 1042 l 868 1042 l 868 868 l 694 868 z "},"":{"ha":1215,"x_min":174,"x_max":1042,"o":"m 868 174 l 694 174 l 694 347 l 868 347 l 868 694 l 1042 694 l 1042 0 l 868 0 l 868 174 m 1042 868 l 868 868 l 868 1042 l 1042 1042 l 1042 868 m 694 174 l 694 0 l 347 0 l 347 174 l 694 174 m 174 174 l 174 694 l 347 694 l 347 174 l 174 174 m 174 1042 l 347 1042 l 347 868 l 174 868 l 174 1042 z "},"":{"ha":1215,"x_min":174,"x_max":1042,"o":"m 868 174 l 347 174 l 347 347 l 868 347 l 868 868 l 1042 868 l 1042 0 l 868 0 l 868 174 m 868 1215 l 868 1042 l 694 1042 l 694 1215 l 868 1215 m 347 0 l 868 0 l 868 -174 l 347 -174 l 347 0 m 521 868 l 521 1042 l 694 1042 l 694 868 l 521 868 m 174 347 l 174 868 l 347 868 l 347 347 l 174 347 z "},"":{"ha":1215,"x_min":174,"x_max":1042,"o":"m 868 174 l 347 174 l 347 -174 l 174 -174 l 174 1215 l 347 1215 l 347 868 l 868 868 l 868 694 l 347 694 l 347 347 l 868 347 l 868 174 m 1042 347 l 868 347 l 868 694 l 1042 694 l 1042 347 z "},"":{"ha":1215,"x_min":174,"x_max":1042,"o":"m 868 174 l 347 174 l 347 347 l 868 347 l 868 694 l 1042 694 l 1042 0 l 868 0 l 868 174 m 1042 868 l 868 868 l 868 1042 l 1042 1042 l 1042 868 m 347 0 l 868 0 l 868 -174 l 347 -174 l 347 0 m 174 694 l 347 694 l 347 347 l 174 347 l 174 694 m 174 1042 l 347 1042 l 347 868 l 174 868 l 174 1042 z "},"":{"ha":1215,"x_min":0,"x_max":1215,"o":"m 868 174 l 1042 174 l 1042 0 l 694 0 l 694 174 l 521 174 l 521 0 l 347 0 l 347 174 l 174 174 l 174 694 l 521 694 l 521 868 l 694 868 l 694 694 l 1042 694 l 1042 521 l 868 521 l 868 174 m 1215 694 l 1042 694 l 1042 868 l 694 868 l 694 1042 l 868 1042 l 868 1215 l 1215 1215 l 1215 694 m 1042 521 l 1215 521 l 1215 174 l 1042 174 l 1042 521 m 174 -174 l 0 -174 l 0 174 l 174 174 l 174 -174 m 694 1215 l 694 1042 l 521 1042 l 521 868 l 174 868 l 174 694 l 0 694 l 0 1215 l 694 1215 m 694 0 l 694 -174 l 521 -174 l 521 0 l 694 0 m 1215 0 l 1215 -174 l 1042 -174 l 1042 0 l 1215 0 z "},"":{"ha":1215,"x_min":0,"x_max":1215,"o":"m 0 0 l 174 0 l 174 -174 l 0 -174 l 0 0 m 1042 521 l 1042 694 l 1215 694 l 1215 521 l 1042 521 m 694 1215 l 694 1042 l 868 1042 l 868 868 l 174 868 l 174 694 l 0 694 l 0 1215 l 694 1215 m 1215 347 l 1215 -174 l 347 -174 l 347 0 l 1042 0 l 1042 347 l 1215 347 m 521 521 l 521 347 l 694 347 l 694 174 l 0 174 l 0 347 l 174 347 l 174 694 l 694 694 l 694 521 l 521 521 z "},"":{"ha":1215,"x_min":0,"x_max":1215,"o":"m 0 -174 l 0 347 l 347 347 l 347 174 l 521 174 l 521 0 l 694 0 l 694 -174 l 0 -174 m 521 521 l 0 521 l 0 694 l 521 694 l 521 868 l 868 868 l 868 1042 l 521 1042 l 521 868 l 0 868 l 0 1215 l 1215 1215 l 1215 0 l 694 0 l 694 347 l 521 347 l 521 521 z "},"":{"ha":1215,"x_min":0,"x_max":1215,"o":"m 0 -174 l 0 1215 l 521 1215 l 521 1042 l 694 1042 l 694 1215 l 1215 1215 l 1215 -174 l 0 -174 m 174 0 l 347 0 l 347 347 l 868 347 l 868 0 l 1042 0 l 1042 694 l 868 694 l 868 868 l 347 868 l 347 694 l 174 694 l 174 0 m 868 521 l 347 521 l 347 694 l 868 694 l 868 521 z "},"":{"ha":1215,"x_min":0,"x_max":1215,"o":"m 0 -174 l 0 1215 l 521 1215 l 521 1042 l 694 1042 l 694 1215 l 1215 1215 l 1215 -174 l 0 -174 m 868 174 l 347 174 l 347 347 l 868 347 l 868 174 m 347 0 l 1042 0 l 1042 694 l 868 694 l 868 868 l 347 868 l 347 694 l 868 694 l 868 521 l 347 521 l 347 347 l 174 347 l 174 174 l 347 174 l 347 0 z "},"":{"ha":1215,"x_min":0,"x_max":1215,"o":"m 868 174 l 868 347 l 1042 347 l 1042 521 l 347 521 l 347 868 l 1042 868 l 1042 1042 l 347 1042 l 347 868 l 174 868 l 174 521 l 347 521 l 347 347 l 694 347 l 694 174 l 521 174 l 521 0 l 694 0 l 694 174 l 868 174 m 0 -174 l 0 1215 l 1215 1215 l 1215 -174 l 0 -174 z "},"":{"ha":1215,"x_min":0,"x_max":1215,"o":"m 868 174 l 694 174 l 694 0 l 347 0 l 347 694 l 174 694 l 174 0 l 347 0 l 347 -174 l 0 -174 l 0 1215 l 1215 1215 l 1215 -174 l 1042 -174 l 1042 694 l 868 694 l 868 174 m 521 868 l 521 1042 l 347 1042 l 347 868 l 521 868 m 868 -174 l 694 -174 l 694 0 l 868 0 l 868 -174 m 694 694 l 694 868 l 521 868 l 521 694 l 694 694 z "},"":{"ha":1215,"x_min":0,"x_max":1042,"o":"m 1042 868 l 1042 694 l 868 694 l 868 868 l 1042 868 m 521 521 l 694 521 l 694 347 l 521 347 l 521 521 m 347 0 l 347 347 l 521 347 l 521 0 l 347 0 m 868 521 l 694 521 l 694 694 l 868 694 l 868 521 m 0 694 l 347 694 l 347 347 l 174 347 l 174 521 l 0 521 l 0 694 z "},"":{"ha":1215,"x_min":0,"x_max":1215,"o":"m 0 -174 l 0 1215 l 1215 1215 l 1215 -174 l 0 -174 z "},"":{"ha":1215,"x_min":0,"x_max":1215,"o":"m 0 -174 l 0 1215 l 521 1215 l 521 347 l 694 347 l 694 1215 l 1215 1215 l 1215 -174 l 0 -174 m 694 174 l 521 174 l 521 0 l 694 0 l 694 174 z "},"":{"ha":1215,"x_min":0,"x_max":1215,"o":"m 0 -174 l 0 1215 l 347 1215 l 347 694 l 521 694 l 521 1215 l 694 1215 l 694 694 l 868 694 l 868 1215 l 1215 1215 l 1215 -174 l 0 -174 z "},"":{"ha":1215,"x_min":0,"x_max":1215,"o":"m 1042 521 l 868 521 l 868 694 l 1042 694 l 1042 868 l 868 868 l 868 1215 l 1215 1215 l 1215 -174 l 0 -174 l 0 1215 l 347 1215 l 347 868 l 174 868 l 174 694 l 347 694 l 347 521 l 174 521 l 174 347 l 347 347 l 347 0 l 521 0 l 521 347 l 694 347 l 694 0 l 868 0 l 868 347 l 1042 347 l 1042 521 m 694 1215 l 694 868 l 521 868 l 521 1215 l 694 1215 m 521 521 l 521 694 l 694 694 l 694 521 l 521 521 z "},"":{"ha":1215,"x_min":0,"x_max":1215,"o":"m 868 174 l 868 347 l 1042 347 l 1042 521 l 868 521 l 868 694 l 694 694 l 694 868 l 1042 868 l 1042 1042 l 694 1042 l 694 1215 l 1215 1215 l 1215 -174 l 0 -174 l 0 1215 l 521 1215 l 521 1042 l 347 1042 l 347 868 l 174 868 l 174 694 l 347 694 l 347 521 l 521 521 l 521 347 l 174 347 l 174 174 l 521 174 l 521 0 l 694 0 l 694 174 l 868 174 m 521 868 l 521 694 l 347 694 l 347 868 l 521 868 m 868 521 l 868 347 l 694 347 l 694 521 l 868 521 z "},"":{"ha":1215,"x_min":0,"x_max":1215,"o":"m 1042 868 l 1042 1042 l 868 1042 l 868 868 l 694 868 l 694 694 l 521 694 l 521 521 l 347 521 l 347 347 l 174 347 l 174 174 l 347 174 l 347 347 l 521 347 l 521 521 l 694 521 l 694 694 l 868 694 l 868 868 l 1042 868 m 521 868 l 521 1215 l 1215 1215 l 1215 -174 l 0 -174 l 0 1215 l 174 1215 l 174 868 l 521 868 m 694 0 l 1042 0 l 1042 347 l 694 347 l 694 0 z "},"":{"ha":1215,"x_min":0,"x_max":1215,"o":"m 868 174 l 868 0 l 1042 0 l 1042 174 l 868 174 m 1042 521 l 868 521 l 868 347 l 694 347 l 694 521 l 521 521 l 521 694 l 694 694 l 694 1042 l 521 1042 l 521 1215 l 1215 1215 l 1215 -174 l 0 -174 l 0 1215 l 347 1215 l 347 1042 l 174 1042 l 174 694 l 347 694 l 347 521 l 174 521 l 174 174 l 347 174 l 347 0 l 694 0 l 694 174 l 868 174 l 868 347 l 1042 347 l 1042 521 m 521 521 l 521 347 l 694 347 l 694 174 l 347 174 l 347 521 l 521 521 m 521 1042 l 521 694 l 347 694 l 347 1042 l 521 1042 z "},"":{"ha":1215,"x_min":0,"x_max":1215,"o":"m 0 -174 l 0 1215 l 521 1215 l 521 694 l 694 694 l 694 1215 l 1215 1215 l 1215 -174 l 0 -174 z "},"":{"ha":1215,"x_min":0,"x_max":1215,"o":"m 0 -174 l 0 1215 l 521 1215 l 521 1042 l 347 1042 l 347 868 l 174 868 l 174 347 l 347 347 l 347 174 l 521 174 l 521 0 l 694 0 l 694 174 l 521 174 l 521 347 l 347 347 l 347 868 l 521 868 l 521 1042 l 694 1042 l 694 1215 l 1215 1215 l 1215 -174 l 0 -174 z "},"":{"ha":1215,"x_min":0,"x_max":1215,"o":"m 0 -174 l 0 1215 l 521 1215 l 521 1042 l 694 1042 l 694 868 l 868 868 l 868 347 l 694 347 l 694 174 l 521 174 l 521 0 l 694 0 l 694 174 l 868 174 l 868 347 l 1042 347 l 1042 868 l 868 868 l 868 1042 l 694 1042 l 694 1215 l 1215 1215 l 1215 -174 l 0 -174 z "},"":{"ha":1215,"x_min":0,"x_max":1215,"o":"m 868 174 l 1042 174 l 1042 347 l 868 347 l 868 521 l 694 521 l 694 694 l 868 694 l 868 868 l 1042 868 l 1042 1042 l 868 1042 l 868 868 l 694 868 l 694 1215 l 1215 1215 l 1215 -174 l 0 -174 l 0 1215 l 521 1215 l 521 868 l 347 868 l 347 1042 l 174 1042 l 174 868 l 347 868 l 347 694 l 521 694 l 521 521 l 347 521 l 347 347 l 174 347 l 174 174 l 347 174 l 347 347 l 521 347 l 521 0 l 694 0 l 694 347 l 868 347 l 868 174 z "},"":{"ha":1215,"x_min":0,"x_max":1215,"o":"m 0 -174 l 0 1215 l 1215 1215 l 1215 -174 l 0 -174 m 1042 521 l 1042 694 l 694 694 l 694 1042 l 521 1042 l 521 694 l 174 694 l 174 521 l 521 521 l 521 174 l 694 174 l 694 521 l 1042 521 z "}}}
